<?xml version="1.0" encoding="UTF-8" standalone="no"?>
<!DOCTYPE svg PUBLIC "-//W3C//DTD SVG 1.1//EN" "http://www.w3.org/Graphics/SVG/1.1/DTD/svg11.dtd">
<svg width="100%" height="100%" viewBox="0 0 641 353" version="1.1" xmlns="http://www.w3.org/2000/svg" xmlns:xlink="http://www.w3.org/1999/xlink" xml:space="preserve" xmlns:serif="http://www.serif.com/" style="fill-rule:evenodd;clip-rule:evenodd;stroke-linecap:round;stroke-linejoin:round;stroke-miterlimit:1.5;">
    <g id="Artboard1" transform="matrix(1,0,0,1,7,11)">
        <rect x="-7" y="-11" width="641" height="353" style="fill:none;"/>
        <g transform="matrix(1,0,0,0.435435,40.7817,-17.2883)">
            <path d="M79,42L79,708" style="fill:none;stroke:white;stroke-width:2.59px;"/>
        </g>
        <g transform="matrix(4.51316e-17,-1,0.737055,6.12323e-17,77.9465,360)">
            <path d="M79,42L79,735.135" style="fill:none;stroke:white;stroke-width:2.28px;"/>
        </g>
        <g transform="matrix(1,0,0,1,-46.5909,-499.172)">
            <path d="M79.539,744.316C81.351,744.316 82.479,742.996 82.479,741.364C82.479,739.732 81.483,738.628 79.911,738.628C79.239,738.628 78.579,738.82 78.123,739.348L78.123,737.236L81.999,737.236L81.999,736.012L76.875,736.012L76.875,740.692L78.135,740.692C78.435,740.008 78.939,739.744 79.719,739.744C80.607,739.744 81.159,740.404 81.159,741.412C81.159,742.42 80.571,743.092 79.563,743.092C78.807,743.092 78.171,742.708 78.123,741.988L76.731,741.988C76.827,743.356 78.015,744.316 79.539,744.316Z" style="fill:white;fill-rule:nonzero;"/>
            <path d="M86.691,744.316C88.743,744.316 89.823,742.852 89.823,740.092C89.823,737.332 88.743,735.868 86.691,735.868C84.639,735.868 83.559,737.332 83.559,740.092C83.559,742.852 84.639,744.316 86.691,744.316ZM86.691,743.116C85.467,743.116 84.867,742.12 84.867,740.092C84.867,738.064 85.467,737.068 86.691,737.068C87.915,737.068 88.515,738.064 88.515,740.092C88.515,742.12 87.915,743.116 86.691,743.116Z" style="fill:white;fill-rule:nonzero;"/>
            <path d="M94.035,744.316C96.087,744.316 97.167,742.852 97.167,740.092C97.167,737.332 96.087,735.868 94.035,735.868C91.983,735.868 90.903,737.332 90.903,740.092C90.903,742.852 91.983,744.316 94.035,744.316ZM94.035,743.116C92.811,743.116 92.211,742.12 92.211,740.092C92.211,738.064 92.811,737.068 94.035,737.068C95.259,737.068 95.859,738.064 95.859,740.092C95.859,742.12 95.259,743.116 94.035,743.116Z" style="fill:white;fill-rule:nonzero;"/>
            <path d="M98.655,745.624C99.795,745.624 100.359,744.82 100.359,743.764C100.359,742.708 99.687,742.312 99.183,742.312C98.607,742.312 98.187,742.708 98.187,743.296C98.187,743.884 98.607,744.244 99.111,744.244C99.303,744.244 99.519,744.196 99.651,744.04C99.627,744.304 99.543,744.556 99.387,744.736C99.243,744.916 99.015,745.024 98.715,745.024C98.451,745.024 98.367,745.024 98.187,745L98.187,745.588C98.307,745.612 98.499,745.624 98.655,745.624Z" style="fill:white;fill-rule:nonzero;"/>
            <path d="M104.391,744.316C106.443,744.316 107.523,742.852 107.523,740.092C107.523,737.332 106.443,735.868 104.391,735.868C102.339,735.868 101.259,737.332 101.259,740.092C101.259,742.852 102.339,744.316 104.391,744.316ZM104.391,743.116C103.167,743.116 102.567,742.12 102.567,740.092C102.567,738.064 103.167,737.068 104.391,737.068C105.615,737.068 106.215,738.064 106.215,740.092C106.215,742.12 105.615,743.116 104.391,743.116Z" style="fill:white;fill-rule:nonzero;"/>
            <path d="M111.735,744.316C113.787,744.316 114.867,742.852 114.867,740.092C114.867,737.332 113.787,735.868 111.735,735.868C109.683,735.868 108.603,737.332 108.603,740.092C108.603,742.852 109.683,744.316 111.735,744.316ZM111.735,743.116C110.511,743.116 109.911,742.12 109.911,740.092C109.911,738.064 110.511,737.068 111.735,737.068C112.959,737.068 113.559,738.064 113.559,740.092C113.559,742.12 112.959,743.116 111.735,743.116Z" style="fill:white;fill-rule:nonzero;"/>
            <path d="M119.079,744.316C121.131,744.316 122.211,742.852 122.211,740.092C122.211,737.332 121.131,735.868 119.079,735.868C117.027,735.868 115.947,737.332 115.947,740.092C115.947,742.852 117.027,744.316 119.079,744.316ZM119.079,743.116C117.855,743.116 117.255,742.12 117.255,740.092C117.255,738.064 117.855,737.068 119.079,737.068C120.303,737.068 120.903,738.064 120.903,740.092C120.903,742.12 120.303,743.116 119.079,743.116Z" style="fill:white;fill-rule:nonzero;"/>
            <path d="M123.699,745.624C124.839,745.624 125.403,744.82 125.403,743.764C125.403,742.708 124.731,742.312 124.227,742.312C123.651,742.312 123.231,742.708 123.231,743.296C123.231,743.884 123.651,744.244 124.155,744.244C124.347,744.244 124.563,744.196 124.695,744.04C124.671,744.304 124.587,744.556 124.431,744.736C124.287,744.916 124.059,745.024 123.759,745.024C123.495,745.024 123.411,745.024 123.231,745L123.231,745.588C123.351,745.612 123.543,745.624 123.699,745.624Z" style="fill:white;fill-rule:nonzero;"/>
            <path d="M129.435,744.316C131.487,744.316 132.567,742.852 132.567,740.092C132.567,737.332 131.487,735.868 129.435,735.868C127.383,735.868 126.303,737.332 126.303,740.092C126.303,742.852 127.383,744.316 129.435,744.316ZM129.435,743.116C128.211,743.116 127.611,742.12 127.611,740.092C127.611,738.064 128.211,737.068 129.435,737.068C130.659,737.068 131.259,738.064 131.259,740.092C131.259,742.12 130.659,743.116 129.435,743.116Z" style="fill:white;fill-rule:nonzero;"/>
            <path d="M136.779,744.316C138.831,744.316 139.911,742.852 139.911,740.092C139.911,737.332 138.831,735.868 136.779,735.868C134.727,735.868 133.647,737.332 133.647,740.092C133.647,742.852 134.727,744.316 136.779,744.316ZM136.779,743.116C135.555,743.116 134.955,742.12 134.955,740.092C134.955,738.064 135.555,737.068 136.779,737.068C138.003,737.068 138.603,738.064 138.603,740.092C138.603,742.12 138.003,743.116 136.779,743.116Z" style="fill:white;fill-rule:nonzero;"/>
            <path d="M144.123,744.316C146.175,744.316 147.255,742.852 147.255,740.092C147.255,737.332 146.175,735.868 144.123,735.868C142.071,735.868 140.991,737.332 140.991,740.092C140.991,742.852 142.071,744.316 144.123,744.316ZM144.123,743.116C142.899,743.116 142.299,742.12 142.299,740.092C142.299,738.064 142.899,737.068 144.123,737.068C145.347,737.068 145.947,738.064 145.947,740.092C145.947,742.12 145.347,743.116 144.123,743.116Z" style="fill:white;fill-rule:nonzero;"/>
        </g>
        <g transform="matrix(1,0,0,1,-47.1553,-539.172)">
            <path d="M79.443,738.436L79.419,738.436L81.315,736.012L79.671,736.012L77.103,739.48C76.707,739.996 76.491,740.656 76.491,741.376C76.491,743.02 77.595,744.316 79.443,744.316C81.291,744.316 82.395,743.02 82.395,741.376C82.395,739.732 81.291,738.436 79.443,738.436ZM79.443,743.152C78.387,743.152 77.799,742.396 77.799,741.376C77.799,740.356 78.387,739.6 79.443,739.6C80.499,739.6 81.087,740.356 81.087,741.376C81.087,742.396 80.499,743.152 79.443,743.152Z" style="fill:white;fill-rule:nonzero;"/>
            <path d="M86.547,744.316C88.599,744.316 89.679,742.852 89.679,740.092C89.679,737.332 88.599,735.868 86.547,735.868C84.495,735.868 83.415,737.332 83.415,740.092C83.415,742.852 84.495,744.316 86.547,744.316ZM86.547,743.116C85.323,743.116 84.723,742.12 84.723,740.092C84.723,738.064 85.323,737.068 86.547,737.068C87.771,737.068 88.371,738.064 88.371,740.092C88.371,742.12 87.771,743.116 86.547,743.116Z" style="fill:white;fill-rule:nonzero;"/>
            <path d="M93.891,744.316C95.943,744.316 97.023,742.852 97.023,740.092C97.023,737.332 95.943,735.868 93.891,735.868C91.839,735.868 90.759,737.332 90.759,740.092C90.759,742.852 91.839,744.316 93.891,744.316ZM93.891,743.116C92.667,743.116 92.067,742.12 92.067,740.092C92.067,738.064 92.667,737.068 93.891,737.068C95.115,737.068 95.715,738.064 95.715,740.092C95.715,742.12 95.115,743.116 93.891,743.116Z" style="fill:white;fill-rule:nonzero;"/>
            <path d="M98.511,745.624C99.651,745.624 100.215,744.82 100.215,743.764C100.215,742.708 99.543,742.312 99.039,742.312C98.463,742.312 98.043,742.708 98.043,743.296C98.043,743.884 98.463,744.244 98.967,744.244C99.159,744.244 99.375,744.196 99.507,744.04C99.483,744.304 99.399,744.556 99.243,744.736C99.099,744.916 98.871,745.024 98.571,745.024C98.307,745.024 98.223,745.024 98.043,745L98.043,745.588C98.163,745.612 98.355,745.624 98.511,745.624Z" style="fill:white;fill-rule:nonzero;"/>
            <path d="M104.247,744.316C106.299,744.316 107.379,742.852 107.379,740.092C107.379,737.332 106.299,735.868 104.247,735.868C102.195,735.868 101.115,737.332 101.115,740.092C101.115,742.852 102.195,744.316 104.247,744.316ZM104.247,743.116C103.023,743.116 102.423,742.12 102.423,740.092C102.423,738.064 103.023,737.068 104.247,737.068C105.471,737.068 106.071,738.064 106.071,740.092C106.071,742.12 105.471,743.116 104.247,743.116Z" style="fill:white;fill-rule:nonzero;"/>
            <path d="M111.591,744.316C113.643,744.316 114.723,742.852 114.723,740.092C114.723,737.332 113.643,735.868 111.591,735.868C109.539,735.868 108.459,737.332 108.459,740.092C108.459,742.852 109.539,744.316 111.591,744.316ZM111.591,743.116C110.367,743.116 109.767,742.12 109.767,740.092C109.767,738.064 110.367,737.068 111.591,737.068C112.815,737.068 113.415,738.064 113.415,740.092C113.415,742.12 112.815,743.116 111.591,743.116Z" style="fill:white;fill-rule:nonzero;"/>
            <path d="M118.935,744.316C120.987,744.316 122.067,742.852 122.067,740.092C122.067,737.332 120.987,735.868 118.935,735.868C116.883,735.868 115.803,737.332 115.803,740.092C115.803,742.852 116.883,744.316 118.935,744.316ZM118.935,743.116C117.711,743.116 117.111,742.12 117.111,740.092C117.111,738.064 117.711,737.068 118.935,737.068C120.159,737.068 120.759,738.064 120.759,740.092C120.759,742.12 120.159,743.116 118.935,743.116Z" style="fill:white;fill-rule:nonzero;"/>
            <path d="M123.555,745.624C124.695,745.624 125.259,744.82 125.259,743.764C125.259,742.708 124.587,742.312 124.083,742.312C123.507,742.312 123.087,742.708 123.087,743.296C123.087,743.884 123.507,744.244 124.011,744.244C124.203,744.244 124.419,744.196 124.551,744.04C124.527,744.304 124.443,744.556 124.287,744.736C124.143,744.916 123.915,745.024 123.615,745.024C123.351,745.024 123.267,745.024 123.087,745L123.087,745.588C123.207,745.612 123.399,745.624 123.555,745.624Z" style="fill:white;fill-rule:nonzero;"/>
            <path d="M129.291,744.316C131.343,744.316 132.423,742.852 132.423,740.092C132.423,737.332 131.343,735.868 129.291,735.868C127.239,735.868 126.159,737.332 126.159,740.092C126.159,742.852 127.239,744.316 129.291,744.316ZM129.291,743.116C128.067,743.116 127.467,742.12 127.467,740.092C127.467,738.064 128.067,737.068 129.291,737.068C130.515,737.068 131.115,738.064 131.115,740.092C131.115,742.12 130.515,743.116 129.291,743.116Z" style="fill:white;fill-rule:nonzero;"/>
            <path d="M136.635,744.316C138.687,744.316 139.767,742.852 139.767,740.092C139.767,737.332 138.687,735.868 136.635,735.868C134.583,735.868 133.503,737.332 133.503,740.092C133.503,742.852 134.583,744.316 136.635,744.316ZM136.635,743.116C135.411,743.116 134.811,742.12 134.811,740.092C134.811,738.064 135.411,737.068 136.635,737.068C137.859,737.068 138.459,738.064 138.459,740.092C138.459,742.12 137.859,743.116 136.635,743.116Z" style="fill:white;fill-rule:nonzero;"/>
            <path d="M143.979,744.316C146.031,744.316 147.111,742.852 147.111,740.092C147.111,737.332 146.031,735.868 143.979,735.868C141.927,735.868 140.847,737.332 140.847,740.092C140.847,742.852 141.927,744.316 143.979,744.316ZM143.979,743.116C142.755,743.116 142.155,742.12 142.155,740.092C142.155,738.064 142.755,737.068 143.979,737.068C145.203,737.068 145.803,738.064 145.803,740.092C145.803,742.12 145.203,743.116 143.979,743.116Z" style="fill:white;fill-rule:nonzero;"/>
        </g>
        <g transform="matrix(1,0,0,1,-45.794,-579.172)">
            <path d="M78.219,744.172L82.335,736.012L76.551,736.012L76.551,737.272L80.271,737.272L76.695,744.172L78.219,744.172Z" style="fill:white;fill-rule:nonzero;"/>
            <path d="M85.407,744.316C87.459,744.316 88.539,742.852 88.539,740.092C88.539,737.332 87.459,735.868 85.407,735.868C83.355,735.868 82.275,737.332 82.275,740.092C82.275,742.852 83.355,744.316 85.407,744.316ZM85.407,743.116C84.183,743.116 83.583,742.12 83.583,740.092C83.583,738.064 84.183,737.068 85.407,737.068C86.631,737.068 87.231,738.064 87.231,740.092C87.231,742.12 86.631,743.116 85.407,743.116Z" style="fill:white;fill-rule:nonzero;"/>
            <path d="M92.751,744.316C94.803,744.316 95.883,742.852 95.883,740.092C95.883,737.332 94.803,735.868 92.751,735.868C90.699,735.868 89.619,737.332 89.619,740.092C89.619,742.852 90.699,744.316 92.751,744.316ZM92.751,743.116C91.527,743.116 90.927,742.12 90.927,740.092C90.927,738.064 91.527,737.068 92.751,737.068C93.975,737.068 94.575,738.064 94.575,740.092C94.575,742.12 93.975,743.116 92.751,743.116Z" style="fill:white;fill-rule:nonzero;"/>
            <path d="M97.371,745.624C98.511,745.624 99.075,744.82 99.075,743.764C99.075,742.708 98.403,742.312 97.899,742.312C97.323,742.312 96.903,742.708 96.903,743.296C96.903,743.884 97.323,744.244 97.827,744.244C98.019,744.244 98.235,744.196 98.367,744.04C98.343,744.304 98.259,744.556 98.103,744.736C97.959,744.916 97.731,745.024 97.431,745.024C97.167,745.024 97.083,745.024 96.903,745L96.903,745.588C97.023,745.612 97.215,745.624 97.371,745.624Z" style="fill:white;fill-rule:nonzero;"/>
            <path d="M103.107,744.316C105.159,744.316 106.239,742.852 106.239,740.092C106.239,737.332 105.159,735.868 103.107,735.868C101.055,735.868 99.975,737.332 99.975,740.092C99.975,742.852 101.055,744.316 103.107,744.316ZM103.107,743.116C101.883,743.116 101.283,742.12 101.283,740.092C101.283,738.064 101.883,737.068 103.107,737.068C104.331,737.068 104.931,738.064 104.931,740.092C104.931,742.12 104.331,743.116 103.107,743.116Z" style="fill:white;fill-rule:nonzero;"/>
            <path d="M110.451,744.316C112.503,744.316 113.583,742.852 113.583,740.092C113.583,737.332 112.503,735.868 110.451,735.868C108.399,735.868 107.319,737.332 107.319,740.092C107.319,742.852 108.399,744.316 110.451,744.316ZM110.451,743.116C109.227,743.116 108.627,742.12 108.627,740.092C108.627,738.064 109.227,737.068 110.451,737.068C111.675,737.068 112.275,738.064 112.275,740.092C112.275,742.12 111.675,743.116 110.451,743.116Z" style="fill:white;fill-rule:nonzero;"/>
            <path d="M117.795,744.316C119.847,744.316 120.927,742.852 120.927,740.092C120.927,737.332 119.847,735.868 117.795,735.868C115.743,735.868 114.663,737.332 114.663,740.092C114.663,742.852 115.743,744.316 117.795,744.316ZM117.795,743.116C116.571,743.116 115.971,742.12 115.971,740.092C115.971,738.064 116.571,737.068 117.795,737.068C119.019,737.068 119.619,738.064 119.619,740.092C119.619,742.12 119.019,743.116 117.795,743.116Z" style="fill:white;fill-rule:nonzero;"/>
            <path d="M122.415,745.624C123.555,745.624 124.119,744.82 124.119,743.764C124.119,742.708 123.447,742.312 122.943,742.312C122.367,742.312 121.947,742.708 121.947,743.296C121.947,743.884 122.367,744.244 122.871,744.244C123.063,744.244 123.279,744.196 123.411,744.04C123.387,744.304 123.303,744.556 123.147,744.736C123.003,744.916 122.775,745.024 122.475,745.024C122.211,745.024 122.127,745.024 121.947,745L121.947,745.588C122.067,745.612 122.259,745.624 122.415,745.624Z" style="fill:white;fill-rule:nonzero;"/>
            <path d="M128.151,744.316C130.203,744.316 131.283,742.852 131.283,740.092C131.283,737.332 130.203,735.868 128.151,735.868C126.099,735.868 125.019,737.332 125.019,740.092C125.019,742.852 126.099,744.316 128.151,744.316ZM128.151,743.116C126.927,743.116 126.327,742.12 126.327,740.092C126.327,738.064 126.927,737.068 128.151,737.068C129.375,737.068 129.975,738.064 129.975,740.092C129.975,742.12 129.375,743.116 128.151,743.116Z" style="fill:white;fill-rule:nonzero;"/>
            <path d="M135.495,744.316C137.547,744.316 138.627,742.852 138.627,740.092C138.627,737.332 137.547,735.868 135.495,735.868C133.443,735.868 132.363,737.332 132.363,740.092C132.363,742.852 133.443,744.316 135.495,744.316ZM135.495,743.116C134.271,743.116 133.671,742.12 133.671,740.092C133.671,738.064 134.271,737.068 135.495,737.068C136.719,737.068 137.319,738.064 137.319,740.092C137.319,742.12 136.719,743.116 135.495,743.116Z" style="fill:white;fill-rule:nonzero;"/>
            <path d="M142.839,744.316C144.891,744.316 145.971,742.852 145.971,740.092C145.971,737.332 144.891,735.868 142.839,735.868C140.787,735.868 139.707,737.332 139.707,740.092C139.707,742.852 140.787,744.316 142.839,744.316ZM142.839,743.116C141.615,743.116 141.015,742.12 141.015,740.092C141.015,738.064 141.615,737.068 142.839,737.068C144.063,737.068 144.663,738.064 144.663,740.092C144.663,742.12 144.063,743.116 142.839,743.116Z" style="fill:white;fill-rule:nonzero;"/>
        </g>
        <g transform="matrix(1,0,0,1,-47.2706,-619.172)">
            <path d="M79.551,744.316C81.339,744.316 82.491,743.368 82.491,741.892C82.491,740.932 82.011,740.224 81.195,739.936C81.903,739.648 82.371,738.904 82.371,738.052C82.371,736.756 81.219,735.868 79.551,735.868C77.883,735.868 76.731,736.756 76.731,738.052C76.731,738.904 77.175,739.648 77.883,739.936C77.067,740.224 76.611,740.932 76.611,741.892C76.611,743.368 77.763,744.316 79.551,744.316ZM79.551,739.384C78.735,739.384 78.147,738.904 78.147,738.184C78.147,737.428 78.687,736.972 79.551,736.972C80.415,736.972 80.955,737.428 80.955,738.184C80.955,738.904 80.415,739.384 79.551,739.384ZM79.551,743.152C78.627,743.152 78.015,742.624 78.015,741.808C78.015,740.992 78.675,740.464 79.551,740.464C80.475,740.464 81.087,740.992 81.087,741.808C81.087,742.624 80.475,743.152 79.551,743.152Z" style="fill:white;fill-rule:nonzero;"/>
            <path d="M86.763,744.316C88.815,744.316 89.895,742.852 89.895,740.092C89.895,737.332 88.815,735.868 86.763,735.868C84.711,735.868 83.631,737.332 83.631,740.092C83.631,742.852 84.711,744.316 86.763,744.316ZM86.763,743.116C85.539,743.116 84.939,742.12 84.939,740.092C84.939,738.064 85.539,737.068 86.763,737.068C87.987,737.068 88.587,738.064 88.587,740.092C88.587,742.12 87.987,743.116 86.763,743.116Z" style="fill:white;fill-rule:nonzero;"/>
            <path d="M94.107,744.316C96.159,744.316 97.239,742.852 97.239,740.092C97.239,737.332 96.159,735.868 94.107,735.868C92.055,735.868 90.975,737.332 90.975,740.092C90.975,742.852 92.055,744.316 94.107,744.316ZM94.107,743.116C92.883,743.116 92.283,742.12 92.283,740.092C92.283,738.064 92.883,737.068 94.107,737.068C95.331,737.068 95.931,738.064 95.931,740.092C95.931,742.12 95.331,743.116 94.107,743.116Z" style="fill:white;fill-rule:nonzero;"/>
            <path d="M98.727,745.624C99.867,745.624 100.431,744.82 100.431,743.764C100.431,742.708 99.759,742.312 99.255,742.312C98.679,742.312 98.259,742.708 98.259,743.296C98.259,743.884 98.679,744.244 99.183,744.244C99.375,744.244 99.591,744.196 99.723,744.04C99.699,744.304 99.615,744.556 99.459,744.736C99.315,744.916 99.087,745.024 98.787,745.024C98.523,745.024 98.439,745.024 98.259,745L98.259,745.588C98.379,745.612 98.571,745.624 98.727,745.624Z" style="fill:white;fill-rule:nonzero;"/>
            <path d="M104.463,744.316C106.515,744.316 107.595,742.852 107.595,740.092C107.595,737.332 106.515,735.868 104.463,735.868C102.411,735.868 101.331,737.332 101.331,740.092C101.331,742.852 102.411,744.316 104.463,744.316ZM104.463,743.116C103.239,743.116 102.639,742.12 102.639,740.092C102.639,738.064 103.239,737.068 104.463,737.068C105.687,737.068 106.287,738.064 106.287,740.092C106.287,742.12 105.687,743.116 104.463,743.116Z" style="fill:white;fill-rule:nonzero;"/>
            <path d="M111.807,744.316C113.859,744.316 114.939,742.852 114.939,740.092C114.939,737.332 113.859,735.868 111.807,735.868C109.755,735.868 108.675,737.332 108.675,740.092C108.675,742.852 109.755,744.316 111.807,744.316ZM111.807,743.116C110.583,743.116 109.983,742.12 109.983,740.092C109.983,738.064 110.583,737.068 111.807,737.068C113.031,737.068 113.631,738.064 113.631,740.092C113.631,742.12 113.031,743.116 111.807,743.116Z" style="fill:white;fill-rule:nonzero;"/>
            <path d="M119.151,744.316C121.203,744.316 122.283,742.852 122.283,740.092C122.283,737.332 121.203,735.868 119.151,735.868C117.099,735.868 116.019,737.332 116.019,740.092C116.019,742.852 117.099,744.316 119.151,744.316ZM119.151,743.116C117.927,743.116 117.327,742.12 117.327,740.092C117.327,738.064 117.927,737.068 119.151,737.068C120.375,737.068 120.975,738.064 120.975,740.092C120.975,742.12 120.375,743.116 119.151,743.116Z" style="fill:white;fill-rule:nonzero;"/>
            <path d="M123.771,745.624C124.911,745.624 125.475,744.82 125.475,743.764C125.475,742.708 124.803,742.312 124.299,742.312C123.723,742.312 123.303,742.708 123.303,743.296C123.303,743.884 123.723,744.244 124.227,744.244C124.419,744.244 124.635,744.196 124.767,744.04C124.743,744.304 124.659,744.556 124.503,744.736C124.359,744.916 124.131,745.024 123.831,745.024C123.567,745.024 123.483,745.024 123.303,745L123.303,745.588C123.423,745.612 123.615,745.624 123.771,745.624Z" style="fill:white;fill-rule:nonzero;"/>
            <path d="M129.507,744.316C131.559,744.316 132.639,742.852 132.639,740.092C132.639,737.332 131.559,735.868 129.507,735.868C127.455,735.868 126.375,737.332 126.375,740.092C126.375,742.852 127.455,744.316 129.507,744.316ZM129.507,743.116C128.283,743.116 127.683,742.12 127.683,740.092C127.683,738.064 128.283,737.068 129.507,737.068C130.731,737.068 131.331,738.064 131.331,740.092C131.331,742.12 130.731,743.116 129.507,743.116Z" style="fill:white;fill-rule:nonzero;"/>
            <path d="M136.851,744.316C138.903,744.316 139.983,742.852 139.983,740.092C139.983,737.332 138.903,735.868 136.851,735.868C134.799,735.868 133.719,737.332 133.719,740.092C133.719,742.852 134.799,744.316 136.851,744.316ZM136.851,743.116C135.627,743.116 135.027,742.12 135.027,740.092C135.027,738.064 135.627,737.068 136.851,737.068C138.075,737.068 138.675,738.064 138.675,740.092C138.675,742.12 138.075,743.116 136.851,743.116Z" style="fill:white;fill-rule:nonzero;"/>
            <path d="M144.195,744.316C146.247,744.316 147.327,742.852 147.327,740.092C147.327,737.332 146.247,735.868 144.195,735.868C142.143,735.868 141.063,737.332 141.063,740.092C141.063,742.852 142.143,744.316 144.195,744.316ZM144.195,743.116C142.971,743.116 142.371,742.12 142.371,740.092C142.371,738.064 142.971,737.068 144.195,737.068C145.419,737.068 146.019,738.064 146.019,740.092C146.019,742.12 145.419,743.116 144.195,743.116Z" style="fill:white;fill-rule:nonzero;"/>
        </g>
        <g transform="matrix(1,0,0,1,-47.2588,-659.172)">
            <path d="M82.335,738.808C82.335,737.164 81.231,735.868 79.383,735.868C77.535,735.868 76.431,737.164 76.431,738.808C76.431,740.452 77.535,741.748 79.383,741.748L79.407,741.748L77.511,744.172L79.155,744.172L81.723,740.704C82.119,740.188 82.335,739.528 82.335,738.808ZM77.739,738.808C77.739,737.788 78.327,737.032 79.383,737.032C80.439,737.032 81.027,737.788 81.027,738.808C81.027,739.828 80.439,740.584 79.383,740.584C78.327,740.584 77.739,739.828 77.739,738.808Z" style="fill:white;fill-rule:nonzero;"/>
            <path d="M86.487,744.316C88.539,744.316 89.619,742.852 89.619,740.092C89.619,737.332 88.539,735.868 86.487,735.868C84.435,735.868 83.355,737.332 83.355,740.092C83.355,742.852 84.435,744.316 86.487,744.316ZM86.487,743.116C85.263,743.116 84.663,742.12 84.663,740.092C84.663,738.064 85.263,737.068 86.487,737.068C87.711,737.068 88.311,738.064 88.311,740.092C88.311,742.12 87.711,743.116 86.487,743.116Z" style="fill:white;fill-rule:nonzero;"/>
            <path d="M93.831,744.316C95.883,744.316 96.963,742.852 96.963,740.092C96.963,737.332 95.883,735.868 93.831,735.868C91.779,735.868 90.699,737.332 90.699,740.092C90.699,742.852 91.779,744.316 93.831,744.316ZM93.831,743.116C92.607,743.116 92.007,742.12 92.007,740.092C92.007,738.064 92.607,737.068 93.831,737.068C95.055,737.068 95.655,738.064 95.655,740.092C95.655,742.12 95.055,743.116 93.831,743.116Z" style="fill:white;fill-rule:nonzero;"/>
            <path d="M98.451,745.624C99.591,745.624 100.155,744.82 100.155,743.764C100.155,742.708 99.483,742.312 98.979,742.312C98.403,742.312 97.983,742.708 97.983,743.296C97.983,743.884 98.403,744.244 98.907,744.244C99.099,744.244 99.315,744.196 99.447,744.04C99.423,744.304 99.339,744.556 99.183,744.736C99.039,744.916 98.811,745.024 98.511,745.024C98.247,745.024 98.163,745.024 97.983,745L97.983,745.588C98.103,745.612 98.295,745.624 98.451,745.624Z" style="fill:white;fill-rule:nonzero;"/>
            <path d="M104.187,744.316C106.239,744.316 107.319,742.852 107.319,740.092C107.319,737.332 106.239,735.868 104.187,735.868C102.135,735.868 101.055,737.332 101.055,740.092C101.055,742.852 102.135,744.316 104.187,744.316ZM104.187,743.116C102.963,743.116 102.363,742.12 102.363,740.092C102.363,738.064 102.963,737.068 104.187,737.068C105.411,737.068 106.011,738.064 106.011,740.092C106.011,742.12 105.411,743.116 104.187,743.116Z" style="fill:white;fill-rule:nonzero;"/>
            <path d="M111.531,744.316C113.583,744.316 114.663,742.852 114.663,740.092C114.663,737.332 113.583,735.868 111.531,735.868C109.479,735.868 108.399,737.332 108.399,740.092C108.399,742.852 109.479,744.316 111.531,744.316ZM111.531,743.116C110.307,743.116 109.707,742.12 109.707,740.092C109.707,738.064 110.307,737.068 111.531,737.068C112.755,737.068 113.355,738.064 113.355,740.092C113.355,742.12 112.755,743.116 111.531,743.116Z" style="fill:white;fill-rule:nonzero;"/>
            <path d="M118.875,744.316C120.927,744.316 122.007,742.852 122.007,740.092C122.007,737.332 120.927,735.868 118.875,735.868C116.823,735.868 115.743,737.332 115.743,740.092C115.743,742.852 116.823,744.316 118.875,744.316ZM118.875,743.116C117.651,743.116 117.051,742.12 117.051,740.092C117.051,738.064 117.651,737.068 118.875,737.068C120.099,737.068 120.699,738.064 120.699,740.092C120.699,742.12 120.099,743.116 118.875,743.116Z" style="fill:white;fill-rule:nonzero;"/>
            <path d="M123.495,745.624C124.635,745.624 125.199,744.82 125.199,743.764C125.199,742.708 124.527,742.312 124.023,742.312C123.447,742.312 123.027,742.708 123.027,743.296C123.027,743.884 123.447,744.244 123.951,744.244C124.143,744.244 124.359,744.196 124.491,744.04C124.467,744.304 124.383,744.556 124.227,744.736C124.083,744.916 123.855,745.024 123.555,745.024C123.291,745.024 123.207,745.024 123.027,745L123.027,745.588C123.147,745.612 123.339,745.624 123.495,745.624Z" style="fill:white;fill-rule:nonzero;"/>
            <path d="M129.231,744.316C131.283,744.316 132.363,742.852 132.363,740.092C132.363,737.332 131.283,735.868 129.231,735.868C127.179,735.868 126.099,737.332 126.099,740.092C126.099,742.852 127.179,744.316 129.231,744.316ZM129.231,743.116C128.007,743.116 127.407,742.12 127.407,740.092C127.407,738.064 128.007,737.068 129.231,737.068C130.455,737.068 131.055,738.064 131.055,740.092C131.055,742.12 130.455,743.116 129.231,743.116Z" style="fill:white;fill-rule:nonzero;"/>
            <path d="M136.575,744.316C138.627,744.316 139.707,742.852 139.707,740.092C139.707,737.332 138.627,735.868 136.575,735.868C134.523,735.868 133.443,737.332 133.443,740.092C133.443,742.852 134.523,744.316 136.575,744.316ZM136.575,743.116C135.351,743.116 134.751,742.12 134.751,740.092C134.751,738.064 135.351,737.068 136.575,737.068C137.799,737.068 138.399,738.064 138.399,740.092C138.399,742.12 137.799,743.116 136.575,743.116Z" style="fill:white;fill-rule:nonzero;"/>
            <path d="M143.919,744.316C145.971,744.316 147.051,742.852 147.051,740.092C147.051,737.332 145.971,735.868 143.919,735.868C141.867,735.868 140.787,737.332 140.787,740.092C140.787,742.852 141.867,744.316 143.919,744.316ZM143.919,743.116C142.695,743.116 142.095,742.12 142.095,740.092C142.095,738.064 142.695,737.068 143.919,737.068C145.143,737.068 145.743,738.064 145.743,740.092C145.743,742.12 145.143,743.116 143.919,743.116Z" style="fill:white;fill-rule:nonzero;"/>
        </g>
        <g transform="matrix(1,0,0,1,-55.5821,-698.767)">
            <path d="M79.527,744.172L79.527,736.012L78.279,736.012C78.279,737.02 77.955,737.404 76.431,737.404L76.431,738.556L78.159,738.556L78.159,744.172L79.527,744.172Z" style="fill:white;fill-rule:nonzero;"/>
            <path d="M81.975,745.624C83.115,745.624 83.679,744.82 83.679,743.764C83.679,742.708 83.007,742.312 82.503,742.312C81.927,742.312 81.507,742.708 81.507,743.296C81.507,743.884 81.927,744.244 82.431,744.244C82.623,744.244 82.839,744.196 82.971,744.04C82.947,744.304 82.863,744.556 82.707,744.736C82.563,744.916 82.335,745.024 82.035,745.024C81.771,745.024 81.687,745.024 81.507,745L81.507,745.588C81.627,745.612 81.819,745.624 81.975,745.624Z" style="fill:white;fill-rule:nonzero;"/>
            <path d="M87.711,744.316C89.763,744.316 90.843,742.852 90.843,740.092C90.843,737.332 89.763,735.868 87.711,735.868C85.659,735.868 84.579,737.332 84.579,740.092C84.579,742.852 85.659,744.316 87.711,744.316ZM87.711,743.116C86.487,743.116 85.887,742.12 85.887,740.092C85.887,738.064 86.487,737.068 87.711,737.068C88.935,737.068 89.535,738.064 89.535,740.092C89.535,742.12 88.935,743.116 87.711,743.116Z" style="fill:white;fill-rule:nonzero;"/>
            <path d="M95.055,744.316C97.107,744.316 98.187,742.852 98.187,740.092C98.187,737.332 97.107,735.868 95.055,735.868C93.003,735.868 91.923,737.332 91.923,740.092C91.923,742.852 93.003,744.316 95.055,744.316ZM95.055,743.116C93.831,743.116 93.231,742.12 93.231,740.092C93.231,738.064 93.831,737.068 95.055,737.068C96.279,737.068 96.879,738.064 96.879,740.092C96.879,742.12 96.279,743.116 95.055,743.116Z" style="fill:white;fill-rule:nonzero;"/>
            <path d="M102.399,744.316C104.451,744.316 105.531,742.852 105.531,740.092C105.531,737.332 104.451,735.868 102.399,735.868C100.347,735.868 99.267,737.332 99.267,740.092C99.267,742.852 100.347,744.316 102.399,744.316ZM102.399,743.116C101.175,743.116 100.575,742.12 100.575,740.092C100.575,738.064 101.175,737.068 102.399,737.068C103.623,737.068 104.223,738.064 104.223,740.092C104.223,742.12 103.623,743.116 102.399,743.116Z" style="fill:white;fill-rule:nonzero;"/>
            <path d="M107.019,745.624C108.159,745.624 108.723,744.82 108.723,743.764C108.723,742.708 108.051,742.312 107.547,742.312C106.971,742.312 106.551,742.708 106.551,743.296C106.551,743.884 106.971,744.244 107.475,744.244C107.667,744.244 107.883,744.196 108.015,744.04C107.991,744.304 107.907,744.556 107.751,744.736C107.607,744.916 107.379,745.024 107.079,745.024C106.815,745.024 106.731,745.024 106.551,745L106.551,745.588C106.671,745.612 106.863,745.624 107.019,745.624Z" style="fill:white;fill-rule:nonzero;"/>
            <path d="M112.755,744.316C114.807,744.316 115.887,742.852 115.887,740.092C115.887,737.332 114.807,735.868 112.755,735.868C110.703,735.868 109.623,737.332 109.623,740.092C109.623,742.852 110.703,744.316 112.755,744.316ZM112.755,743.116C111.531,743.116 110.931,742.12 110.931,740.092C110.931,738.064 111.531,737.068 112.755,737.068C113.979,737.068 114.579,738.064 114.579,740.092C114.579,742.12 113.979,743.116 112.755,743.116Z" style="fill:white;fill-rule:nonzero;"/>
            <path d="M120.099,744.316C122.151,744.316 123.231,742.852 123.231,740.092C123.231,737.332 122.151,735.868 120.099,735.868C118.047,735.868 116.967,737.332 116.967,740.092C116.967,742.852 118.047,744.316 120.099,744.316ZM120.099,743.116C118.875,743.116 118.275,742.12 118.275,740.092C118.275,738.064 118.875,737.068 120.099,737.068C121.323,737.068 121.923,738.064 121.923,740.092C121.923,742.12 121.323,743.116 120.099,743.116Z" style="fill:white;fill-rule:nonzero;"/>
            <path d="M127.443,744.316C129.495,744.316 130.575,742.852 130.575,740.092C130.575,737.332 129.495,735.868 127.443,735.868C125.391,735.868 124.311,737.332 124.311,740.092C124.311,742.852 125.391,744.316 127.443,744.316ZM127.443,743.116C126.219,743.116 125.619,742.12 125.619,740.092C125.619,738.064 126.219,737.068 127.443,737.068C128.667,737.068 129.267,738.064 129.267,740.092C129.267,742.12 128.667,743.116 127.443,743.116Z" style="fill:white;fill-rule:nonzero;"/>
            <path d="M132.063,745.624C133.203,745.624 133.767,744.82 133.767,743.764C133.767,742.708 133.095,742.312 132.591,742.312C132.015,742.312 131.595,742.708 131.595,743.296C131.595,743.884 132.015,744.244 132.519,744.244C132.711,744.244 132.927,744.196 133.059,744.04C133.035,744.304 132.951,744.556 132.795,744.736C132.651,744.916 132.423,745.024 132.123,745.024C131.859,745.024 131.775,745.024 131.595,745L131.595,745.588C131.715,745.612 131.907,745.624 132.063,745.624Z" style="fill:white;fill-rule:nonzero;"/>
            <path d="M137.799,744.316C139.851,744.316 140.931,742.852 140.931,740.092C140.931,737.332 139.851,735.868 137.799,735.868C135.747,735.868 134.667,737.332 134.667,740.092C134.667,742.852 135.747,744.316 137.799,744.316ZM137.799,743.116C136.575,743.116 135.975,742.12 135.975,740.092C135.975,738.064 136.575,737.068 137.799,737.068C139.023,737.068 139.623,738.064 139.623,740.092C139.623,742.12 139.023,743.116 137.799,743.116Z" style="fill:white;fill-rule:nonzero;"/>
            <path d="M145.143,744.316C147.195,744.316 148.275,742.852 148.275,740.092C148.275,737.332 147.195,735.868 145.143,735.868C143.091,735.868 142.011,737.332 142.011,740.092C142.011,742.852 143.091,744.316 145.143,744.316ZM145.143,743.116C143.919,743.116 143.319,742.12 143.319,740.092C143.319,738.064 143.919,737.068 145.143,737.068C146.367,737.068 146.967,738.064 146.967,740.092C146.967,742.12 146.367,743.116 145.143,743.116Z" style="fill:white;fill-rule:nonzero;"/>
            <path d="M152.487,744.316C154.539,744.316 155.619,742.852 155.619,740.092C155.619,737.332 154.539,735.868 152.487,735.868C150.435,735.868 149.355,737.332 149.355,740.092C149.355,742.852 150.435,744.316 152.487,744.316ZM152.487,743.116C151.263,743.116 150.663,742.12 150.663,740.092C150.663,738.064 151.263,737.068 152.487,737.068C153.711,737.068 154.311,738.064 154.311,740.092C154.311,742.12 153.711,743.116 152.487,743.116Z" style="fill:white;fill-rule:nonzero;"/>
        </g>
        <g transform="matrix(6.12323e-17,-1,1,6.12323e-17,-735.82,269.542)">
            <path d="M79.887,744.172L79.887,737.068L82.335,737.068L82.335,735.772L76.071,735.772L76.071,737.068L78.507,737.068L78.507,744.172L79.887,744.172Z" style="fill:white;fill-rule:nonzero;"/>
            <path d="M84.927,744.316C86.775,744.316 87.879,743.02 87.879,741.376C87.879,739.732 86.775,738.436 84.927,738.436C83.079,738.436 81.975,739.732 81.975,741.376C81.975,743.02 83.079,744.316 84.927,744.316ZM84.927,743.152C83.871,743.152 83.283,742.396 83.283,741.376C83.283,740.356 83.871,739.6 84.927,739.6C85.983,739.6 86.571,740.356 86.571,741.376C86.571,742.396 85.983,743.152 84.927,743.152Z" style="fill:white;fill-rule:nonzero;"/>
            <path d="M92.559,738.58L90.435,741.04L90.435,735.772L89.139,735.772L89.139,744.172L90.435,744.172L90.435,741.616L92.499,744.172L94.215,744.172L91.791,741.256L94.215,738.58L92.559,738.58Z" style="fill:white;fill-rule:nonzero;"/>
            <path d="M99.819,741.088C99.819,739.516 98.739,738.436 97.143,738.436C95.439,738.436 94.335,739.588 94.335,741.376C94.335,743.188 95.427,744.316 97.191,744.316C98.535,744.316 99.591,743.584 99.759,742.54L98.439,742.54C98.223,742.972 97.839,743.176 97.191,743.176C96.243,743.176 95.667,742.696 95.631,741.808L99.783,741.808C99.807,741.496 99.819,741.316 99.819,741.088ZM95.631,740.812C95.643,740.02 96.195,739.468 97.119,739.468C98.019,739.468 98.523,739.948 98.535,740.812L95.631,740.812Z" style="fill:white;fill-rule:nonzero;"/>
            <path d="M102.387,744.172L102.387,741.1C102.387,740.116 102.867,739.552 103.719,739.552C104.631,739.552 104.943,740.068 104.943,741.256L104.943,744.172L106.251,744.172L106.251,740.656C106.251,739.192 105.555,738.436 104.211,738.436C103.383,738.436 102.735,738.76 102.387,739.36L102.387,738.58L101.079,738.58L101.079,744.172L102.387,744.172Z" style="fill:white;fill-rule:nonzero;"/>
            <path d="M109.827,744.316C111.183,744.316 112.035,743.668 112.035,742.576C112.035,741.784 111.531,741.208 110.739,740.98L109.623,740.656C109.107,740.512 108.927,740.308 108.927,740.008C108.927,739.672 109.263,739.432 109.731,739.432C110.343,739.432 110.703,739.708 110.703,740.176L111.987,740.176C111.987,739.096 111.147,738.436 109.779,738.436C108.531,738.436 107.631,739.132 107.631,740.08C107.631,740.872 108.075,741.436 108.855,741.652L109.971,741.952C110.571,742.108 110.703,742.3 110.703,742.612C110.703,743.008 110.391,743.272 109.899,743.272C109.227,743.272 108.759,742.936 108.759,742.456L107.451,742.456C107.451,743.524 108.459,744.316 109.827,744.316Z" style="fill:white;fill-rule:nonzero;"/>
            <path d="M117.003,737.776C117.579,737.776 117.975,737.344 117.975,736.804C117.975,736.264 117.579,735.832 117.003,735.832C116.427,735.832 116.031,736.264 116.031,736.804C116.031,737.344 116.427,737.776 117.003,737.776ZM117.651,744.172L117.651,738.58L116.355,738.58L116.355,744.172L117.651,744.172Z" style="fill:white;fill-rule:nonzero;"/>
            <path d="M120.639,744.172L120.639,741.1C120.639,740.116 121.119,739.552 121.971,739.552C122.883,739.552 123.195,740.068 123.195,741.256L123.195,744.172L124.503,744.172L124.503,740.656C124.503,739.192 123.807,738.436 122.463,738.436C121.635,738.436 120.987,738.76 120.639,739.36L120.639,738.58L119.331,738.58L119.331,744.172L120.639,744.172Z" style="fill:white;fill-rule:nonzero;"/>
            <path d="M131.487,744.316C133.047,744.316 134.019,743.488 134.139,742.24L132.831,742.24C132.687,742.828 132.279,743.152 131.487,743.152C130.563,743.152 130.011,742.516 130.011,741.376C130.011,740.236 130.563,739.6 131.487,739.6C132.279,739.6 132.687,739.936 132.831,740.572L134.139,740.572C134.019,739.288 133.047,738.436 131.487,738.436C129.747,738.436 128.703,739.636 128.703,741.376C128.703,743.116 129.747,744.316 131.487,744.316Z" style="fill:white;fill-rule:nonzero;"/>
            <path d="M136.047,737.776C136.623,737.776 137.019,737.344 137.019,736.804C137.019,736.264 136.623,735.832 136.047,735.832C135.471,735.832 135.075,736.264 135.075,736.804C135.075,737.344 135.471,737.776 136.047,737.776ZM136.695,744.172L136.695,738.58L135.399,738.58L135.399,744.172L136.695,744.172Z" style="fill:white;fill-rule:nonzero;"/>
            <path d="M139.683,744.172L139.683,741.7C139.683,740.428 140.247,739.732 141.171,739.732C141.375,739.732 141.483,739.732 141.687,739.756L141.687,738.556C141.543,738.52 141.375,738.508 141.171,738.508C140.559,738.508 139.887,738.868 139.683,739.66L139.683,738.58L138.375,738.58L138.375,744.172L139.683,744.172Z" style="fill:white;fill-rule:nonzero;"/>
            <path d="M144.951,744.316C146.511,744.316 147.483,743.488 147.603,742.24L146.295,742.24C146.151,742.828 145.743,743.152 144.951,743.152C144.027,743.152 143.475,742.516 143.475,741.376C143.475,740.236 144.027,739.6 144.951,739.6C145.743,739.6 146.151,739.936 146.295,740.572L147.603,740.572C147.483,739.288 146.511,738.436 144.951,738.436C143.211,738.436 142.167,739.636 142.167,741.376C142.167,743.116 143.211,744.316 144.951,744.316Z" style="fill:white;fill-rule:nonzero;"/>
            <path d="M150.879,744.316C151.683,744.316 152.271,743.992 152.607,743.392L152.607,744.172L153.915,744.172L153.915,738.58L152.607,738.58L152.607,741.736C152.607,742.54 152.247,743.2 151.251,743.2C150.399,743.2 150.111,742.672 150.111,741.772L150.111,738.58L148.803,738.58L148.803,742.096C148.803,743.596 149.655,744.316 150.879,744.316Z" style="fill:white;fill-rule:nonzero;"/>
            <rect x="155.595" y="735.772" width="1.308" height="8.4" style="fill:white;fill-rule:nonzero;"/>
            <path d="M160.911,744.316C161.595,744.316 162.363,743.98 162.711,743.416L162.711,744.172L164.007,744.172L164.007,738.58L162.711,738.58L162.711,739.336C162.363,738.772 161.691,738.436 160.947,738.436C159.207,738.436 158.163,739.732 158.163,741.376C158.163,743.02 159.111,744.316 160.911,744.316ZM161.103,743.152C160.083,743.152 159.471,742.396 159.471,741.376C159.471,740.356 160.083,739.6 161.103,739.6C162.219,739.6 162.759,740.416 162.759,741.376C162.759,742.336 162.219,743.152 161.103,743.152Z" style="fill:white;fill-rule:nonzero;"/>
            <path d="M168.219,743.068C167.703,743.068 167.403,742.948 167.403,741.976L167.403,739.672L168.687,739.672L168.687,738.58L167.403,738.58L167.403,736.888L166.095,736.888L166.095,738.58L165.147,738.58L165.147,739.672L166.095,739.672L166.095,742.276C166.095,744.16 167.271,744.244 167.907,744.244C168.291,744.244 168.675,744.208 168.879,744.172L168.879,743.02C168.747,743.044 168.423,743.068 168.219,743.068Z" style="fill:white;fill-rule:nonzero;"/>
            <path d="M170.727,737.776C171.303,737.776 171.699,737.344 171.699,736.804C171.699,736.264 171.303,735.832 170.727,735.832C170.151,735.832 169.755,736.264 169.755,736.804C169.755,737.344 170.151,737.776 170.727,737.776ZM171.375,744.172L171.375,738.58L170.079,738.58L170.079,744.172L171.375,744.172Z" style="fill:white;fill-rule:nonzero;"/>
            <path d="M175.587,744.316C177.435,744.316 178.539,743.02 178.539,741.376C178.539,739.732 177.435,738.436 175.587,738.436C173.739,738.436 172.635,739.732 172.635,741.376C172.635,743.02 173.739,744.316 175.587,744.316ZM175.587,743.152C174.531,743.152 173.943,742.396 173.943,741.376C173.943,740.356 174.531,739.6 175.587,739.6C176.643,739.6 177.231,740.356 177.231,741.376C177.231,742.396 176.643,743.152 175.587,743.152Z" style="fill:white;fill-rule:nonzero;"/>
            <path d="M181.107,744.172L181.107,741.1C181.107,740.116 181.587,739.552 182.439,739.552C183.351,739.552 183.663,740.068 183.663,741.256L183.663,744.172L184.971,744.172L184.971,740.656C184.971,739.192 184.275,738.436 182.931,738.436C182.103,738.436 181.455,738.76 181.107,739.36L181.107,738.58L179.799,738.58L179.799,744.172L181.107,744.172Z" style="fill:white;fill-rule:nonzero;"/>
        </g>
        <g transform="matrix(1,0,0,1,-0.218312,-79)">
            <path d="M120,80L620,80M120,120L620,120M120,160L620,160M120,200L620,200M120,240L620,240M120,280L620,280M120,320L620,320M160,80L160,360M200,80L200,360M240,80L240,360M280,80L280,360M320,80L320,360M360,80L360,360M400,80L400,360M440,80L440,360M480,80L480,360M520,80L520,360M560,80L560,360M600,80L600,360" style="fill:none;stroke:white;stroke-opacity:0.04;stroke-width:1px;"/>
        </g>
        <g transform="matrix(2,0,0,2,-213.218,-627)">
            <circle cx="167" cy="433" r="1" style="fill:rgb(102,0,255);stroke:white;stroke-opacity:0.04;stroke-width:4px;"/>
        </g>
        <g transform="matrix(2,0,0,2,-174.218,-705)">
            <circle cx="167" cy="433" r="1" style="fill:rgb(102,0,255);stroke:white;stroke-opacity:0.04;stroke-width:4px;"/>
        </g>
        <g transform="matrix(2,0,0,2,-134.218,-784)">
            <circle cx="167" cy="433" r="1" style="fill:rgb(102,0,255);stroke:white;stroke-opacity:0.04;stroke-width:4px;"/>
        </g>
        <g transform="matrix(2,0,0,2,-94.2183,-789)">
            <circle cx="167" cy="433" r="1" style="fill:rgb(102,0,255);stroke:white;stroke-opacity:0.04;stroke-width:4px;"/>
        </g>
        <g transform="matrix(2,0,0,2,-54.2183,-793)">
            <circle cx="167" cy="433" r="1" style="fill:rgb(102,0,255);stroke:white;stroke-opacity:0.04;stroke-width:4px;"/>
        </g>
        <g transform="matrix(2,0,0,2,-14.2183,-797)">
            <circle cx="167" cy="433" r="1" style="fill:rgb(102,0,255);stroke:white;stroke-opacity:0.04;stroke-width:4px;"/>
        </g>
        <g transform="matrix(2,0,0,2,25.7817,-801)">
            <circle cx="167" cy="433" r="1" style="fill:rgb(102,0,255);stroke:white;stroke-opacity:0.04;stroke-width:4px;"/>
        </g>
        <g transform="matrix(2,0,0,2,65.7817,-805)">
            <circle cx="167" cy="433" r="1" style="fill:rgb(102,0,255);stroke:white;stroke-opacity:0.04;stroke-width:4px;"/>
        </g>
        <g transform="matrix(2,0,0,2,105.782,-809)">
            <circle cx="167" cy="433" r="1" style="fill:rgb(102,0,255);stroke:white;stroke-opacity:0.04;stroke-width:4px;"/>
        </g>
        <g transform="matrix(2,0,0,2,145.782,-813)">
            <circle cx="167" cy="433" r="1" style="fill:rgb(102,0,255);stroke:white;stroke-opacity:0.04;stroke-width:4px;"/>
        </g>
        <g transform="matrix(2,0,0,2,185.782,-817)">
            <circle cx="167" cy="433" r="1" style="fill:rgb(102,0,255);stroke:white;stroke-opacity:0.04;stroke-width:4px;"/>
        </g>
        <g transform="matrix(2,0,0,2,225.782,-821)">
            <circle cx="167" cy="433" r="1" style="fill:rgb(102,0,255);stroke:white;stroke-opacity:0.04;stroke-width:4px;"/>
        </g>
        <g transform="matrix(2,0,0,2,265.782,-825)">
            <circle cx="167" cy="433" r="1" style="fill:rgb(102,0,255);stroke:white;stroke-opacity:0.04;stroke-width:4px;"/>
        </g>
        <g transform="matrix(1,0,0,1,-0.218312,-199)">
            <path d="M160,359L200,281" style="fill:none;stroke:rgb(102,0,255);stroke-opacity:0.13;stroke-width:2px;"/>
        </g>
        <g transform="matrix(0.999619,0.00148471,0.00148471,0.99421,-60.5594,-119.67)">
            <path d="M180.876,359.483L220.008,280.97" style="fill:none;stroke:rgb(102,0,255);stroke-opacity:0.13;stroke-width:2px;"/>
        </g>
        <g transform="matrix(1,0,0,1,-40.2183,-199)">
            <path d="M240,281L280,276" style="fill:none;stroke:rgb(102,0,255);stroke-opacity:0.13;stroke-width:2px;"/>
        </g>
        <g transform="matrix(1,0,0,1,-40.2183,-199)">
            <path d="M280,276L320,272" style="fill:none;stroke:rgb(102,0,255);stroke-opacity:0.13;stroke-width:2px;"/>
        </g>
        <g transform="matrix(1,0,0,1,-40.2183,-199)">
            <path d="M320,272L360,268" style="fill:none;stroke:rgb(102,0,255);stroke-opacity:0.13;stroke-width:2px;"/>
        </g>
        <g transform="matrix(1,0,0,1,-40.2183,-199)">
            <path d="M360,268L400,264" style="fill:none;stroke:rgb(102,0,255);stroke-opacity:0.13;stroke-width:2px;"/>
        </g>
        <g transform="matrix(1,0,0,1,-40.2183,-199)">
            <path d="M400,264L440,260" style="fill:none;stroke:rgb(102,0,255);stroke-opacity:0.13;stroke-width:2px;"/>
        </g>
        <g transform="matrix(1,0,0,1,-40.2183,-199)">
            <path d="M440,260L480,256" style="fill:none;stroke:rgb(102,0,255);stroke-opacity:0.13;stroke-width:2px;"/>
        </g>
        <g transform="matrix(1,0,0,1,-40.2183,-199)">
            <path d="M480,256L520,252" style="fill:none;stroke:rgb(102,0,255);stroke-opacity:0.13;stroke-width:2px;"/>
        </g>
        <g transform="matrix(1,0,0,1,-40.2183,-199)">
            <path d="M520,252L560,248" style="fill:none;stroke:rgb(102,0,255);stroke-opacity:0.13;stroke-width:2px;"/>
        </g>
        <g transform="matrix(1,0,0,1,-40.2183,-199)">
            <path d="M560,248L600,244" style="fill:none;stroke:rgb(102,0,255);stroke-opacity:0.13;stroke-width:2px;"/>
        </g>
        <g transform="matrix(1,0,0,1,-40.2183,-199)">
            <path d="M600,244L640,240" style="fill:none;stroke:rgb(102,0,255);stroke-opacity:0.13;stroke-width:2px;"/>
        </g>
    </g>
    <g transform="matrix(1,0,0,1,46.997,-427.172)">
        <path d="M79.683,744.316C81.735,744.316 82.815,742.852 82.815,740.092C82.815,737.332 81.735,735.868 79.683,735.868C77.631,735.868 76.551,737.332 76.551,740.092C76.551,742.852 77.631,744.316 79.683,744.316ZM79.683,743.116C78.459,743.116 77.859,742.12 77.859,740.092C77.859,738.064 78.459,737.068 79.683,737.068C80.907,737.068 81.507,738.064 81.507,740.092C81.507,742.12 80.907,743.116 79.683,743.116Z" style="fill:white;fill-rule:nonzero;"/>
    </g>
    <g transform="matrix(1,0,0,1,446.997,-427.172)">
        <path d="M79.455,744.316C81.111,744.316 82.275,743.296 82.275,741.832C82.275,740.812 81.651,740.044 80.691,739.876C81.591,739.588 82.071,738.976 82.071,738.112C82.071,736.768 81.003,735.868 79.407,735.868C77.715,735.868 76.635,736.864 76.635,738.424L77.991,738.424C77.991,737.536 78.531,737.008 79.407,737.008C80.151,737.008 80.667,737.464 80.667,738.112C80.667,738.916 80.235,739.312 79.359,739.312L78.771,739.312L78.771,740.5L79.347,740.5C80.367,740.5 80.883,740.956 80.883,741.844C80.883,742.624 80.307,743.152 79.455,743.152C78.423,743.152 77.835,742.54 77.835,741.448L76.431,741.448C76.431,743.26 77.547,744.316 79.455,744.316Z" style="fill:white;fill-rule:nonzero;"/>
        <path d="M86.547,744.316C88.599,744.316 89.679,742.852 89.679,740.092C89.679,737.332 88.599,735.868 86.547,735.868C84.495,735.868 83.415,737.332 83.415,740.092C83.415,742.852 84.495,744.316 86.547,744.316ZM86.547,743.116C85.323,743.116 84.723,742.12 84.723,740.092C84.723,738.064 85.323,737.068 86.547,737.068C87.771,737.068 88.371,738.064 88.371,740.092C88.371,742.12 87.771,743.116 86.547,743.116Z" style="fill:white;fill-rule:nonzero;"/>
    </g>
    <g transform="matrix(1,0,0,1,486.997,-427.172)">
        <path d="M79.455,744.316C81.111,744.316 82.275,743.296 82.275,741.832C82.275,740.812 81.651,740.044 80.691,739.876C81.591,739.588 82.071,738.976 82.071,738.112C82.071,736.768 81.003,735.868 79.407,735.868C77.715,735.868 76.635,736.864 76.635,738.424L77.991,738.424C77.991,737.536 78.531,737.008 79.407,737.008C80.151,737.008 80.667,737.464 80.667,738.112C80.667,738.916 80.235,739.312 79.359,739.312L78.771,739.312L78.771,740.5L79.347,740.5C80.367,740.5 80.883,740.956 80.883,741.844C80.883,742.624 80.307,743.152 79.455,743.152C78.423,743.152 77.835,742.54 77.835,741.448L76.431,741.448C76.431,743.26 77.547,744.316 79.455,744.316Z" style="fill:white;fill-rule:nonzero;"/>
        <path d="M86.319,744.316C87.975,744.316 89.139,743.296 89.139,741.832C89.139,740.812 88.515,740.044 87.555,739.876C88.455,739.588 88.935,738.976 88.935,738.112C88.935,736.768 87.867,735.868 86.271,735.868C84.579,735.868 83.499,736.864 83.499,738.424L84.855,738.424C84.855,737.536 85.395,737.008 86.271,737.008C87.015,737.008 87.531,737.464 87.531,738.112C87.531,738.916 87.099,739.312 86.223,739.312L85.635,739.312L85.635,740.5L86.211,740.5C87.231,740.5 87.747,740.956 87.747,741.844C87.747,742.624 87.171,743.152 86.319,743.152C85.287,743.152 84.699,742.54 84.699,741.448L83.295,741.448C83.295,743.26 84.411,744.316 86.319,744.316Z" style="fill:white;fill-rule:nonzero;"/>
    </g>
    <g transform="matrix(1,0,0,1,525.997,-427.172)">
        <path d="M79.455,744.316C81.111,744.316 82.275,743.296 82.275,741.832C82.275,740.812 81.651,740.044 80.691,739.876C81.591,739.588 82.071,738.976 82.071,738.112C82.071,736.768 81.003,735.868 79.407,735.868C77.715,735.868 76.635,736.864 76.635,738.424L77.991,738.424C77.991,737.536 78.531,737.008 79.407,737.008C80.151,737.008 80.667,737.464 80.667,738.112C80.667,738.916 80.235,739.312 79.359,739.312L78.771,739.312L78.771,740.5L79.347,740.5C80.367,740.5 80.883,740.956 80.883,741.844C80.883,742.624 80.307,743.152 79.455,743.152C78.423,743.152 77.835,742.54 77.835,741.448L76.431,741.448C76.431,743.26 77.547,744.316 79.455,744.316Z" style="fill:white;fill-rule:nonzero;"/>
        <path d="M86.307,738.436L86.283,738.436L88.179,736.012L86.535,736.012L83.967,739.48C83.571,739.996 83.355,740.656 83.355,741.376C83.355,743.02 84.459,744.316 86.307,744.316C88.155,744.316 89.259,743.02 89.259,741.376C89.259,739.732 88.155,738.436 86.307,738.436ZM86.307,743.152C85.251,743.152 84.663,742.396 84.663,741.376C84.663,740.356 85.251,739.6 86.307,739.6C87.363,739.6 87.951,740.356 87.951,741.376C87.951,742.396 87.363,743.152 86.307,743.152Z" style="fill:white;fill-rule:nonzero;"/>
    </g>
    <g transform="matrix(1,0,0,1,406.997,-427.172)">
        <path d="M82.287,744.172L82.287,742.936L78.243,742.936C78.387,742.192 78.639,741.892 79.539,741.376L80.715,740.704C81.723,740.128 82.311,739.204 82.311,738.208C82.311,736.768 81.291,735.868 79.647,735.868C77.907,735.868 76.791,737.008 76.791,738.784L78.219,738.784C78.219,737.68 78.735,737.068 79.647,737.068C80.355,737.068 80.847,737.56 80.847,738.28C80.847,738.94 80.499,739.456 79.827,739.828L78.627,740.488C77.211,741.268 76.611,742.372 76.611,744.172L82.287,744.172Z" style="fill:white;fill-rule:nonzero;"/>
        <path d="M85.071,744.172L89.187,736.012L83.403,736.012L83.403,737.272L87.123,737.272L83.547,744.172L85.071,744.172Z" style="fill:white;fill-rule:nonzero;"/>
    </g>
    <g transform="matrix(1,0,0,1,366.997,-427.172)">
        <path d="M82.287,744.172L82.287,742.936L78.243,742.936C78.387,742.192 78.639,741.892 79.539,741.376L80.715,740.704C81.723,740.128 82.311,739.204 82.311,738.208C82.311,736.768 81.291,735.868 79.647,735.868C77.907,735.868 76.791,737.008 76.791,738.784L78.219,738.784C78.219,737.68 78.735,737.068 79.647,737.068C80.355,737.068 80.847,737.56 80.847,738.28C80.847,738.94 80.499,739.456 79.827,739.828L78.627,740.488C77.211,741.268 76.611,742.372 76.611,744.172L82.287,744.172Z" style="fill:white;fill-rule:nonzero;"/>
        <path d="M88.287,740.416L88.287,738.136L86.919,738.136L86.919,740.416L85.059,740.416L85.059,736.012L83.691,736.012L83.691,741.652L86.919,741.652L86.919,744.172L88.287,744.172L88.287,741.652L89.451,741.652L89.451,740.416L88.287,740.416Z" style="fill:white;fill-rule:nonzero;"/>
    </g>
    <g transform="matrix(1,0,0,1,326.997,-427.172)">
        <path d="M82.287,744.172L82.287,742.936L78.243,742.936C78.387,742.192 78.639,741.892 79.539,741.376L80.715,740.704C81.723,740.128 82.311,739.204 82.311,738.208C82.311,736.768 81.291,735.868 79.647,735.868C77.907,735.868 76.791,737.008 76.791,738.784L78.219,738.784C78.219,737.68 78.735,737.068 79.647,737.068C80.355,737.068 80.847,737.56 80.847,738.28C80.847,738.94 80.499,739.456 79.827,739.828L78.627,740.488C77.211,741.268 76.611,742.372 76.611,744.172L82.287,744.172Z" style="fill:white;fill-rule:nonzero;"/>
        <path d="M86.487,744.172L86.487,736.012L85.239,736.012C85.239,737.02 84.915,737.404 83.391,737.404L83.391,738.556L85.119,738.556L85.119,744.172L86.487,744.172Z" style="fill:white;fill-rule:nonzero;"/>
    </g>
    <g transform="matrix(1,0,0,1,286.997,-427.172)">
        <path d="M79.527,744.172L79.527,736.012L78.279,736.012C78.279,737.02 77.955,737.404 76.431,737.404L76.431,738.556L78.159,738.556L78.159,744.172L79.527,744.172Z" style="fill:white;fill-rule:nonzero;"/>
        <path d="M84.327,744.316C86.115,744.316 87.267,743.368 87.267,741.892C87.267,740.932 86.787,740.224 85.971,739.936C86.679,739.648 87.147,738.904 87.147,738.052C87.147,736.756 85.995,735.868 84.327,735.868C82.659,735.868 81.507,736.756 81.507,738.052C81.507,738.904 81.951,739.648 82.659,739.936C81.843,740.224 81.387,740.932 81.387,741.892C81.387,743.368 82.539,744.316 84.327,744.316ZM84.327,739.384C83.511,739.384 82.923,738.904 82.923,738.184C82.923,737.428 83.463,736.972 84.327,736.972C85.191,736.972 85.731,737.428 85.731,738.184C85.731,738.904 85.191,739.384 84.327,739.384ZM84.327,743.152C83.403,743.152 82.791,742.624 82.791,741.808C82.791,740.992 83.451,740.464 84.327,740.464C85.251,740.464 85.863,740.992 85.863,741.808C85.863,742.624 85.251,743.152 84.327,743.152Z" style="fill:white;fill-rule:nonzero;"/>
    </g>
    <g transform="matrix(1,0,0,1,246.997,-427.172)">
        <path d="M79.527,744.172L79.527,736.012L78.279,736.012C78.279,737.02 77.955,737.404 76.431,737.404L76.431,738.556L78.159,738.556L78.159,744.172L79.527,744.172Z" style="fill:white;fill-rule:nonzero;"/>
        <path d="M84.315,744.316C86.127,744.316 87.255,742.996 87.255,741.364C87.255,739.732 86.259,738.628 84.687,738.628C84.015,738.628 83.355,738.82 82.899,739.348L82.899,737.236L86.775,737.236L86.775,736.012L81.651,736.012L81.651,740.692L82.911,740.692C83.211,740.008 83.715,739.744 84.495,739.744C85.383,739.744 85.935,740.404 85.935,741.412C85.935,742.42 85.347,743.092 84.339,743.092C83.583,743.092 82.947,742.708 82.899,741.988L81.507,741.988C81.603,743.356 82.791,744.316 84.315,744.316Z" style="fill:white;fill-rule:nonzero;"/>
    </g>
    <g transform="matrix(1,0,0,1,239.159,-398.19)">
        <path d="M78.231,744.172L78.231,738.556L80.391,744.172L81.435,744.172L83.595,738.616L83.595,744.172L84.915,744.172L84.915,735.772L83.595,735.772L80.919,742.204L78.231,735.772L76.911,735.772L76.911,744.172L78.231,744.172Z" style="fill:white;fill-rule:nonzero;"/>
        <path d="M89.187,744.316C91.035,744.316 92.139,743.02 92.139,741.376C92.139,739.732 91.035,738.436 89.187,738.436C87.339,738.436 86.235,739.732 86.235,741.376C86.235,743.02 87.339,744.316 89.187,744.316ZM89.187,743.152C88.131,743.152 87.543,742.396 87.543,741.376C87.543,740.356 88.131,739.6 89.187,739.6C90.243,739.6 90.831,740.356 90.831,741.376C90.831,742.396 90.243,743.152 89.187,743.152Z" style="fill:white;fill-rule:nonzero;"/>
        <path d="M94.707,744.172L94.707,741.1C94.707,740.116 95.187,739.552 96.039,739.552C96.951,739.552 97.263,740.068 97.263,741.256L97.263,744.172L98.571,744.172L98.571,740.656C98.571,739.192 97.875,738.436 96.531,738.436C95.703,738.436 95.055,738.76 94.707,739.36L94.707,738.58L93.399,738.58L93.399,744.172L94.707,744.172Z" style="fill:white;fill-rule:nonzero;"/>
        <path d="M102.555,743.068C102.039,743.068 101.739,742.948 101.739,741.976L101.739,739.672L103.023,739.672L103.023,738.58L101.739,738.58L101.739,736.888L100.431,736.888L100.431,738.58L99.483,738.58L99.483,739.672L100.431,739.672L100.431,742.276C100.431,744.16 101.607,744.244 102.243,744.244C102.627,744.244 103.011,744.208 103.215,744.172L103.215,743.02C103.083,743.044 102.759,743.068 102.555,743.068Z" style="fill:white;fill-rule:nonzero;"/>
        <path d="M107.547,738.436C106.719,738.436 106.071,738.76 105.723,739.36L105.723,735.772L104.415,735.772L104.415,744.172L105.723,744.172L105.723,741.1C105.723,740.116 106.203,739.552 107.055,739.552C107.967,739.552 108.279,740.068 108.279,741.256L108.279,744.172L109.587,744.172L109.587,740.656C109.587,739.192 108.891,738.436 107.547,738.436Z" style="fill:white;fill-rule:nonzero;"/>
        <path d="M113.163,744.316C114.519,744.316 115.371,743.668 115.371,742.576C115.371,741.784 114.867,741.208 114.075,740.98L112.959,740.656C112.443,740.512 112.263,740.308 112.263,740.008C112.263,739.672 112.599,739.432 113.067,739.432C113.679,739.432 114.039,739.708 114.039,740.176L115.323,740.176C115.323,739.096 114.483,738.436 113.115,738.436C111.867,738.436 110.967,739.132 110.967,740.08C110.967,740.872 111.411,741.436 112.191,741.652L113.307,741.952C113.907,742.108 114.039,742.3 114.039,742.612C114.039,743.008 113.727,743.272 113.235,743.272C112.563,743.272 112.095,742.936 112.095,742.456L110.787,742.456C110.787,743.524 111.795,744.316 113.163,744.316Z" style="fill:white;fill-rule:nonzero;"/>
        <path d="M121.647,744.316C123.003,744.316 123.855,743.668 123.855,742.576C123.855,741.784 123.351,741.208 122.559,740.98L121.443,740.656C120.927,740.512 120.747,740.308 120.747,740.008C120.747,739.672 121.083,739.432 121.551,739.432C122.163,739.432 122.523,739.708 122.523,740.176L123.807,740.176C123.807,739.096 122.967,738.436 121.599,738.436C120.351,738.436 119.451,739.132 119.451,740.08C119.451,740.872 119.895,741.436 120.675,741.652L121.791,741.952C122.391,742.108 122.523,742.3 122.523,742.612C122.523,743.008 122.211,743.272 121.719,743.272C121.047,743.272 120.579,742.936 120.579,742.456L119.271,742.456C119.271,743.524 120.279,744.316 121.647,744.316Z" style="fill:white;fill-rule:nonzero;"/>
        <path d="M125.823,737.776C126.399,737.776 126.795,737.344 126.795,736.804C126.795,736.264 126.399,735.832 125.823,735.832C125.247,735.832 124.851,736.264 124.851,736.804C124.851,737.344 125.247,737.776 125.823,737.776ZM126.471,744.172L126.471,738.58L125.175,738.58L125.175,744.172L126.471,744.172Z" style="fill:white;fill-rule:nonzero;"/>
        <path d="M129.459,744.172L129.459,741.1C129.459,740.116 129.939,739.552 130.791,739.552C131.703,739.552 132.015,740.068 132.015,741.256L132.015,744.172L133.323,744.172L133.323,740.656C133.323,739.192 132.627,738.436 131.283,738.436C130.455,738.436 129.807,738.76 129.459,739.36L129.459,738.58L128.151,738.58L128.151,744.172L129.459,744.172Z" style="fill:white;fill-rule:nonzero;"/>
        <path d="M137.307,744.316C138.867,744.316 139.839,743.488 139.959,742.24L138.651,742.24C138.507,742.828 138.099,743.152 137.307,743.152C136.383,743.152 135.831,742.516 135.831,741.376C135.831,740.236 136.383,739.6 137.307,739.6C138.099,739.6 138.507,739.936 138.651,740.572L139.959,740.572C139.839,739.288 138.867,738.436 137.307,738.436C135.567,738.436 134.523,739.636 134.523,741.376C134.523,743.116 135.567,744.316 137.307,744.316Z" style="fill:white;fill-rule:nonzero;"/>
        <path d="M146.403,741.088C146.403,739.516 145.323,738.436 143.727,738.436C142.023,738.436 140.919,739.588 140.919,741.376C140.919,743.188 142.011,744.316 143.775,744.316C145.119,744.316 146.175,743.584 146.343,742.54L145.023,742.54C144.807,742.972 144.423,743.176 143.775,743.176C142.827,743.176 142.251,742.696 142.215,741.808L146.367,741.808C146.391,741.496 146.403,741.316 146.403,741.088ZM142.215,740.812C142.227,740.02 142.779,739.468 143.703,739.468C144.603,739.468 145.107,739.948 145.119,740.812L142.215,740.812Z" style="fill:white;fill-rule:nonzero;"/>
        <rect x="150.663" y="735.772" width="1.308" height="8.4" style="fill:white;fill-rule:nonzero;"/>
        <path d="M155.979,744.316C156.663,744.316 157.431,743.98 157.779,743.416L157.779,744.172L159.075,744.172L159.075,738.58L157.779,738.58L157.779,739.336C157.431,738.772 156.759,738.436 156.015,738.436C154.275,738.436 153.231,739.732 153.231,741.376C153.231,743.02 154.179,744.316 155.979,744.316ZM156.171,743.152C155.151,743.152 154.539,742.396 154.539,741.376C154.539,740.356 155.151,739.6 156.171,739.6C157.287,739.6 157.827,740.416 157.827,741.376C157.827,742.336 157.287,743.152 156.171,743.152Z" style="fill:white;fill-rule:nonzero;"/>
        <path d="M162.771,744.316C163.575,744.316 164.163,743.992 164.499,743.392L164.499,744.172L165.807,744.172L165.807,738.58L164.499,738.58L164.499,741.736C164.499,742.54 164.139,743.2 163.143,743.2C162.291,743.2 162.003,742.672 162.003,741.772L162.003,738.58L160.695,738.58L160.695,742.096C160.695,743.596 161.547,744.316 162.771,744.316Z" style="fill:white;fill-rule:nonzero;"/>
        <path d="M168.795,744.172L168.795,741.1C168.795,740.116 169.275,739.552 170.127,739.552C171.039,739.552 171.351,740.068 171.351,741.256L171.351,744.172L172.659,744.172L172.659,740.656C172.659,739.192 171.963,738.436 170.619,738.436C169.791,738.436 169.143,738.76 168.795,739.36L168.795,738.58L167.487,738.58L167.487,744.172L168.795,744.172Z" style="fill:white;fill-rule:nonzero;"/>
        <path d="M176.643,744.316C178.203,744.316 179.175,743.488 179.295,742.24L177.987,742.24C177.843,742.828 177.435,743.152 176.643,743.152C175.719,743.152 175.167,742.516 175.167,741.376C175.167,740.236 175.719,739.6 176.643,739.6C177.435,739.6 177.843,739.936 177.987,740.572L179.295,740.572C179.175,739.288 178.203,738.436 176.643,738.436C174.903,738.436 173.859,739.636 173.859,741.376C173.859,743.116 174.903,744.316 176.643,744.316Z" style="fill:white;fill-rule:nonzero;"/>
        <path d="M183.687,738.436C182.859,738.436 182.211,738.76 181.863,739.36L181.863,735.772L180.555,735.772L180.555,744.172L181.863,744.172L181.863,741.1C181.863,740.116 182.343,739.552 183.195,739.552C184.107,739.552 184.419,740.068 184.419,741.256L184.419,744.172L185.727,744.172L185.727,740.656C185.727,739.192 185.031,738.436 183.687,738.436Z" style="fill:white;fill-rule:nonzero;"/>
    </g>
    <g transform="matrix(1,0,0,1,206.997,-427.172)">
        <path d="M79.527,744.172L79.527,736.012L78.279,736.012C78.279,737.02 77.955,737.404 76.431,737.404L76.431,738.556L78.159,738.556L78.159,744.172L79.527,744.172Z" style="fill:white;fill-rule:nonzero;"/>
        <path d="M87.063,744.172L87.063,742.936L83.019,742.936C83.163,742.192 83.415,741.892 84.315,741.376L85.491,740.704C86.499,740.128 87.087,739.204 87.087,738.208C87.087,736.768 86.067,735.868 84.423,735.868C82.683,735.868 81.567,737.008 81.567,738.784L82.995,738.784C82.995,737.68 83.511,737.068 84.423,737.068C85.131,737.068 85.623,737.56 85.623,738.28C85.623,738.94 85.275,739.456 84.603,739.828L83.403,740.488C81.987,741.268 81.387,742.372 81.387,744.172L87.063,744.172Z" style="fill:white;fill-rule:nonzero;"/>
    </g>
    <g transform="matrix(1,0,0,1,166.997,-427.172)">
        <path d="M82.335,738.808C82.335,737.164 81.231,735.868 79.383,735.868C77.535,735.868 76.431,737.164 76.431,738.808C76.431,740.452 77.535,741.748 79.383,741.748L79.407,741.748L77.511,744.172L79.155,744.172L81.723,740.704C82.119,740.188 82.335,739.528 82.335,738.808ZM77.739,738.808C77.739,737.788 78.327,737.032 79.383,737.032C80.439,737.032 81.027,737.788 81.027,738.808C81.027,739.828 80.439,740.584 79.383,740.584C78.327,740.584 77.739,739.828 77.739,738.808Z" style="fill:white;fill-rule:nonzero;"/>
    </g>
    <g transform="matrix(1,0,0,1,86.997,-427.172)">
        <path d="M79.455,744.316C81.111,744.316 82.275,743.296 82.275,741.832C82.275,740.812 81.651,740.044 80.691,739.876C81.591,739.588 82.071,738.976 82.071,738.112C82.071,736.768 81.003,735.868 79.407,735.868C77.715,735.868 76.635,736.864 76.635,738.424L77.991,738.424C77.991,737.536 78.531,737.008 79.407,737.008C80.151,737.008 80.667,737.464 80.667,738.112C80.667,738.916 80.235,739.312 79.359,739.312L78.771,739.312L78.771,740.5L79.347,740.5C80.367,740.5 80.883,740.956 80.883,741.844C80.883,742.624 80.307,743.152 79.455,743.152C78.423,743.152 77.835,742.54 77.835,741.448L76.431,741.448C76.431,743.26 77.547,744.316 79.455,744.316Z" style="fill:white;fill-rule:nonzero;"/>
    </g>
    <g transform="matrix(1,0,0,1,126.997,-427.172)">
        <path d="M79.443,738.436L79.419,738.436L81.315,736.012L79.671,736.012L77.103,739.48C76.707,739.996 76.491,740.656 76.491,741.376C76.491,743.02 77.595,744.316 79.443,744.316C81.291,744.316 82.395,743.02 82.395,741.376C82.395,739.732 81.291,738.436 79.443,738.436ZM79.443,743.152C78.387,743.152 77.799,742.396 77.799,741.376C77.799,740.356 78.387,739.6 79.443,739.6C80.499,739.6 81.087,740.356 81.087,741.376C81.087,742.396 80.499,743.152 79.443,743.152Z" style="fill:white;fill-rule:nonzero;"/>
    </g>
</svg>
