<?xml version="1.0" encoding="UTF-8" standalone="no"?>
<!DOCTYPE svg PUBLIC "-//W3C//DTD SVG 1.1//EN" "http://www.w3.org/Graphics/SVG/1.1/DTD/svg11.dtd">
<svg width="100%" height="100%" viewBox="0 0 1400 680" version="1.1" xmlns="http://www.w3.org/2000/svg" xmlns:xlink="http://www.w3.org/1999/xlink" xml:space="preserve" xmlns:serif="http://www.serif.com/" style="fill-rule:evenodd;clip-rule:evenodd;stroke-linecap:round;stroke-linejoin:round;stroke-miterlimit:1.5;">
    <g id="Artboard1" transform="matrix(1.02564,0,0,0.765766,54.359,22.2072)">
        <g transform="matrix(1,0,0,1,0.000604501,2.9e-05)">
            <rect x="-53" y="-29" width="1365" height="888" style="fill:rgb(6,0,15);"/>
        </g>
        <g id="row-foundation">
            <g transform="matrix(0.975001,0,0,1.30588,-53.0001,576.063)">
                <path d="M79.993,136.663L1319.98,136.663" style="fill:none;stroke:white;stroke-width:4px;"/>
            </g>
            <g transform="matrix(0.975001,0,0,1.30588,986.984,485.489)">
                <g transform="matrix(18,0,0,18,215.924,172.965)">
                </g>
                <text x="92.966px" y="172.965px" style="font-family:'GTWalsheimTrial-Rg', 'GT Walsheim Trial';font-size:18px;fill:white;">Ev<tspan x="111.056px " y="172.965px ">e</tspan>ry 3 mon<tspan x="191.246px " y="172.965px ">t</tspan>hs</text>
            </g>
            <g transform="matrix(0.975001,0,0,1.30588,791.312,485.489)">
                <g transform="matrix(18,0,0,18,177.44,172.965)">
                </g>
                <text x="92.966px" y="172.965px" style="font-family:'GTWalsheimTrial-Rg', 'GT Walsheim Trial';font-size:18px;fill:white;">36 mon<tspan x="152.762px " y="172.965px ">t</tspan>hs</text>
            </g>
            <g transform="matrix(0.975001,0,0,1.30588,604.509,485.489)">
                <g transform="matrix(18,0,0,18,194.954,172.965)">
                </g>
                <text x="92.966px" y="172.965px" style="font-family:'GTWalsheimTrial-Rg', 'GT Walsheim Trial';font-size:18px;fill:white;">12<tspan x="109.76px 120.218px 124.952px " y="172.965px 172.965px 172.965px ">0,0</tspan>00<tspan x="157.334px 162.068px " y="172.965px 172.965px ">,0</tspan>00</text>
            </g>
            <g transform="matrix(0.975001,0,0,1.30588,412.179,485.489)">
                <g transform="matrix(18,0,0,18,188.294,172.965)">
                </g>
                <text x="92.966px" y="172.965px" style="font-family:'GTWalsheimTrial-Rg', 'GT Walsheim Trial';font-size:18px;fill:white;">30<tspan x="113.558px 118.292px " y="172.965px 172.965px ">,0</tspan>00<tspan x="150.674px 155.408px " y="172.965px 172.965px ">,0</tspan>00</text>
            </g>
            <g transform="matrix(0.975001,0,0,1.30588,214.588,485.489)">
                <g transform="matrix(18,0,0,18,195.35,172.965)">
                </g>
                <text x="92.966px" y="172.965px" style="font-family:'GTWalsheimTrial-Rg', 'GT Walsheim Trial';font-size:18px;fill:white;">150<tspan x="120.614px 125.348px " y="172.965px 172.965px ">,0</tspan>00<tspan x="157.73px 162.464px " y="172.965px 172.965px ">,0</tspan>00</text>
            </g>
            <g transform="matrix(0.975001,0,0,1.30588,-26.7812,485.489)">
                <text x="92.966px" y="172.965px" style="font-family:'GTWalsheimTrial-Rg', 'GT Walsheim Trial';font-size:18px;fill:white;">ARGUS FOUND<tspan x="214.628px 224.042px " y="172.965px 172.965px ">AT</tspan>ION</text>
                <g transform="matrix(18,0,0,18,203.756,190.965)">
                </g>
                <text x="92.966px" y="190.965px" style="font-family:'GTWalsheimTrial-Rg', 'GT Walsheim Trial';font-size:18px;fill:white;">ENDO<tspan x="140.792px " y="190.965px ">W</tspan>MENT</text>
            </g>
        </g>
        <g id="row-beta-testers">
            <g transform="matrix(0.975001,0,0,1.30588,-52.9931,471.592)">
                <path d="M79.993,136.663L1319.98,136.663" style="fill:none;stroke:white;stroke-width:2px;stroke-dasharray:0,4,0,0,0,0;"/>
            </g>
            <g transform="matrix(0.975001,0,0,1.30588,986.984,380.108)">
                <g transform="matrix(18,0,0,18,215.924,172.965)">
                </g>
                <text x="92.966px" y="172.965px" style="font-family:'GTWalsheimTrial-Rg', 'GT Walsheim Trial';font-size:18px;fill:white;">Ev<tspan x="111.056px " y="172.965px ">e</tspan>ry 3 mon<tspan x="191.246px " y="172.965px ">t</tspan>hs</text>
            </g>
            <g transform="matrix(0.975001,0,0,1.30588,793.391,380.108)">
                <g transform="matrix(18,0,0,18,174.146,172.965)">
                </g>
                <text x="92.966px" y="172.965px" style="font-family:'GTWalsheimTrial-Rg', 'GT Walsheim Trial';font-size:18px;fill:white;">12 mon<tspan x="149.468px " y="172.965px ">t</tspan>hs</text>
            </g>
            <g transform="matrix(0.975001,0,0,1.30588,612.541,380.108)">
                <g transform="matrix(18,0,0,18,178.052,172.965)">
                </g>
                <text x="92.966px" y="172.965px" style="font-family:'GTWalsheimTrial-Rg', 'GT Walsheim Trial';font-size:18px;fill:white;">8,<tspan x="108.05px " y="172.965px ">0</tspan>00<tspan x="140.432px 145.166px " y="172.965px 172.965px ">,0</tspan>00</text>
            </g>
            <g transform="matrix(0.975001,0,0,1.30588,417.773,380.108)">
                <g transform="matrix(18,0,0,18,177.944,172.965)">
                </g>
                <text x="92.966px" y="172.965px" style="font-family:'GTWalsheimTrial-Rg', 'GT Walsheim Trial';font-size:18px;fill:white;">2,<tspan x="107.942px " y="172.965px ">0</tspan>00<tspan x="140.324px 145.058px " y="172.965px 172.965px ">,0</tspan>00</text>
            </g>
            <g transform="matrix(0.975001,0,0,1.30588,219.017,380.108)">
                <g transform="matrix(18,0,0,18,184.982,172.965)">
                </g>
                <text x="92.966px" y="172.965px" style="font-family:'GTWalsheimTrial-Rg', 'GT Walsheim Trial';font-size:18px;fill:white;">10<tspan x="110.246px 114.98px " y="172.965px 172.965px ">,0</tspan>00<tspan x="147.362px 152.096px " y="172.965px 172.965px ">,0</tspan>00</text>
            </g>
            <g transform="matrix(0.975001,0,0,1.30588,-28.913,380.108)">
                <g transform="matrix(18,0,0,18,283.55,172.965)">
                </g>
                <text x="92.966px" y="172.965px" style="font-family:'GTWalsheimTrial-Rg', 'GT Walsheim Trial';font-size:18px;fill:white;">BE<tspan x="113.126px 121.298px " y="172.965px 172.965px ">TA</tspan> TE<tspan x="155.282px 164.858px " y="172.965px 172.965px ">ST</tspan>ER<tspan x="194.774px " y="172.965px ">S</tspan> AIRDROP</text>
            </g>
        </g>
        <g id="row-public-presale">
            <g transform="matrix(0.975001,0,0,1.30588,-53.0001,367.122)">
                <path d="M79.993,136.663L1319.98,136.663" style="fill:none;stroke:white;stroke-width:2px;stroke-dasharray:0,4,0,0,0,0;"/>
            </g>
            <g transform="matrix(0.975001,0,0,1.30588,986.984,275.638)">
                <g transform="matrix(18,0,0,18,215.924,172.965)">
                </g>
                <text x="92.966px" y="172.965px" style="font-family:'GTWalsheimTrial-Rg', 'GT Walsheim Trial';font-size:18px;fill:white;">Ev<tspan x="111.056px " y="172.965px ">e</tspan>ry 3 mon<tspan x="191.246px " y="172.965px ">t</tspan>hs</text>
            </g>
            <g transform="matrix(0.975001,0,0,1.30588,793.391,275.638)">
                <g transform="matrix(18,0,0,18,174.146,172.965)">
                </g>
                <text x="92.966px" y="172.965px" style="font-family:'GTWalsheimTrial-Rg', 'GT Walsheim Trial';font-size:18px;fill:white;">12 mon<tspan x="149.468px " y="172.965px ">t</tspan>hs</text>
            </g>
            <g transform="matrix(0.975001,0,0,1.30588,602.43,275.638)">
                <g transform="matrix(18,0,0,18,198.518,172.965)">
                </g>
                <text x="92.966px" y="172.965px" style="font-family:'GTWalsheimTrial-Rg', 'GT Walsheim Trial';font-size:18px;fill:white;">360<tspan x="123.782px 128.516px " y="172.965px 172.965px ">,0</tspan>00<tspan x="160.898px 165.632px " y="172.965px 172.965px ">,0</tspan>00</text>
            </g>
            <g transform="matrix(0.975001,0,0,1.30588,411.764,275.638)">
                <g transform="matrix(18,0,0,18,188.15,172.965)">
                </g>
                <text x="92.966px" y="172.965px" style="font-family:'GTWalsheimTrial-Rg', 'GT Walsheim Trial';font-size:18px;fill:white;">90<tspan x="113.414px 118.148px " y="172.965px 172.965px ">,0</tspan>00<tspan x="150.53px 155.264px " y="172.965px 172.965px ">,0</tspan>00</text>
            </g>
            <g transform="matrix(0.975001,0,0,1.30588,212.144,275.638)">
                <g transform="matrix(18,0,0,18,198.86,172.965)">
                </g>
                <text x="92.966px" y="172.965px" style="font-family:'GTWalsheimTrial-Rg', 'GT Walsheim Trial';font-size:18px;fill:white;">450<tspan x="124.124px 128.858px " y="172.965px 172.965px ">,0</tspan>00<tspan x="161.24px 165.974px " y="172.965px 172.965px ">,0</tspan>00</text>
            </g>
            <g transform="matrix(0.975001,0,0,1.30588,-27.7806,275.638)">
                <g transform="matrix(18,0,0,18,227.678,172.965)">
                </g>
                <text x="92.966px" y="172.965px" style="font-family:'GTWalsheimTrial-Rg', 'GT Walsheim Trial';font-size:18px;fill:white;">PUBLIC PRE<tspan x="188.276px 198.068px " y="172.965px 172.965px ">SA</tspan>LE</text>
            </g>
        </g>
        <g id="row-genesis-presale">
            <g transform="matrix(0.975001,0,0,1.30588,-52.9931,262.651)">
                <path d="M79.993,136.663L1319.98,136.663" style="fill:none;stroke:white;stroke-width:2px;stroke-dasharray:0,4,0,0,0,0;"/>
            </g>
            <g transform="matrix(0.975001,0,0,1.30588,1030.55,171.17)">
                <text x="92.966px" y="172.965px" style="font-family:'GTWalsheimTrial-Rg', 'GT Walsheim Trial';font-size:18px;fill:white;">N</text>
                <text x="104.828px" y="172.965px" style="font-family:'ArialMT', 'Arial';font-size:18px;fill:white;">/</text>
                <g transform="matrix(18,0,0,18,120.449,172.965)">
                </g>
                <text x="109.829px" y="172.965px" style="font-family:'GTWalsheimTrial-Rg', 'GT Walsheim Trial';font-size:18px;fill:white;">A</text>
            </g>
            <g transform="matrix(0.975001,0,0,1.30588,810.437,171.17)">
                <g transform="matrix(18,0,0,18,134.348,172.965)">
                </g>
                <text x="92.966px" y="172.965px" style="font-family:'GTWalsheimTrial-Rg', 'GT Walsheim Trial';font-size:18px;fill:white;">None</text>
            </g>
            <g transform="matrix(0.975001,0,0,1.30588,650.102,171.17)">
                <g transform="matrix(18,0,0,18,103.928,172.965)">
                </g>
                <text x="92.966px" y="172.965px" style="font-family:'GTWalsheimTrial-Rg', 'GT Walsheim Trial';font-size:18px;fill:white;">0</text>
            </g>
            <g transform="matrix(0.975001,0,0,1.30588,412.431,171.17)">
                <g transform="matrix(18,0,0,18,188.528,172.965)">
                </g>
                <text x="92.966px" y="172.965px" style="font-family:'GTWalsheimTrial-Rg', 'GT Walsheim Trial';font-size:18px;fill:white;">50<tspan x="113.792px 118.526px " y="172.965px 172.965px ">,0</tspan>00<tspan x="150.908px 155.642px " y="172.965px 172.965px ">,0</tspan>00</text>
            </g>
            <g transform="matrix(0.975001,0,0,1.30588,217.431,171.17)">
                <g transform="matrix(18,0,0,18,188.528,172.965)">
                </g>
                <text x="92.966px" y="172.965px" style="font-family:'GTWalsheimTrial-Rg', 'GT Walsheim Trial';font-size:18px;fill:white;">50<tspan x="113.792px 118.526px " y="172.965px 172.965px ">,0</tspan>00<tspan x="150.908px 155.642px " y="172.965px 172.965px ">,0</tspan>00</text>
            </g>
            <g transform="matrix(0.975001,0,0,1.30588,-26.4309,171.17)">
                <text x="92.966px" y="172.965px" style="font-family:'GTWalsheimTrial-Rg', 'GT Walsheim Trial';font-size:18px;fill:white;">GENE<tspan x="138.974px " y="172.965px ">S</tspan>IS FOUNDING</text>
                <g transform="matrix(18,0,0,18,163.148,190.965)">
                </g>
                <text x="92.966px" y="190.965px" style="font-family:'GTWalsheimTrial-Rg', 'GT Walsheim Trial';font-size:18px;fill:white;">PRE<tspan x="123.746px 133.538px " y="190.965px 190.965px ">SA</tspan>LE</text>
            </g>
        </g>
        <g id="row-liquidity">
            <g transform="matrix(0.975001,0,0,1.30588,-52.9931,158.181)">
                <path d="M79.993,136.663L1319.98,136.663" style="fill:none;stroke:white;stroke-width:2px;stroke-dasharray:0,4,0,0,0,0;"/>
            </g>
            <g transform="matrix(0.975001,0,0,1.30588,1030.55,66.2413)">
                <text x="92.966px" y="172.965px" style="font-family:'GTWalsheimTrial-Rg', 'GT Walsheim Trial';font-size:18px;fill:white;">N</text>
                <text x="104.828px" y="172.965px" style="font-family:'ArialMT', 'Arial';font-size:18px;fill:white;">/</text>
                <g transform="matrix(18,0,0,18,120.449,172.965)">
                </g>
                <text x="109.829px" y="172.965px" style="font-family:'GTWalsheimTrial-Rg', 'GT Walsheim Trial';font-size:18px;fill:white;">A</text>
            </g>
            <g transform="matrix(0.975001,0,0,1.30588,810.437,66.2413)">
                <g transform="matrix(18,0,0,18,134.348,172.965)">
                </g>
                <text x="92.966px" y="172.965px" style="font-family:'GTWalsheimTrial-Rg', 'GT Walsheim Trial';font-size:18px;fill:white;">None</text>
            </g>
            <g transform="matrix(0.975001,0,0,1.30588,650.102,66.2413)">
                <g transform="matrix(18,0,0,18,103.928,172.965)">
                </g>
                <text x="92.966px" y="172.965px" style="font-family:'GTWalsheimTrial-Rg', 'GT Walsheim Trial';font-size:18px;fill:white;">0</text>
            </g>
            <g transform="matrix(0.975001,0,0,1.30588,407.201,66.4173)">
                <g transform="matrix(18,0,0,18,198.626,172.965)">
                </g>
                <text x="92.966px" y="172.965px" style="font-family:'GTWalsheimTrial-Rg', 'GT Walsheim Trial';font-size:18px;fill:white;">340<tspan x="123.89px 128.624px " y="172.965px 172.965px ">,0</tspan>00<tspan x="161.006px 165.74px " y="172.965px 172.965px ">,0</tspan>00</text>
            </g>
            <g transform="matrix(0.975001,0,0,1.30588,212.201,66.2413)">
                <g transform="matrix(18,0,0,18,198.626,172.965)">
                </g>
                <text x="92.966px" y="172.965px" style="font-family:'GTWalsheimTrial-Rg', 'GT Walsheim Trial';font-size:18px;fill:white;">340<tspan x="123.89px 128.624px " y="172.965px 172.965px ">,0</tspan>00<tspan x="161.006px 165.74px " y="172.965px 172.965px ">,0</tspan>00</text>
            </g>
            <g transform="matrix(0.975001,0,0,1.30588,-27.7806,66.2413)">
                <g transform="matrix(18,0,0,18,173.966,172.965)">
                </g>
                <text x="92.966px" y="172.965px" style="font-family:'GTWalsheimTrial-Rg', 'GT Walsheim Trial';font-size:18px;fill:white;">LIQUIDIT<tspan x="164.048px " y="172.965px ">Y</tspan></text>
            </g>
        </g>
        <g id="row-headers">
            <g transform="matrix(0.975001,0,0,1.30588,-53.0001,53.7102)">
                <path d="M79.993,136.663L1319.98,136.663" style="fill:none;stroke:white;stroke-width:4px;"/>
            </g>
            <g transform="matrix(0.975001,0,0,1.30588,987.795,-39.8744)">
                <text x="92.966px" y="172.965px" style="font-family:'GTWalsheimTrial-Md', 'GT Walsheim Trial';font-weight:500;font-size:18px;fill:white;">DIS<tspan x="119.822px " y="172.965px ">T</tspan>RIBUTION</text>
                <g transform="matrix(18,0,0,18,193.874,190.965)">
                </g>
                <text x="92.966px" y="190.965px" style="font-family:'GTWalsheimTrial-Md', 'GT Walsheim Trial';font-weight:500;font-size:18px;fill:white;">FREQUENC<tspan x="183.776px " y="190.965px ">Y</tspan></text>
            </g>
            <g transform="matrix(0.975001,0,0,1.30588,610.001,-29)">
                <path d="M440,140L440,200" style="fill:none;stroke:white;stroke-width:4px;"/>
            </g>
            <g transform="matrix(0.975001,0,0,1.30588,816.658,-39.8744)">
                <text x="92.966px" y="172.965px" style="font-family:'GTWalsheimTrial-Md', 'GT Walsheim Trial';font-weight:500;font-size:18px;fill:white;">L<tspan x="101.354px " y="172.965px ">O</tspan>CKUP</text>
                <g transform="matrix(18,0,0,18,155.768,190.965)">
                </g>
                <text x="92.966px" y="190.965px" style="font-family:'GTWalsheimTrial-Md', 'GT Walsheim Trial';font-weight:500;font-size:18px;fill:white;">PERIOD</text>
            </g>
            <g transform="matrix(0.975001,0,0,1.30588,415,-29)">
                <path d="M440,140L440,200" style="fill:none;stroke:white;stroke-width:4px;"/>
            </g>
            <g transform="matrix(0.975001,0,0,1.30588,608.824,-39.8678)">
                <g transform="matrix(18,0,0,18,187.484,172.965)">
                </g>
                <text x="92.966px" y="172.965px" style="font-family:'GTWalsheimTrial-Md', 'GT Walsheim Trial';font-weight:500;font-size:18px;fill:white;">REMAINING</text>
            </g>
            <g transform="matrix(0.975001,0,0,1.30588,220,-29)">
                <path d="M440,140L440,200" style="fill:none;stroke:white;stroke-width:4px;"/>
            </g>
            <g transform="matrix(0.975001,0,0,1.30588,400.923,-40.1355)">
                <text x="92.966px" y="172.965px" style="font-family:'GTWalsheimTrial-Md', 'GT Walsheim Trial';font-weight:500;font-size:18px;fill:white;">IMMEDIA<tspan x="163.814px " y="172.965px ">T</tspan>E</text>
                <text x="92.966px" y="191.554px" style="font-family:'GTWalsheimTrial-Md', 'GT Walsheim Trial';font-weight:500;font-size:18px;fill:white;">RELEA<tspan x="143.276px " y="191.554px ">S</tspan>E</text>
                <text x="167.504px" y="191.554px" style="font-family:'ArialMT', 'Arial';font-size:18px;fill:white;">(</text>
                <text x="173.499px" y="191.554px" style="font-family:'GTWalsheimTrial-Md', 'GT Walsheim Trial';font-weight:500;font-size:18px;fill:white;">2<tspan x="183.579px " y="191.554px ">0</tspan></text>
                <text x="194.595px" y="191.554px" style="font-family:'ArialMT', 'Arial';font-size:18px;fill:white;">%)</text>
            </g>
            <g transform="matrix(0.975001,0,0,1.30588,25,-29)">
                <path d="M440,140L440,200" style="fill:none;stroke:white;stroke-width:4px;"/>
            </g>
            <g transform="matrix(0.975001,0,0,1.30588,239.048,-39.8744)">
                <g transform="matrix(18,0,0,18,144.302,172.965)">
                </g>
                <text x="92.966px" y="172.965px" style="font-family:'GTWalsheimTrial-Md', 'GT Walsheim Trial';font-weight:500;font-size:18px;fill:white;">T<tspan x="102.092px 115.934px 124.25px " y="172.965px 172.965px 172.965px ">OTA</tspan>L</text>
            </g>
            <g transform="matrix(0.975001,0,0,1.30588,-170,-31.9509)">
                <path d="M440,140L440,200" style="fill:none;stroke:white;stroke-width:4px;"/>
            </g>
            <g transform="matrix(0.975001,0,0,1.30588,31.3269,-40.1355)">
                <g transform="matrix(18,0,0,18,133.826,172.965)">
                </g>
                <text x="92.966px" y="172.965px" style="font-family:'GTWalsheimTrial-Md', 'GT Walsheim Trial';font-weight:500;font-size:18px;fill:white;">T<tspan x="103.442px " y="172.965px ">Y</tspan>PE</text>
            </g>
            <g transform="matrix(0.975001,0,0,1.30588,-53.0001,-29)">
                <path d="M79.993,136.663L1319.98,136.663" style="fill:none;stroke:white;stroke-width:4px;"/>
            </g>
        </g>
        <g transform="matrix(0.975001,0,0,1.30588,-56.9175,-44.7408)">
            <g transform="matrix(24,0,0,24,347.623,88.7527)">
            </g>
            <text x="84.559px" y="88.753px" style="font-family:'GTWalsheimTrial-Bl', 'GT Walsheim Trial';font-weight:800;font-size:24px;fill:white;">T<tspan x="97.087px 111.703px 125.479px " y="88.753px 88.753px 88.753px ">oke</tspan>n Lo<tspan x="189.271px 203.479px 218.311px " y="88.753px 88.753px 88.753px ">cku</tspan>p P<tspan x="271.375px " y="88.753px ">e</tspan>rio<tspan x="318.919px " y="88.753px ">d</tspan>s</text>
        </g>
    </g>
</svg>
