<svg width="400" height="401" viewBox="0 0 400 401" fill="none" xmlns="http://www.w3.org/2000/svg">
<g clip-path="url(#clip0_1180_1944)">
<mask id="mask0_1180_1944" style="mask-type:luminance" maskUnits="userSpaceOnUse" x="0" y="0" width="400" height="401">
<path d="M400 0.491211H0V400.491H400V0.491211Z" fill="white"/>
</mask>
<g mask="url(#mask0_1180_1944)">
<path fill-rule="evenodd" clip-rule="evenodd" d="M138.197 390.701L169.098 295.594C179.079 298.838 189.507 300.489 200.001 300.489C255.192 300.489 300.001 255.68 300.001 200.489C300.001 192.1 298.946 183.744 296.859 175.619L393.718 150.751C397.891 167 400.001 183.712 400.001 200.489C400.001 310.872 310.384 400.489 200.001 400.489C179.013 400.489 158.157 397.186 138.197 390.701Z" fill="#EBEBEB"/>
<path fill-rule="evenodd" clip-rule="evenodd" d="M393.719 150.751L296.86 175.619C288.899 144.615 266.577 119.294 236.813 107.511L273.626 14.5329C333.152 38.1001 377.798 88.741 393.719 150.751Z" fill="#EBEBEB"/>
<path fill-rule="evenodd" clip-rule="evenodd" d="M273.625 14.5329L236.813 107.511C227.056 103.648 216.752 101.344 206.28 100.685L212.559 0.883057C233.505 2.19978 254.113 6.80647 273.625 14.5329Z" fill="#5563AE"/>
<path fill-rule="evenodd" clip-rule="evenodd" d="M212.559 0.883423L206.281 100.686C204.189 100.554 202.096 100.489 200.001 100.489V0.488274C204.191 0.488274 208.378 0.619598 212.559 0.883423Z" fill="#EBEBEB"/>
<path fill-rule="evenodd" clip-rule="evenodd" d="M200.001 0.488342V100.489C144.773 100.489 100 145.261 100 200.489C100 243.812 127.896 282.207 169.099 295.594L138.198 390.701C55.7923 363.925 0 287.135 0 200.489C0 90.0315 89.5432 0.488342 200.001 0.488342Z" fill="#9FE4C9"/>
<path fill-rule="evenodd" clip-rule="evenodd" d="M237.367 107.613C236.539 107.613 235.867 106.941 235.867 106.113C235.867 105.286 236.539 104.613 237.367 107.613ZM236.071 105.357C236.034 105.422 236 105.49 235.972 105.561C236.005 105.479 236.038 105.412 236.071 105.357ZM237.367 107.613C237.367 107.613 236.663 104.397 236.071 105.357C236.438 104.727 237.221 104.442 237.919 104.719C238.689 105.024 239.066 105.896 238.761 106.666C238.348 107.711 237.367 107.613 237.367 107.613ZM273.077 17.4207C273.674 17.4207 274.238 17.0607 274.471 16.4727C274.058 17.5177 273.077 17.4207 273.077 17.4207ZM271.613 16.2507C271.54 16.0037 271.546 15.7117 271.682 15.3687C271.61 15.5497 271.576 15.7367 271.577 15.9207C271.577 15.0927 272.249 14.4207 273.077 17.4207C272.887 17.4207 272.701 17.3847 272.524 17.3157C272.058 17.1307 271.721 16.7277 271.613 16.2507ZM240.993 101.029C240.689 101.798 239.816 102.176 239.047 101.871C238.277 101.566 237.899 100.694 238.204 99.9236C238.509 99.1536 239.381 98.7766 240.151 99.0816C240.921 99.3856 241.298 100.259 240.993 101.029ZM243.225 95.3916C242.92 96.1606 242.048 96.5386 241.278 96.2336C240.509 95.9286 240.131 95.0566 240.436 94.2866C240.741 93.5166 241.613 93.1396 242.383 93.4446C243.153 93.7486 243.53 94.6216 243.225 95.3916ZM245.457 89.7546C245.152 90.5236 244.28 90.9016 243.51 90.5966C242.74 90.2916 242.363 89.4196 242.668 88.6496C242.973 87.8796 243.845 87.5026 244.615 87.8076C245.384 88.1116 245.762 88.9846 245.457 89.7546ZM247.689 84.1166C247.384 84.8866 246.512 85.2646 245.742 84.9596C244.972 84.6546 244.595 83.7826 244.9 83.0126C245.204 82.2426 246.077 81.8656 246.847 82.1706C247.616 82.4746 247.994 83.3476 247.689 84.1166ZM249.921 78.4796C249.616 79.2496 248.744 79.6276 247.974 79.3226C247.204 79.0176 246.827 78.1456 247.132 77.3756C247.436 76.6056 248.309 76.2286 249.078 76.5336C249.848 76.8376 250.226 77.7106 249.921 78.4796ZM252.153 72.8426C251.848 73.6126 250.976 73.9906 250.206 73.6856C249.436 73.3806 249.059 72.5086 249.363 71.7386C249.668 70.9686 250.541 70.5916 251.31 70.8956C252.08 71.2006 252.457 72.0736 252.153 72.8426ZM254.385 67.2056C254.08 67.9756 253.207 68.3536 252.438 68.0486C251.668 67.7436 251.29 66.8716 251.595 66.1017C251.9 65.3316 252.772 64.9546 253.542 65.2596C254.312 65.5636 254.689 66.4366 254.385 67.2056ZM256.616 61.5686C256.312 62.3386 255.439 62.7166 254.669 62.4116C253.9 62.1066 253.522 61.2346 253.827 60.4646C254.132 59.6946 255.004 59.3176 255.774 59.6226C256.544 59.9266 256.921 60.7996 256.616 61.5686ZM258.848 55.9316C258.544 56.7016 257.671 57.0786 256.901 56.7746C256.132 56.4696 255.754 55.5977 256.059 54.8277C256.364 54.0577 257.236 53.6806 258.006 53.9846C258.776 54.2896 259.153 55.1616 258.848 55.9316ZM261.08 50.2947C260.775 51.0646 259.903 51.4426 259.133 51.1377C258.364 50.8327 257.986 49.9606 258.291 49.1906C258.596 48.4206 259.468 48.0436 260.238 48.3476C261.007 48.6526 261.385 49.5257 261.08 50.2947ZM263.312 44.6577C263.007 45.4277 262.135 45.8046 261.365 45.5006C260.595 45.1956 260.218 44.3237 260.523 43.5537C260.827 42.7837 261.7 42.4067 262.47 42.7107C263.239 43.0157 263.617 43.8877 263.312 44.6577ZM265.544 39.0207C265.239 39.7907 264.367 40.1677 263.597 39.8637C262.827 39.5587 262.45 38.6866 262.755 37.9166C263.059 37.1467 263.932 36.7697 264.701 37.0737C265.471 37.3787 265.849 38.2507 265.544 39.0207ZM267.776 33.3837C267.471 34.1537 266.599 34.5307 265.829 34.2267C265.059 33.9217 264.682 33.0487 264.986 32.2797C265.291 31.5097 266.164 31.1317 266.933 31.4367C267.703 31.7417 268.08 32.6137 267.776 33.3837ZM270.008 27.7467C269.703 28.5167 268.83 28.8937 268.061 28.5897C267.291 28.2847 266.913 27.4117 267.218 26.6427C267.523 25.8727 268.395 25.4947 269.165 25.7997C269.935 26.1047 270.312 26.9767 270.008 27.7467ZM272.239 22.1097C271.935 22.8797 271.062 23.2567 270.293 22.9527C269.523 22.6477 269.145 21.7747 269.45 21.0057C269.755 20.2357 270.627 19.8577 271.397 20.1627C272.167 20.4677 272.544 21.3397 272.239 22.1097Z" fill="white"/>
<path fill-rule="evenodd" clip-rule="evenodd" d="M204.817 99.0221C204.818 99.0212 204.818 99.0192 204.818 99.0182C204.823 98.9486 204.83 98.8888 204.841 98.8388C204.831 98.8898 204.824 98.9417 204.82 98.9947C204.825 98.9241 204.836 98.8564 204.851 98.7938C204.847 98.8075 204.844 98.8232 204.841 98.8388C204.979 98.105 205.647 97.5723 206.411 97.6211C207.237 97.6744 207.864 98.3885 207.812 99.2142C207.724 100.579 206.315 100.618 206.315 100.618C205.486 100.619 204.814 99.9463 204.815 99.1183C204.815 99.0859 204.815 99.0535 204.817 99.0221ZM211.389 3.41609C211.174 3.19471 211.016 2.88055 211.023 2.43417C211.023 2.4067 211.024 2.37923 211.025 2.35177C211.025 2.34687 211.026 2.34295 211.026 2.33804C211.076 1.55938 211.727 1.05109 212.523 3.93378C212.491 3.93452 212.459 3.9333 212.427 3.9311C212.012 3.90446 211.645 3.71039 211.389 3.41609ZM213.38 3.66447C213.742 3.41207 213.989 3.00378 214.02 2.53011C213.982 3.12343 213.694 3.46665 213.38 3.66447ZM212.523 3.93378C212.523 3.93378 212.974 3.92144 213.38 3.66447C213.136 3.83533 212.84 3.93418 212.523 3.93378ZM208.199 93.1712C208.146 93.9979 207.433 94.6255 206.607 94.5722C205.78 94.5189 205.152 93.8058 205.206 92.9791C205.259 92.1534 205.973 91.5259 206.799 91.5781C207.624 91.6314 208.252 92.3455 208.199 93.1712ZM208.587 87.1292C208.535 87.9549 207.821 88.5824 206.995 88.5302C206.168 88.4769 205.54 87.7629 205.594 86.9371C205.646 86.1104 206.361 85.4829 207.186 85.5361C208.013 85.5884 208.641 86.3025 208.587 87.1292ZM208.975 81.0862C208.923 81.9119 208.209 82.5404 207.383 82.4872C206.557 82.4339 205.928 81.7198 205.982 80.8941C206.034 80.0674 206.748 79.4399 207.574 79.4931C208.401 79.5464 209.029 80.2604 208.975 81.0862ZM209.363 75.0432C209.311 75.8699 208.597 76.4974 207.771 76.4442C206.945 76.3909 206.317 75.6768 206.37 74.8511C206.423 74.0254 207.136 73.3969 207.963 73.4501C208.789 73.5034 209.417 74.2174 209.363 75.0432ZM209.752 69.0002C209.698 69.8269 208.984 70.4544 208.158 70.4012C207.333 70.3479 206.705 69.6348 206.758 68.8081C206.811 67.9824 207.524 67.3548 208.351 67.4071C209.177 67.4604 209.805 68.1744 209.752 69.0002ZM210.14 62.9582C210.086 63.7839 209.373 64.4114 208.546 64.3582C207.72 64.3059 207.093 63.5918 207.145 62.7651C207.199 61.9394 207.913 61.3118 208.739 61.3651C209.565 61.4174 210.192 62.1314 210.14 62.9582ZM210.528 56.9152C210.474 57.7409 209.761 58.3694 208.934 58.3161C208.108 58.2629 207.481 57.5488 207.534 56.7231C207.587 55.8964 208.301 55.2688 209.127 55.3221C209.953 55.3754 210.58 56.0894 210.528 56.9152ZM210.916 50.8722C210.863 51.6989 210.149 52.3264 209.323 52.2731C208.496 52.2199 207.869 51.5068 207.922 50.6801C207.975 49.8543 208.689 49.2259 209.515 49.2791C210.341 49.3324 210.969 50.0464 210.916 50.8722ZM211.304 44.8292C211.251 45.6559 210.537 46.2834 209.711 46.2301C208.884 46.1769 208.257 45.4638 208.31 44.6371C208.363 43.8114 209.077 43.1838 209.903 43.2361C210.73 43.2894 211.357 44.0034 211.304 44.8292ZM211.691 38.7871C211.639 39.6129 210.925 40.2404 210.099 40.1881C209.273 40.1349 208.644 39.4208 208.698 38.5951C208.751 37.7683 209.465 37.1408 210.291 37.1941C211.117 37.2473 211.745 37.9604 211.691 38.7871ZM212.08 32.7441C212.027 33.5699 211.313 34.1984 210.487 34.1451C209.661 34.0919 209.033 33.3778 209.086 32.5521C209.139 31.7253 209.853 31.0978 210.679 31.1511C211.505 31.2043 212.133 31.9174 212.08 32.7441ZM212.468 26.7011C212.415 27.5279 211.701 28.1554 210.875 28.1021C210.049 28.0489 209.421 27.3348 209.474 26.5091C209.527 25.6833 210.241 25.0548 211.067 25.1081C211.893 25.1613 212.521 25.8754 212.468 26.7011ZM212.856 20.6581C212.803 21.4849 212.089 22.1124 211.263 22.0591C210.437 22.0059 209.809 21.2928 209.862 20.4661C209.915 19.6403 210.629 19.0128 211.455 19.0651C212.281 19.1183 212.909 19.8324 212.856 20.6581ZM213.244 14.6161C213.191 15.4419 212.477 16.0694 211.651 16.0161C210.825 15.9638 210.197 15.2498 210.251 14.4231C210.303 13.5973 211.017 12.9698 211.843 13.0231C212.669 13.0753 213.297 13.7894 213.244 14.6161ZM213.632 8.57312C213.579 9.39886 212.865 10.0274 212.039 9.9741C211.212 9.92083 210.585 9.20678 210.638 8.38104C210.691 7.55432 211.405 6.9268 212.231 6.98006C213.058 7.03332 213.685 7.7464 213.632 8.57312Z" fill="white"/>
<path fill-rule="evenodd" clip-rule="evenodd" d="M199.999 100.618C199.612 100.618 199.259 100.47 198.992 100.229C198.72 100.007 198.5 99.6603 198.5 99.1187C198.499 98.2906 199.172 97.6186 200 97.6179C200.827 97.6182 201.499 98.2904 201.5 99.1185C201.499 100.532 199.999 100.618 199.999 100.618ZM200 3.60724C200 3.60724 201.499 0.693587 201.5 2.10744C201.499 2.93553 200.827 3.60752 200 3.60724ZM200 3.60724C199.612 3.60729 199.258 3.46041 198.992 3.21805C198.72 2.99624 198.5 2.64923 198.5 2.10763C198.5 1.27953 199.172 0.607543 200 3.60724ZM201.499 93.0549C201.5 93.883 200.828 94.555 199.999 94.5547C199.172 94.5554 198.5 93.8832 198.5 93.0551C198.499 92.227 199.172 91.555 200 91.5553C200.827 91.5546 201.5 92.2268 201.499 93.0549ZM201.499 86.9923C201.5 87.8195 200.828 88.4924 199.999 88.4921C199.172 88.4918 198.5 87.8196 198.499 86.9915C198.5 86.1644 199.172 85.4915 199.999 85.4918C200.828 85.492 201.5 86.1642 201.499 86.9923ZM201.499 80.9288C201.5 81.7569 200.828 82.4289 200 82.4286C199.172 82.4293 198.5 81.7571 198.499 80.929C198.5 80.1009 199.172 79.4289 199.999 79.4292C200.828 79.4285 201.5 80.1007 201.499 80.9288ZM201.5 74.8652C201.499 75.6933 200.828 76.3653 200 76.366C199.172 76.3657 198.5 75.6935 198.5 74.8654C198.5 74.0373 199.172 73.3653 199.999 73.3656C200.828 73.3659 201.5 74.0381 201.5 74.8652ZM201.5 68.8026C201.499 69.6298 200.828 70.3027 200 70.3024C199.171 70.3021 198.499 69.63 198.5 68.8028C198.5 67.9747 199.172 67.3028 200 67.3021C200.828 67.3024 201.5 67.9745 201.5 68.8026ZM201.5 62.7391C201.499 63.5672 200.827 64.2392 200 64.2389C199.171 64.2396 198.499 63.5674 198.5 62.7393C198.5 61.9112 199.172 61.2392 200 61.2395C200.828 61.2388 201.5 61.911 201.5 62.7391ZM201.5 56.6765C201.5 57.5036 200.827 58.1766 200 58.1763C199.172 58.176 198.5 57.5038 198.5 56.6757C198.5 55.8486 199.171 55.1756 200 55.1759C200.827 55.1762 201.5 55.8484 201.5 56.6765ZM201.5 50.6129C201.5 51.441 200.827 52.113 200 52.1127C199.172 52.1134 198.5 51.4412 198.5 50.6131C198.5 49.785 199.171 49.113 200 49.1133C200.827 49.1126 201.499 49.7848 201.5 50.6129ZM201.5 44.5494C201.5 45.3775 200.827 46.0495 200 46.0492C199.172 46.0499 198.5 45.3777 198.5 44.5496C198.499 43.7215 199.172 43.0495 200 43.0498C200.827 43.0501 201.499 43.7213 201.5 44.5494ZM201.5 38.4868C201.5 39.3149 200.828 39.9869 199.999 39.9866C199.172 39.9863 198.5 39.3141 198.5 38.487C198.499 37.6589 199.172 36.9869 200 36.9862C200.827 36.9865 201.499 37.6587 201.5 38.4868ZM201.499 32.4233C201.5 33.2514 200.828 33.9233 199.999 33.9231C199.172 33.9237 198.5 33.2516 198.5 32.4235C198.499 31.5954 199.172 30.9234 200 30.9237C200.827 30.923 201.5 31.5952 201.499 32.4233ZM201.499 26.3607C201.5 27.1878 200.828 27.8598 199.999 27.8605C199.172 27.8602 198.5 27.188 198.499 26.3599C198.5 25.5328 199.172 24.8598 199.999 24.8601C200.828 24.8604 201.5 25.5326 201.499 26.3607ZM201.499 20.2971C201.5 21.1252 200.828 21.7972 200 21.7969C199.172 21.7966 198.5 21.1244 198.499 20.2973C198.5 19.4692 199.172 18.7972 199.999 18.7965C200.828 18.7968 201.5 19.469 201.499 20.2971ZM201.5 14.2336C201.499 15.0617 200.828 15.7337 200 15.7344C199.172 15.7341 198.5 15.0619 198.499 14.2338C198.5 13.4057 199.172 12.7337 199.999 12.734C200.828 12.7343 201.5 13.4065 201.5 14.2336ZM201.5 8.171C201.499 8.99811 200.828 9.67108 200 9.67079C199.171 9.6705 198.499 8.9983 198.5 8.17119C198.5 7.34309 199.172 6.6711 200 6.67041C200.828 6.6707 201.5 7.3429 201.5 8.171Z" fill="white"/>
<path fill-rule="evenodd" clip-rule="evenodd" d="M167.218 297.454C167.118 297.203 167.098 296.898 167.219 296.528C167.187 296.624 167.166 296.721 167.155 296.817C167.242 296.086 167.877 295.706 168.645 298.491C168.488 298.491 168.332 298.467 168.182 298.418C167.717 298.267 167.364 297.902 167.218 297.454ZM168.645 298.491C169.277 298.491 169.866 298.088 170.072 297.455C169.709 298.573 168.645 298.491 168.645 298.491ZM138.662 390.77C137.834 390.77 137.162 390.098 137.162 389.27C137.162 388.442 137.834 387.77 138.662 390.77ZM137.318 388.604C137.286 388.669 137.258 388.736 137.236 388.806C137.262 388.725 137.289 388.658 137.318 388.604ZM138.662 390.77C138.662 390.77 137.83 387.625 137.318 388.604C137.642 387.947 138.408 387.61 139.126 387.843C139.913 388.099 140.345 388.946 140.089 389.733C139.725 390.851 138.662 390.77 138.662 390.77ZM165.345 302.295C165.6 301.508 166.447 301.076 167.235 301.332C168.022 301.588 168.454 302.435 168.198 303.222C167.942 304.01 167.095 304.441 166.308 304.185C165.52 303.929 165.089 303.082 165.345 302.295ZM163.471 308.062C163.727 307.275 164.573 306.844 165.361 307.099C166.148 307.355 166.58 308.202 166.324 308.99C166.068 309.777 165.221 310.208 164.434 309.953C163.646 309.697 163.215 308.85 163.471 308.062ZM161.597 313.83C161.853 313.043 162.7 312.611 163.487 312.867C164.274 313.123 164.706 313.97 164.45 314.757C164.194 315.544 163.347 315.976 162.56 315.72C161.772 315.464 161.341 314.617 161.597 313.83ZM159.723 319.597C159.979 318.81 160.826 318.378 161.613 318.634C162.4 318.89 162.832 319.737 162.576 320.524C162.32 321.312 161.473 321.743 160.686 321.487C159.899 321.232 159.467 320.385 159.723 319.597ZM157.849 325.365C158.105 324.577 158.952 324.146 159.739 324.402C160.526 324.657 160.958 325.504 160.702 326.292C160.446 327.079 159.599 327.511 158.812 327.255C158.025 326.999 157.593 326.152 157.849 325.365ZM155.975 331.132C156.231 330.345 157.078 329.913 157.865 330.169C158.652 330.425 159.084 331.272 158.828 332.059C158.572 332.847 157.725 333.278 156.938 333.022C156.151 332.767 155.719 331.92 155.975 331.132ZM154.101 336.899C154.357 336.112 155.204 335.681 155.991 335.936C156.778 336.192 157.21 337.039 156.954 337.826C156.698 338.614 155.851 339.045 155.064 338.79C154.277 338.534 153.845 337.687 154.101 336.899ZM152.227 342.667C152.483 341.879 153.33 341.448 154.117 341.704C154.905 341.96 155.336 342.806 155.08 343.594C154.824 344.381 153.977 344.813 153.19 344.557C152.403 344.301 151.971 343.454 152.227 342.667ZM150.353 348.434C150.609 347.647 151.456 347.215 152.243 347.471C153.031 347.727 153.462 348.574 153.206 349.361C152.95 350.149 152.103 350.58 151.316 350.325C150.529 350.069 150.097 349.222 150.353 348.434ZM148.479 354.202C148.735 353.414 149.582 352.983 150.369 353.239C151.157 353.494 151.588 354.341 151.332 355.129C151.077 355.916 150.23 356.348 149.442 356.092C148.655 355.836 148.223 354.989 148.479 354.202ZM146.605 359.969C146.861 359.182 147.708 358.75 148.495 359.006C149.283 359.262 149.714 360.109 149.458 360.896C149.203 361.684 148.356 362.115 147.568 361.859C146.781 361.603 146.349 360.756 146.605 359.969ZM144.731 365.736C144.987 364.949 145.834 364.518 146.621 364.773C147.409 365.029 147.84 365.876 147.584 366.664C147.329 367.451 146.482 367.882 145.694 367.627C144.907 367.371 144.475 366.524 144.731 365.736ZM142.857 371.504C143.113 370.717 143.96 370.285 144.747 370.541C145.535 370.797 145.966 371.644 145.71 372.431C145.455 373.218 144.608 373.65 143.82 373.394C143.033 373.138 142.601 372.291 142.857 371.504ZM140.983 377.271C141.239 376.484 142.086 376.052 142.874 376.308C143.661 376.564 144.092 377.411 143.837 378.198C143.581 378.986 142.734 379.417 141.946 379.161C141.159 378.906 140.728 378.059 140.983 377.271ZM139.109 383.039C139.365 382.251 140.212 381.82 141 382.076C141.787 382.331 142.218 383.178 141.963 383.966C141.707 384.753 140.86 385.185 140.073 384.929C139.285 384.673 138.854 383.826 139.109 383.039Z" fill="white"/>
<path fill-rule="evenodd" clip-rule="evenodd" d="M391.296 149.913C391.411 149.827 391.562 149.758 391.756 149.708C391.587 149.751 391.433 149.821 391.296 149.913ZM392.129 152.661C392.252 152.661 392.377 152.646 392.502 152.614C392.259 152.676 392.129 152.661 392.129 152.661ZM390.64 150.98C390.693 150.547 390.933 150.155 391.296 149.913C391.101 150.057 391.011 150.247 390.993 150.458C391.268 150.475 391.675 151.016 392.129 152.661C391.445 152.661 390.846 152.196 390.676 151.534C390.645 151.412 390.629 151.287 390.629 151.161C390.629 151.146 390.629 151.131 390.629 151.117C390.631 151.07 390.634 151.024 390.64 150.98ZM298.244 176.766C298.244 176.766 299.565 173.827 298.253 173.766C298.918 173.77 299.524 174.219 299.697 174.893C299.903 175.695 299.419 176.513 298.617 176.719C298.374 176.781 298.244 176.766 298.244 176.766ZM298.253 173.766C298.127 173.765 297.999 173.78 297.871 173.813C298.018 173.776 298.145 173.761 298.253 173.766ZM298.244 176.766C297.416 176.766 296.744 176.094 296.744 175.266C296.744 174.438 297.416 173.766 298.244 176.766ZM385.888 151.214C386.69 151.009 387.508 151.492 387.714 152.294C387.92 153.096 387.436 153.914 386.634 154.12C385.832 154.326 385.014 153.842 384.808 153.04C384.602 152.238 385.086 151.42 385.888 151.214ZM380.02 152.721C380.822 152.515 381.64 152.999 381.846 153.801C382.052 154.603 381.568 155.421 380.766 155.627C379.964 155.833 379.146 155.349 378.94 154.547C378.735 153.745 379.218 152.927 380.02 152.721ZM374.152 154.228C374.954 154.022 375.773 154.506 375.978 155.307C376.184 156.109 375.7 156.927 374.899 157.133C374.097 157.339 373.278 156.855 373.073 156.053C372.867 155.252 373.351 154.433 374.152 154.228ZM368.285 155.734C369.086 155.528 369.905 156.012 370.111 156.814C370.316 157.616 369.833 158.434 369.031 158.64C368.229 158.846 367.411 158.362 367.205 157.56C366.999 156.758 367.483 155.94 368.285 155.734ZM362.417 157.241C363.219 157.035 364.037 157.519 364.243 158.321C364.449 159.122 363.965 159.941 363.163 160.147C362.361 160.352 361.543 159.869 361.337 159.067C361.131 158.265 361.615 157.447 362.417 157.241ZM356.549 158.747C357.351 158.542 358.169 159.025 358.375 159.827C358.581 160.629 358.097 161.447 357.295 161.653C356.493 161.859 355.675 161.375 355.469 160.573C355.263 159.771 355.747 158.953 356.549 158.747ZM350.681 160.254C351.483 160.048 352.301 160.532 352.507 161.334C352.713 162.136 352.229 162.954 351.427 163.16C350.626 163.366 349.807 162.882 349.601 162.08C349.396 161.278 349.879 160.46 350.681 160.254ZM344.814 161.761C345.615 161.555 346.434 162.038 346.64 162.84C346.845 163.642 346.362 164.46 345.56 164.666C344.758 164.872 343.94 164.388 343.734 163.586C343.528 162.785 344.012 161.966 344.814 161.761ZM338.946 163.267C339.747 163.061 340.566 163.545 340.772 164.347C340.977 165.149 340.494 165.967 339.692 166.173C338.89 166.379 338.072 165.895 337.866 165.093C337.66 164.291 338.144 163.473 338.946 163.267ZM333.078 164.774C333.88 164.568 334.698 165.052 334.904 165.854C335.11 166.655 334.626 167.474 333.824 167.679C333.022 167.885 332.204 167.401 331.998 166.6C331.792 165.798 332.276 164.98 333.078 164.774ZM327.21 166.28C328.012 166.074 328.83 166.558 329.036 167.36C329.242 168.162 328.758 168.98 327.956 169.186C327.154 169.392 326.336 168.908 326.13 168.106C325.924 167.304 326.408 166.486 327.21 166.28ZM321.342 167.787C322.144 167.581 322.962 168.065 323.168 168.867C323.374 169.669 322.89 170.487 322.088 170.693C321.287 170.899 320.468 170.415 320.262 169.613C320.057 168.811 320.54 167.993 321.342 167.787ZM315.475 169.294C316.276 169.088 317.095 169.571 317.3 170.373C317.506 171.175 317.022 171.993 316.221 172.199C315.419 172.405 314.601 171.921 314.395 171.119C314.189 170.318 314.673 169.499 315.475 169.294ZM309.607 170.8C310.409 170.594 311.227 171.078 311.433 171.88C311.639 172.682 311.155 173.5 310.353 173.706C309.551 173.912 308.733 173.428 308.527 172.626C308.321 171.824 308.805 171.006 309.607 170.8ZM303.739 172.307C304.541 172.101 305.359 172.585 305.565 173.387C305.771 174.188 305.287 175.007 304.485 175.212C303.683 175.418 302.865 174.934 302.659 174.133C302.453 173.331 302.937 172.513 303.739 172.307Z" fill="white"/>
</g>
</g>
<defs>
<clipPath id="clip0_1180_1944">
<rect width="400" height="400" fill="white" transform="translate(0 0.491211)"/>
</clipPath>
</defs>
</svg>
