<?xml version="1.0" encoding="UTF-8" standalone="no"?>
<!DOCTYPE svg PUBLIC "-//W3C//DTD SVG 1.1//EN" "http://www.w3.org/Graphics/SVG/1.1/DTD/svg11.dtd">
<svg width="100%" height="100%" viewBox="0 0 400 400" version="1.1" xmlns="http://www.w3.org/2000/svg" xmlns:xlink="http://www.w3.org/1999/xlink" xml:space="preserve" xmlns:serif="http://www.serif.com/" style="fill-rule:evenodd;clip-rule:evenodd;stroke-linejoin:round;stroke-miterlimit:2;">
    <g id="Artboard1" transform="matrix(0.992556,0,0,1.40845,-28.7841,-9.85915)">
        <rect x="29" y="7" width="403" height="284" style="fill:none;"/>
        <clipPath id="_clip1">
            <rect x="29" y="7" width="403" height="284"/>
        </clipPath>
        <g clip-path="url(#_clip1)">
            <g transform="matrix(1.0075,0,0,0.71,-155.604,-100.06)">
                <g id="unallocated" transform="matrix(7.44466e-17,-1.21581,1.21581,7.44466e-17,113.929,759.907)">
                    <path d="M180.051,170.667L258.276,196.083C255.608,204.292 254.25,212.869 254.25,221.5C254.25,266.895 291.105,303.75 336.5,303.75C343.4,303.75 350.272,302.882 356.955,301.166L377.409,380.832C364.044,384.264 350.299,386 336.5,386C245.71,386 172,312.29 172,221.5C172,204.238 174.717,187.084 180.051,170.667Z" style="fill:#ebebeb;"/>
                </g>
                <g id="argus-foundation-endowment" transform="matrix(7.44466e-17,-1.21581,1.21581,7.44466e-17,113.929,759.907)">
                    <path d="M377.409,380.832L356.955,301.166C382.456,294.618 403.282,276.258 412.974,251.778L489.448,282.056C470.064,331.016 428.412,367.737 377.409,380.832Z" style="fill:#ebebeb;"/>
                </g>
                <g id="genesis-presale" transform="matrix(7.44466e-17,-1.21581,1.21581,7.44466e-17,113.929,759.907)">
                    <path d="M489.448,282.056L412.974,251.778C416.151,243.753 418.046,235.278 418.588,226.665L500.675,231.829C499.592,249.057 495.803,266.007 489.448,282.056Z" style="fill:#5563ae;"/>
                </g>
                <g id="beta-testers-airdrop" transform="matrix(7.44466e-17,-1.21581,1.21581,7.44466e-17,113.929,759.907)">
                    <path d="M500.675,231.829L418.588,226.665C418.696,224.945 418.75,223.223 418.75,221.5L501,221.5C501,224.946 500.892,228.39 500.675,231.829Z" style="fill:#ebebeb;"/>
                </g>
                <g id="public-presale" transform="matrix(7.44466e-17,-1.21581,1.21581,7.44466e-17,113.929,759.907)">
                    <path d="M501,221.5L418.75,221.5C418.75,176.075 381.925,139.25 336.5,139.25C300.867,139.25 269.287,162.194 258.276,196.083L180.051,170.667C202.074,102.889 265.234,57 336.5,57C427.351,57 501,130.649 501,221.5Z" style="fill:#9fe4c9;"/>
                </g>
                <g transform="matrix(1,1.88738e-15,1.88738e-15,1,-19.8322,52.1748)">
                    <path d="M440.429,205.736C439.601,205.736 438.929,205.064 438.929,204.236C438.929,203.409 439.601,202.736 440.429,205.736ZM439.133,203.48C439.096,203.545 439.062,203.613 439.034,203.684C439.067,203.602 439.1,203.535 439.133,203.48ZM440.429,205.736C440.429,205.736 439.725,202.52 439.133,203.48C439.5,202.85 440.283,202.565 440.981,202.842C441.751,203.147 442.128,204.019 441.823,204.789C441.41,205.834 440.429,205.736 440.429,205.736ZM476.139,115.544C476.736,115.544 477.3,115.184 477.533,114.596C477.12,115.641 476.139,115.544 476.139,115.544ZM474.675,114.374C474.602,114.127 474.608,113.835 474.744,113.492C474.672,113.673 474.638,113.86 474.639,114.044C474.639,113.216 475.311,112.544 476.139,115.544C475.949,115.544 475.763,115.508 475.586,115.439C475.12,115.254 474.783,114.851 474.675,114.374ZM444.055,199.152C443.751,199.921 442.878,200.299 442.109,199.994C441.339,199.689 440.961,198.817 441.266,198.047C441.571,197.277 442.443,196.9 443.213,197.205C443.983,197.509 444.36,198.382 444.055,199.152ZM446.287,193.515C445.982,194.284 445.11,194.662 444.34,194.357C443.571,194.052 443.193,193.18 443.498,192.41C443.803,191.64 444.675,191.263 445.445,191.568C446.215,191.872 446.592,192.745 446.287,193.515ZM448.519,187.878C448.214,188.647 447.342,189.025 446.572,188.72C445.802,188.415 445.425,187.543 445.73,186.773C446.035,186.003 446.907,185.626 447.677,185.931C448.446,186.235 448.824,187.108 448.519,187.878ZM450.751,182.24C450.446,183.01 449.574,183.388 448.804,183.083C448.034,182.778 447.657,181.906 447.962,181.136C448.266,180.366 449.139,179.989 449.909,180.294C450.678,180.598 451.056,181.471 450.751,182.24ZM452.983,176.603C452.678,177.373 451.806,177.751 451.036,177.446C450.266,177.141 449.889,176.269 450.194,175.499C450.498,174.729 451.371,174.352 452.14,174.657C452.91,174.961 453.288,175.834 452.983,176.603ZM455.215,170.966C454.91,171.736 454.038,172.114 453.268,171.809C452.498,171.504 452.121,170.632 452.425,169.862C452.73,169.092 453.603,168.715 454.372,169.019C455.142,169.324 455.519,170.197 455.215,170.966ZM457.447,165.329C457.142,166.099 456.269,166.477 455.5,166.172C454.73,165.867 454.352,164.995 454.657,164.225C454.962,163.455 455.834,163.078 456.604,163.383C457.374,163.687 457.751,164.56 457.447,165.329ZM459.678,159.692C459.374,160.462 458.501,160.84 457.731,160.535C456.962,160.23 456.584,159.358 456.889,158.588C457.194,157.818 458.066,157.441 458.836,157.746C459.606,158.05 459.983,158.923 459.678,159.692ZM461.91,154.055C461.606,154.825 460.733,155.202 459.963,154.898C459.194,154.593 458.816,153.721 459.121,152.951C459.426,152.181 460.298,151.804 461.068,152.108C461.838,152.413 462.215,153.285 461.91,154.055ZM464.142,148.418C463.837,149.188 462.965,149.566 462.195,149.261C461.426,148.956 461.048,148.084 461.353,147.314C461.658,146.544 462.53,146.167 463.3,146.471C464.069,146.776 464.447,147.649 464.142,148.418ZM466.374,142.781C466.069,143.551 465.197,143.928 464.427,143.624C463.657,143.319 463.28,142.447 463.585,141.677C463.889,140.907 464.762,140.53 465.532,140.834C466.301,141.139 466.679,142.011 466.374,142.781ZM468.606,137.144C468.301,137.914 467.429,138.291 466.659,137.987C465.889,137.682 465.512,136.81 465.817,136.04C466.121,135.27 466.994,134.893 467.763,135.197C468.533,135.502 468.911,136.374 468.606,137.144ZM470.838,131.507C470.533,132.277 469.661,132.654 468.891,132.35C468.121,132.045 467.744,131.172 468.048,130.403C468.353,129.633 469.226,129.255 469.995,129.56C470.765,129.865 471.142,130.737 470.838,131.507ZM473.07,125.87C472.765,126.64 471.892,127.017 471.123,126.713C470.353,126.408 469.975,125.535 470.28,124.766C470.585,123.996 471.457,123.618 472.227,123.923C472.997,124.228 473.374,125.1 473.07,125.87ZM475.301,120.233C474.997,121.003 474.124,121.38 473.355,121.076C472.585,120.771 472.207,119.898 472.512,119.129C472.817,118.359 473.689,117.981 474.459,118.286C475.229,118.591 475.606,119.463 475.301,120.233Z" style="fill:#fff;"/>
                </g>
                <g transform="matrix(0.997055,0.00743796,0.00743796,0.981214,-50.7828,45.9318)">
                    <path d="M440.106,204.044L447.069,105.456" style="fill:none;"/>
                    <path d="M438.605,203.957C438.606,203.956 438.606,203.954 438.606,203.953C438.611,203.882 438.619,203.821 438.63,203.77C438.62,203.822 438.612,203.875 438.608,203.929C438.614,203.857 438.625,203.788 438.641,203.724C438.637,203.738 438.633,203.754 438.63,203.77C438.774,203.021 439.448,202.473 440.214,202.517C441.042,202.565 441.666,203.288 441.607,204.13C441.509,205.522 440.095,205.572 440.095,205.572C439.264,205.579 438.595,204.899 438.602,204.055C438.602,204.022 438.603,203.989 438.605,203.957ZM445.924,106.465C445.71,106.241 445.554,105.922 445.564,105.467C445.564,105.439 445.565,105.411 445.567,105.383C445.567,105.378 445.568,105.374 445.568,105.369C445.624,104.575 446.281,104.052 447.057,106.984C447.025,106.985 446.993,106.984 446.961,106.982C446.545,106.958 446.178,106.763 445.924,106.465ZM447.919,106.703C448.284,106.443 448.535,106.025 448.569,105.542C448.527,106.147 448.235,106.499 447.919,106.703ZM447.057,106.984C447.057,106.984 447.509,106.968 447.919,106.703C447.673,106.879 447.375,106.982 447.057,106.984ZM442.042,197.968C441.982,198.811 441.262,199.456 440.434,199.408C439.605,199.36 438.981,198.638 439.041,197.795C439.1,196.953 439.821,196.308 440.649,196.355C441.477,196.403 442.101,197.126 442.042,197.968ZM442.477,191.807C442.418,192.649 441.697,193.294 440.869,193.247C440.04,193.199 439.416,192.476 439.476,191.634C439.535,190.791 440.256,190.146 441.084,190.194C441.913,190.241 442.537,190.964 442.477,191.807ZM442.912,185.645C442.853,186.487 442.132,187.133 441.304,187.085C440.476,187.037 439.851,186.314 439.911,185.472C439.97,184.629 440.691,183.984 441.519,184.032C442.348,184.08 442.972,184.803 442.912,185.645ZM443.347,179.483C443.288,180.326 442.567,180.971 441.739,180.923C440.911,180.875 440.287,180.152 440.346,179.31C440.406,178.468 441.126,177.822 441.955,177.87C442.783,177.918 443.407,178.641 443.347,179.483ZM443.783,173.321C443.723,174.164 443.002,174.809 442.174,174.761C441.346,174.713 440.722,173.991 440.781,173.148C440.841,172.306 441.561,171.661 442.39,171.708C443.218,171.756 443.842,172.479 443.783,173.321ZM444.218,167.16C444.158,168.002 443.438,168.647 442.609,168.599C441.781,168.552 441.157,167.829 441.216,166.986C441.276,166.144 441.997,165.499 442.825,165.547C443.653,165.594 444.277,166.317 444.218,167.16ZM444.653,160.998C444.593,161.84 443.873,162.486 443.044,162.438C442.216,162.39 441.592,161.667 441.652,160.825C441.711,159.982 442.432,159.337 443.26,159.385C444.088,159.433 444.712,160.156 444.653,160.998ZM445.088,154.836C445.029,155.679 444.308,156.324 443.48,156.276C442.651,156.228 442.027,155.506 442.087,154.663C442.146,153.821 442.867,153.175 443.695,153.223C444.523,153.271 445.148,153.994 445.088,154.836ZM445.523,148.674C445.464,149.517 444.743,150.162 443.915,150.114C443.086,150.066 442.462,149.344 442.522,148.501C442.581,147.659 443.302,147.014 444.13,147.061C444.959,147.109 445.583,147.832 445.523,148.674ZM445.958,142.513C445.899,143.355 445.178,144 444.35,143.953C443.522,143.905 442.897,143.182 442.957,142.34C443.016,141.497 443.737,140.852 444.565,140.9C445.394,140.948 446.018,141.67 445.958,142.513ZM446.394,136.351C446.334,137.193 445.613,137.839 444.785,137.791C443.957,137.743 443.333,137.02 443.392,136.178C443.452,135.335 444.172,134.69 445.001,134.738C445.829,134.786 446.453,135.508 446.394,136.351ZM446.829,130.189C446.769,131.032 446.048,131.677 445.22,131.629C444.392,131.581 443.768,130.858 443.827,130.016C443.887,129.174 444.608,128.528 445.436,128.576C446.264,128.624 446.888,129.347 446.829,130.189ZM447.264,124.027C447.204,124.87 446.484,125.515 445.655,125.467C444.827,125.419 444.203,124.697 444.262,123.854C444.322,123.012 445.043,122.367 445.871,122.414C446.699,122.462 447.323,123.185 447.264,124.027ZM447.699,117.866C447.64,118.708 446.919,119.353 446.091,119.305C445.262,119.258 444.638,118.535 444.698,117.692C444.757,116.85 445.478,116.205 446.306,116.253C447.134,116.3 447.758,117.023 447.699,117.866ZM448.134,111.704C448.075,112.546 447.354,113.192 446.526,113.144C445.697,113.096 445.073,112.373 445.133,111.531C445.192,110.688 445.913,110.043 446.741,110.091C447.57,110.139 448.194,110.861 448.134,111.704Z" style="fill:#fff;"/>
                </g>
                <g transform="matrix(0.997055,0.00743796,0.00743796,0.981214,-57.0274,45.9318)">
                    <path d="M440.024,205.573C439.635,205.576 439.282,205.428 439.016,205.184C438.745,204.96 438.527,204.608 438.531,204.056C438.537,203.212 439.217,202.522 440.047,202.515C440.877,202.509 441.546,203.189 441.54,204.033C441.529,205.474 440.024,205.573 440.024,205.573ZM440.762,106.699C440.762,106.699 442.288,103.718 442.278,105.159C442.271,106.003 441.592,106.693 440.762,106.699ZM440.762,106.699C440.373,106.702 440.019,106.555 439.754,106.31C439.483,106.086 439.265,105.734 439.269,105.182C439.275,104.338 439.954,103.648 440.762,106.699ZM441.586,197.853C441.58,198.697 440.901,199.387 440.07,199.393C439.24,199.4 438.571,198.72 438.577,197.876C438.583,197.032 439.263,196.342 440.093,196.336C440.923,196.329 441.593,197.009 441.586,197.853ZM441.632,191.674C441.626,192.517 440.947,193.208 440.116,193.214C439.286,193.22 438.617,192.54 438.623,191.696C438.63,190.853 439.309,190.162 440.139,190.156C440.97,190.15 441.639,190.83 441.632,191.674ZM441.678,185.494C441.672,186.338 440.993,187.028 440.163,187.034C439.332,187.041 438.663,186.361 438.669,185.517C438.676,184.673 439.355,183.983 440.185,183.977C441.016,183.97 441.685,184.65 441.678,185.494ZM441.725,179.314C441.718,180.158 441.039,180.848 440.209,180.855C439.378,180.861 438.709,180.181 438.716,179.337C438.722,178.493 439.401,177.803 440.231,177.797C441.062,177.791 441.731,178.471 441.725,179.314ZM441.771,173.135C441.764,173.978 441.085,174.669 440.255,174.675C439.424,174.681 438.755,174.001 438.762,173.158C438.768,172.314 439.447,171.624 440.278,171.617C441.108,171.611 441.777,172.291 441.771,173.135ZM441.817,166.955C441.81,167.799 441.131,168.489 440.301,168.495C439.47,168.502 438.801,167.822 438.808,166.978C438.814,166.134 439.493,165.444 440.324,165.438C441.154,165.431 441.823,166.111 441.817,166.955ZM441.863,160.776C441.857,161.619 441.177,162.31 440.347,162.316C439.517,162.322 438.848,161.642 438.854,160.798C438.86,159.955 439.539,159.264 440.37,159.258C441.2,159.252 441.869,159.932 441.863,160.776ZM441.909,154.596C441.903,155.44 441.223,156.13 440.393,156.136C439.563,156.143 438.894,155.463 438.9,154.619C438.906,153.775 439.585,153.085 440.416,153.079C441.246,153.072 441.915,153.752 441.909,154.596ZM441.955,148.416C441.949,149.26 441.269,149.95 440.439,149.956C439.609,149.963 438.94,149.283 438.946,148.439C438.952,147.595 439.632,146.905 440.462,146.899C441.292,146.893 441.961,147.572 441.955,148.416ZM442.001,142.237C441.995,143.081 441.316,143.771 440.485,143.777C439.655,143.783 438.986,143.103 438.992,142.26C438.998,141.416 439.678,140.726 440.508,140.719C441.338,140.713 442.007,141.393 442.001,142.237ZM442.047,136.057C442.041,136.901 441.362,137.591 440.531,137.597C439.701,137.604 439.032,136.924 439.038,136.08C439.044,135.236 439.724,134.546 440.554,134.54C441.384,134.533 442.054,135.213 442.047,136.057ZM442.093,129.878C442.087,130.721 441.408,131.411 440.577,131.418C439.747,131.424 439.078,130.744 439.084,129.9C439.091,129.057 439.77,128.366 440.6,128.36C441.431,128.354 442.1,129.034 442.093,129.878ZM442.139,123.698C442.133,124.542 441.454,125.232 440.624,125.238C439.793,125.244 439.124,124.564 439.13,123.721C439.137,122.877 439.816,122.187 440.646,122.18C441.477,122.174 442.146,122.854 442.139,123.698ZM442.186,117.518C442.179,118.362 441.5,119.052 440.67,119.059C439.839,119.065 439.17,118.385 439.176,117.541C439.183,116.697 439.862,116.007 440.692,116.001C441.523,115.995 442.192,116.675 442.186,117.518ZM442.232,111.339C442.225,112.182 441.546,112.873 440.716,112.879C439.885,112.885 439.216,112.205 439.223,111.362C439.229,110.518 439.908,109.828 440.739,109.821C441.569,109.815 442.238,110.495 442.232,111.339Z" style="fill:#fff;"/>
                </g>
                <g transform="matrix(1,0,0,1,183.23,150.789)">
                    <path d="M167.218,296.963C167.118,296.712 167.098,296.407 167.219,296.037C167.187,296.133 167.166,296.23 167.155,296.326C167.242,295.595 167.877,295.215 168.645,298C168.488,298 168.332,297.976 168.182,297.927C167.717,297.776 167.364,297.411 167.218,296.963ZM168.645,298C169.277,298 169.866,297.597 170.072,296.964C169.709,298.082 168.645,298 168.645,298ZM138.662,390.279C137.834,390.279 137.162,389.607 137.162,388.779C137.162,387.951 137.834,387.279 138.662,390.279ZM137.318,388.113C137.286,388.178 137.258,388.245 137.236,388.315C137.262,388.234 137.289,388.167 137.318,388.113ZM138.662,390.279C138.662,390.279 137.83,387.134 137.318,388.113C137.642,387.456 138.408,387.119 139.126,387.352C139.913,387.608 140.345,388.455 140.089,389.242C139.725,390.36 138.662,390.279 138.662,390.279ZM165.345,301.804C165.6,301.017 166.447,300.585 167.235,300.841C168.022,301.097 168.454,301.944 168.198,302.731C167.942,303.519 167.095,303.95 166.308,303.694C165.52,303.438 165.089,302.591 165.345,301.804ZM163.471,307.571C163.727,306.784 164.573,306.353 165.361,306.608C166.148,306.864 166.58,307.711 166.324,308.499C166.068,309.286 165.221,309.717 164.434,309.462C163.646,309.206 163.215,308.359 163.471,307.571ZM161.597,313.339C161.853,312.552 162.7,312.12 163.487,312.376C164.274,312.632 164.706,313.479 164.45,314.266C164.194,315.053 163.347,315.485 162.56,315.229C161.772,314.973 161.341,314.126 161.597,313.339ZM159.723,319.106C159.979,318.319 160.826,317.887 161.613,318.143C162.4,318.399 162.832,319.246 162.576,320.033C162.32,320.821 161.473,321.252 160.686,320.996C159.899,320.741 159.467,319.894 159.723,319.106ZM157.849,324.874C158.105,324.086 158.952,323.655 159.739,323.911C160.526,324.166 160.958,325.013 160.702,325.801C160.446,326.588 159.599,327.02 158.812,326.764C158.025,326.508 157.593,325.661 157.849,324.874ZM155.975,330.641C156.231,329.854 157.078,329.422 157.865,329.678C158.652,329.934 159.084,330.781 158.828,331.568C158.572,332.356 157.725,332.787 156.938,332.531C156.151,332.276 155.719,331.429 155.975,330.641ZM154.101,336.408C154.357,335.621 155.204,335.19 155.991,335.445C156.778,335.701 157.21,336.548 156.954,337.335C156.698,338.123 155.851,338.554 155.064,338.299C154.277,338.043 153.845,337.196 154.101,336.408ZM152.227,342.176C152.483,341.388 153.33,340.957 154.117,341.213C154.905,341.469 155.336,342.315 155.08,343.103C154.824,343.89 153.977,344.322 153.19,344.066C152.403,343.81 151.971,342.963 152.227,342.176ZM150.353,347.943C150.609,347.156 151.456,346.724 152.243,346.98C153.031,347.236 153.462,348.083 153.206,348.87C152.95,349.658 152.103,350.089 151.316,349.834C150.529,349.578 150.097,348.731 150.353,347.943ZM148.479,353.711C148.735,352.923 149.582,352.492 150.369,352.748C151.157,353.003 151.588,353.85 151.332,354.638C151.077,355.425 150.23,355.857 149.442,355.601C148.655,355.345 148.223,354.498 148.479,353.711ZM146.605,359.478C146.861,358.691 147.708,358.259 148.495,358.515C149.283,358.771 149.714,359.618 149.458,360.405C149.203,361.193 148.356,361.624 147.568,361.368C146.781,361.112 146.349,360.265 146.605,359.478ZM144.731,365.245C144.987,364.458 145.834,364.027 146.621,364.282C147.409,364.538 147.84,365.385 147.584,366.173C147.329,366.96 146.482,367.391 145.694,367.136C144.907,366.88 144.475,366.033 144.731,365.245ZM142.857,371.013C143.113,370.226 143.96,369.794 144.747,370.05C145.535,370.306 145.966,371.153 145.71,371.94C145.455,372.727 144.608,373.159 143.82,372.903C143.033,372.647 142.601,371.8 142.857,371.013ZM140.983,376.78C141.239,375.993 142.086,375.561 142.874,375.817C143.661,376.073 144.092,376.92 143.837,377.707C143.581,378.495 142.734,378.926 141.946,378.67C141.159,378.415 140.728,377.568 140.983,376.78ZM139.109,382.548C139.365,381.76 140.212,381.329 141,381.585C141.787,381.84 142.218,382.687 141.963,383.475C141.707,384.262 140.86,384.694 140.073,384.438C139.285,384.182 138.854,383.335 139.109,382.548Z" style="fill:#fff;"/>
                </g>
            </g>
            <g id="logo.svg" transform="matrix(0.26195,0,0,0.1846,230.5,149)">
                <g transform="matrix(1,0,0,1,-250,-250)">
                    <g transform="matrix(3.63784,-3.63716,3.63716,3.63784,-186.5,249.959)">
                        <path d="M100,39.439C100,28.703 91.297,20 80.561,20L39.439,20C28.703,20 20,28.703 20,39.439L20,60.851C20,61.209 20.197,61.538 20.513,61.707C20.829,61.877 21.213,61.858 21.511,61.659C25.015,59.323 33.549,53.634 35.567,52.289C35.838,52.108 36,51.805 36,51.48L36,45.72C36,43.142 37.024,40.67 38.847,38.847C40.67,37.024 43.142,36 45.72,36L74.28,36C76.858,36 79.33,37.024 81.153,38.847C82.976,40.67 84,43.142 84,45.72L84,56.61C84,56.977 84.207,57.313 84.535,57.478C84.863,57.643 85.256,57.609 85.551,57.39C89.104,54.754 97.672,48.394 99.607,46.958C99.854,46.775 100,46.485 100,46.178L100,39.439Z" style="fill:url(#_Linear2);"/>
                    </g>
                    <g transform="matrix(-3.63784,3.63716,-3.63716,-3.63784,686.5,250.041)">
                        <path d="M100,39.439C100,28.703 91.297,20 80.561,20L39.439,20C28.703,20 20,28.703 20,39.439L20,61.092C20,61.452 20.199,61.783 20.518,61.952C20.837,62.12 21.223,62.098 21.52,61.894C25.035,59.492 33.577,53.656 35.576,52.289C35.841,52.108 36,51.808 36,51.487L36,45.72C36,43.142 37.024,40.67 38.847,38.847C40.67,37.024 43.142,36 45.72,36L74.278,36C76.856,36 79.329,37.024 81.152,38.848C82.975,40.671 83.998,43.144 83.998,45.722C83.997,49.876 83.996,54.332 83.995,56.811C83.995,57.18 84.204,57.517 84.534,57.682C84.864,57.846 85.259,57.809 85.553,57.587C89.115,54.894 97.694,48.41 99.614,46.958C99.857,46.775 100,46.488 100,46.183L100,39.439Z" style="fill:url(#_Linear3);"/>
                    </g>
                    <g transform="matrix(0.970091,-0.969909,0.969909,0.970091,-45.8506,256.762)">
                        <path d="M206,124C206,110.202 194.798,99 181,99L131,99C117.202,99 106,110.202 106,124L106,174C106,187.798 117.202,199 131,199L181,199C194.798,199 206,187.798 206,174L206,124Z" style="fill:#a855f7;"/>
                    </g>
                </g>
            </g>
            <g id="public-presale1" serif:id="public-presale">
            </g>
            <g transform="matrix(1.0075,0,0,0.71,29,7)">
                <path d="M391.296,149.422C391.411,149.336 391.562,149.267 391.756,149.217C391.587,149.26 391.433,149.33 391.296,149.422ZM392.129,152.17C392.252,152.17 392.377,152.155 392.502,152.123C392.259,152.185 392.129,152.17 392.129,152.17ZM390.64,150.489C390.693,150.056 390.933,149.664 391.296,149.422C391.101,149.566 391.011,149.756 390.993,149.967C391.268,149.984 391.675,150.525 392.129,152.17C391.445,152.17 390.846,151.705 390.676,151.043C390.645,150.921 390.629,150.796 390.629,150.67C390.629,150.655 390.629,150.64 390.629,150.626C390.631,150.579 390.634,150.533 390.64,150.489ZM298.244,176.275C298.244,176.275 299.565,173.336 298.253,173.275C298.918,173.279 299.524,173.728 299.697,174.402C299.903,175.204 299.419,176.022 298.617,176.228C298.374,176.29 298.244,176.275 298.244,176.275ZM298.253,173.275C298.127,173.274 297.999,173.289 297.871,173.322C298.018,173.285 298.145,173.27 298.253,173.275ZM298.244,176.275C297.416,176.275 296.744,175.603 296.744,174.775C296.744,173.947 297.416,173.275 298.244,176.275ZM385.888,150.723C386.69,150.518 387.508,151.001 387.714,151.803C387.92,152.605 387.436,153.423 386.634,153.629C385.832,153.835 385.014,153.351 384.808,152.549C384.602,151.747 385.086,150.929 385.888,150.723ZM380.02,152.23C380.822,152.024 381.64,152.508 381.846,153.31C382.052,154.112 381.568,154.93 380.766,155.136C379.964,155.342 379.146,154.858 378.94,154.056C378.735,153.254 379.218,152.436 380.02,152.23ZM374.152,153.737C374.954,153.531 375.773,154.015 375.978,154.816C376.184,155.618 375.7,156.436 374.899,156.642C374.097,156.848 373.278,156.364 373.073,155.562C372.867,154.761 373.351,153.942 374.152,153.737ZM368.285,155.243C369.086,155.037 369.905,155.521 370.111,156.323C370.316,157.125 369.833,157.943 369.031,158.149C368.229,158.355 367.411,157.871 367.205,157.069C366.999,156.267 367.483,155.449 368.285,155.243ZM362.417,156.75C363.219,156.544 364.037,157.028 364.243,157.83C364.449,158.631 363.965,159.45 363.163,159.656C362.361,159.861 361.543,159.378 361.337,158.576C361.131,157.774 361.615,156.956 362.417,156.75ZM356.549,158.256C357.351,158.051 358.169,158.534 358.375,159.336C358.581,160.138 358.097,160.956 357.295,161.162C356.493,161.368 355.675,160.884 355.469,160.082C355.263,159.28 355.747,158.462 356.549,158.256ZM350.681,159.763C351.483,159.557 352.301,160.041 352.507,160.843C352.713,161.645 352.229,162.463 351.427,162.669C350.626,162.875 349.807,162.391 349.601,161.589C349.396,160.787 349.879,159.969 350.681,159.763ZM344.814,161.27C345.615,161.064 346.434,161.547 346.64,162.349C346.845,163.151 346.362,163.969 345.56,164.175C344.758,164.381 343.94,163.897 343.734,163.095C343.528,162.294 344.012,161.475 344.814,161.27ZM338.946,162.776C339.747,162.57 340.566,163.054 340.772,163.856C340.977,164.658 340.494,165.476 339.692,165.682C338.89,165.888 338.072,165.404 337.866,164.602C337.66,163.8 338.144,162.982 338.946,162.776ZM333.078,164.283C333.88,164.077 334.698,164.561 334.904,165.363C335.11,166.164 334.626,166.983 333.824,167.188C333.022,167.394 332.204,166.91 331.998,166.109C331.792,165.307 332.276,164.489 333.078,164.283ZM327.21,165.789C328.012,165.583 328.83,166.067 329.036,166.869C329.242,167.671 328.758,168.489 327.956,168.695C327.154,168.901 326.336,168.417 326.13,167.615C325.924,166.813 326.408,165.995 327.21,165.789ZM321.342,167.296C322.144,167.09 322.962,167.574 323.168,168.376C323.374,169.178 322.89,169.996 322.088,170.202C321.287,170.408 320.468,169.924 320.262,169.122C320.057,168.32 320.54,167.502 321.342,167.296ZM315.475,168.803C316.276,168.597 317.095,169.08 317.3,169.882C317.506,170.684 317.022,171.502 316.221,171.708C315.419,171.914 314.601,171.43 314.395,170.628C314.189,169.827 314.673,169.008 315.475,168.803ZM309.607,170.309C310.409,170.103 311.227,170.587 311.433,171.389C311.639,172.191 311.155,173.009 310.353,173.215C309.551,173.421 308.733,172.937 308.527,172.135C308.321,171.333 308.805,170.515 309.607,170.309ZM303.739,171.816C304.541,171.61 305.359,172.094 305.565,172.896C305.771,173.697 305.287,174.516 304.485,174.721C303.683,174.927 302.865,174.443 302.659,173.642C302.453,172.84 302.937,172.022 303.739,171.816Z" style="fill:#fff;"/>
            </g>
        </g>
    </g>
    <defs>
        <linearGradient id="_Linear2" x1="0" y1="0" x2="1" y2="0" gradientUnits="userSpaceOnUse" gradientTransform="matrix(80,0,0,80,20,41.3333)"><stop offset="0" style="stop-color:#9333ea;stop-opacity:1"/><stop offset="0.67" style="stop-color:#9638ec;stop-opacity:1"/><stop offset="1" style="stop-color:#a855f7;stop-opacity:1"/></linearGradient>
        <linearGradient id="_Linear3" x1="0" y1="0" x2="1" y2="0" gradientUnits="userSpaceOnUse" gradientTransform="matrix(80,0,0,80,20,41.4667)"><stop offset="0" style="stop-color:#9333ea;stop-opacity:1"/><stop offset="1" style="stop-color:#a855f7;stop-opacity:1"/></linearGradient>
    </defs>
</svg>
