<?xml version="1.0" encoding="UTF-8" standalone="no"?>
<!DOCTYPE svg PUBLIC "-//W3C//DTD SVG 1.1//EN" "http://www.w3.org/Graphics/SVG/1.1/DTD/svg11.dtd">
<svg width="100%" height="100%" viewBox="0 0 641 353" version="1.1" xmlns="http://www.w3.org/2000/svg" xmlns:xlink="http://www.w3.org/1999/xlink" xml:space="preserve" xmlns:serif="http://www.serif.com/" style="fill-rule:evenodd;clip-rule:evenodd;stroke-linecap:round;stroke-linejoin:round;stroke-miterlimit:1.5;">
    <g id="Artboard1" transform="matrix(1,0,0,1,7,11)">
        <rect x="-7" y="-11" width="641" height="353" style="fill:none;"/>
        <g transform="matrix(1,0,0,0.435435,40.7817,-17.2883)">
            <path d="M79,42L79,708" style="fill:none;stroke:white;stroke-width:2.59px;"/>
        </g>
        <g transform="matrix(4.51316e-17,-1,0.737055,6.12323e-17,77.9465,360)">
            <path d="M79,42L79,735.135" style="fill:none;stroke:white;stroke-width:2.28px;"/>
        </g>
        <g transform="matrix(1,0,0,1,-46.5909,-499.172)">
            <g transform="matrix(12,0,0,12,147.795,744.172)">
            </g>
            <text x="76.011px" y="744.172px" style="font-family:'GTWalsheimTrial-Md', 'GT Walsheim Trial';font-weight:500;font-size:12px;fill:white;">500<tspan x="97.467px 100.719px " y="744.172px 744.172px ">,0</tspan>00<tspan x="122.511px 125.763px " y="744.172px 744.172px ">,0</tspan>00</text>
        </g>
        <g transform="matrix(1,0,0,1,-47.1553,-539.172)">
            <g transform="matrix(12,0,0,12,147.651,744.172)">
            </g>
            <text x="76.011px" y="744.172px" style="font-family:'GTWalsheimTrial-Md', 'GT Walsheim Trial';font-weight:500;font-size:12px;fill:white;">600<tspan x="97.323px 100.575px " y="744.172px 744.172px ">,0</tspan>00<tspan x="122.367px 125.619px " y="744.172px 744.172px ">,0</tspan>00</text>
        </g>
        <g transform="matrix(1,0,0,1,-45.794,-579.172)">
            <g transform="matrix(12,0,0,12,146.511,744.172)">
            </g>
            <text x="76.011px" y="744.172px" style="font-family:'GTWalsheimTrial-Md', 'GT Walsheim Trial';font-weight:500;font-size:12px;fill:white;">7<tspan x="81.735px 89.079px 96.183px 99.435px " y="744.172px 744.172px 744.172px 744.172px ">00,0</tspan>00<tspan x="121.227px 124.479px " y="744.172px 744.172px ">,0</tspan>00</text>
        </g>
        <g transform="matrix(1,0,0,1,-47.2706,-619.172)">
            <g transform="matrix(12,0,0,12,147.867,744.172)">
            </g>
            <text x="76.011px" y="744.172px" style="font-family:'GTWalsheimTrial-Md', 'GT Walsheim Trial';font-weight:500;font-size:12px;fill:white;">800<tspan x="97.539px 100.791px " y="744.172px 744.172px ">,0</tspan>00<tspan x="122.583px 125.835px " y="744.172px 744.172px ">,0</tspan>00</text>
        </g>
        <g transform="matrix(1,0,0,1,-47.2588,-659.172)">
            <g transform="matrix(12,0,0,12,147.591,744.172)">
            </g>
            <text x="76.011px" y="744.172px" style="font-family:'GTWalsheimTrial-Md', 'GT Walsheim Trial';font-weight:500;font-size:12px;fill:white;">900<tspan x="97.263px 100.515px " y="744.172px 744.172px ">,0</tspan>00<tspan x="122.307px 125.559px " y="744.172px 744.172px ">,0</tspan>00</text>
        </g>
        <g transform="matrix(1,0,0,1,-55.5821,-698.767)">
            <g transform="matrix(12,0,0,12,156.159,744.172)">
            </g>
            <text x="76.011px" y="744.172px" style="font-family:'GTWalsheimTrial-Md', 'GT Walsheim Trial';font-weight:500;font-size:12px;fill:white;">1,<tspan x="84.039px " y="744.172px ">0</tspan>00<tspan x="105.831px 109.083px " y="744.172px 744.172px ">,0</tspan>00<tspan x="130.875px 134.127px " y="744.172px 744.172px ">,0</tspan>00</text>
        </g>
        <g transform="matrix(6.12323e-17,-1,1,6.12323e-17,-735.82,269.542)">
            <g transform="matrix(12,0,0,12,185.751,744.172)">
            </g>
            <text x="76.011px" y="744.172px" style="font-family:'GTWalsheimTrial-Md', 'GT Walsheim Trial';font-weight:500;font-size:12px;fill:white;">T<tspan x="81.555px 88.299px 93.915px " y="744.172px 744.172px 744.172px ">oke</tspan>ns in cir<tspan x="141.747px " y="744.172px ">c</tspan>ulation</text>
        </g>
        <g transform="matrix(1,0,0,1,-0.218312,-79)">
            <path d="M120,80L620,80M120,120L620,120M120,160L620,160M120,200L620,200M120,240L620,240M120,280L620,280M120,320L620,320M160,80L160,360M200,80L200,360M240,80L240,360M280,80L280,360M320,80L320,360M360,80L360,360M400,80L400,360M440,80L440,360M480,80L480,360M520,80L520,360M560,80L560,360M600,80L600,360" style="fill:none;stroke:white;stroke-opacity:0.04;stroke-width:1px;"/>
        </g>
        <g transform="matrix(2,0,0,2,-213.218,-627)">
            <circle cx="167" cy="433" r="1" style="fill:rgb(102,0,255);stroke:white;stroke-opacity:0.04;stroke-width:4px;"/>
        </g>
        <g transform="matrix(2,0,0,2,-174.218,-705)">
            <circle cx="167" cy="433" r="1" style="fill:rgb(102,0,255);stroke:white;stroke-opacity:0.04;stroke-width:4px;"/>
        </g>
        <g transform="matrix(2,0,0,2,-134.218,-784)">
            <circle cx="167" cy="433" r="1" style="fill:rgb(102,0,255);stroke:white;stroke-opacity:0.04;stroke-width:4px;"/>
        </g>
        <g transform="matrix(2,0,0,2,-94.2183,-789)">
            <circle cx="167" cy="433" r="1" style="fill:rgb(102,0,255);stroke:white;stroke-opacity:0.04;stroke-width:4px;"/>
        </g>
        <g transform="matrix(2,0,0,2,-54.2183,-793)">
            <circle cx="167" cy="433" r="1" style="fill:rgb(102,0,255);stroke:white;stroke-opacity:0.04;stroke-width:4px;"/>
        </g>
        <g transform="matrix(2,0,0,2,-14.2183,-797)">
            <circle cx="167" cy="433" r="1" style="fill:rgb(102,0,255);stroke:white;stroke-opacity:0.04;stroke-width:4px;"/>
        </g>
        <g transform="matrix(2,0,0,2,25.7817,-801)">
            <circle cx="167" cy="433" r="1" style="fill:rgb(102,0,255);stroke:white;stroke-opacity:0.04;stroke-width:4px;"/>
        </g>
        <g transform="matrix(2,0,0,2,65.7817,-805)">
            <circle cx="167" cy="433" r="1" style="fill:rgb(102,0,255);stroke:white;stroke-opacity:0.04;stroke-width:4px;"/>
        </g>
        <g transform="matrix(2,0,0,2,105.782,-809)">
            <circle cx="167" cy="433" r="1" style="fill:rgb(102,0,255);stroke:white;stroke-opacity:0.04;stroke-width:4px;"/>
        </g>
        <g transform="matrix(2,0,0,2,145.782,-813)">
            <circle cx="167" cy="433" r="1" style="fill:rgb(102,0,255);stroke:white;stroke-opacity:0.04;stroke-width:4px;"/>
        </g>
        <g transform="matrix(2,0,0,2,185.782,-817)">
            <circle cx="167" cy="433" r="1" style="fill:rgb(102,0,255);stroke:white;stroke-opacity:0.04;stroke-width:4px;"/>
        </g>
        <g transform="matrix(2,0,0,2,225.782,-821)">
            <circle cx="167" cy="433" r="1" style="fill:rgb(102,0,255);stroke:white;stroke-opacity:0.04;stroke-width:4px;"/>
        </g>
        <g transform="matrix(2,0,0,2,265.782,-825)">
            <circle cx="167" cy="433" r="1" style="fill:rgb(102,0,255);stroke:white;stroke-opacity:0.04;stroke-width:4px;"/>
        </g>
        <g transform="matrix(1,0,0,1,-0.218312,-199)">
            <path d="M160,359L200,281" style="fill:none;stroke:rgb(102,0,255);stroke-opacity:0.13;stroke-width:2px;"/>
        </g>
        <g transform="matrix(0.999619,0.00148471,0.00148471,0.99421,-60.5594,-119.67)">
            <path d="M180.876,359.483L220.008,280.97" style="fill:none;stroke:rgb(102,0,255);stroke-opacity:0.13;stroke-width:2px;"/>
        </g>
        <g transform="matrix(1,0,0,1,-40.2183,-199)">
            <path d="M240,281L280,276" style="fill:none;stroke:rgb(102,0,255);stroke-opacity:0.13;stroke-width:2px;"/>
        </g>
        <g transform="matrix(1,0,0,1,-40.2183,-199)">
            <path d="M280,276L320,272" style="fill:none;stroke:rgb(102,0,255);stroke-opacity:0.13;stroke-width:2px;"/>
        </g>
        <g transform="matrix(1,0,0,1,-40.2183,-199)">
            <path d="M320,272L360,268" style="fill:none;stroke:rgb(102,0,255);stroke-opacity:0.13;stroke-width:2px;"/>
        </g>
        <g transform="matrix(1,0,0,1,-40.2183,-199)">
            <path d="M360,268L400,264" style="fill:none;stroke:rgb(102,0,255);stroke-opacity:0.13;stroke-width:2px;"/>
        </g>
        <g transform="matrix(1,0,0,1,-40.2183,-199)">
            <path d="M400,264L440,260" style="fill:none;stroke:rgb(102,0,255);stroke-opacity:0.13;stroke-width:2px;"/>
        </g>
        <g transform="matrix(1,0,0,1,-40.2183,-199)">
            <path d="M440,260L480,256" style="fill:none;stroke:rgb(102,0,255);stroke-opacity:0.13;stroke-width:2px;"/>
        </g>
        <g transform="matrix(1,0,0,1,-40.2183,-199)">
            <path d="M480,256L520,252" style="fill:none;stroke:rgb(102,0,255);stroke-opacity:0.13;stroke-width:2px;"/>
        </g>
        <g transform="matrix(1,0,0,1,-40.2183,-199)">
            <path d="M520,252L560,248" style="fill:none;stroke:rgb(102,0,255);stroke-opacity:0.13;stroke-width:2px;"/>
        </g>
        <g transform="matrix(1,0,0,1,-40.2183,-199)">
            <path d="M560,248L600,244" style="fill:none;stroke:rgb(102,0,255);stroke-opacity:0.13;stroke-width:2px;"/>
        </g>
        <g transform="matrix(1,0,0,1,-40.2183,-199)">
            <path d="M600,244L640,240" style="fill:none;stroke:rgb(102,0,255);stroke-opacity:0.13;stroke-width:2px;"/>
        </g>
    </g>
    <g transform="matrix(1,0,0,1,46.997,-427.172)">
        <g transform="matrix(12,0,0,12,83.3552,744.172)">
        </g>
        <text x="76.011px" y="744.172px" style="font-family:'GTWalsheimTrial-Md', 'GT Walsheim Trial';font-weight:500;font-size:12px;fill:white;">0</text>
    </g>
    <g transform="matrix(1,0,0,1,446.997,-427.172)">
        <g transform="matrix(12,0,0,12,90.2192,744.172)">
        </g>
        <text x="76.011px" y="744.172px" style="font-family:'GTWalsheimTrial-Md', 'GT Walsheim Trial';font-weight:500;font-size:12px;fill:white;">30</text>
    </g>
    <g transform="matrix(1,0,0,1,486.997,-427.172)">
        <g transform="matrix(12,0,0,12,89.7392,744.172)">
        </g>
        <text x="76.011px" y="744.172px" style="font-family:'GTWalsheimTrial-Md', 'GT Walsheim Trial';font-weight:500;font-size:12px;fill:white;">33</text>
    </g>
    <g transform="matrix(1,0,0,1,525.997,-427.172)">
        <g transform="matrix(12,0,0,12,89.7392,744.172)">
        </g>
        <text x="76.011px" y="744.172px" style="font-family:'GTWalsheimTrial-Md', 'GT Walsheim Trial';font-weight:500;font-size:12px;fill:white;">36</text>
    </g>
    <g transform="matrix(1,0,0,1,406.997,-427.172)">
        <g transform="matrix(12,0,0,12,89.1872,744.172)">
        </g>
        <text x="76.011px" y="744.172px" style="font-family:'GTWalsheimTrial-Md', 'GT Walsheim Trial';font-weight:500;font-size:12px;fill:white;">2<tspan x="82.863px " y="744.172px ">7</tspan></text>
    </g>
    <g transform="matrix(1,0,0,1,366.997,-427.172)">
        <g transform="matrix(12,0,0,12,89.9312,744.172)">
        </g>
        <text x="76.011px" y="744.172px" style="font-family:'GTWalsheimTrial-Md', 'GT Walsheim Trial';font-weight:500;font-size:12px;fill:white;">24</text>
    </g>
    <g transform="matrix(1,0,0,1,326.997,-427.172)">
        <g transform="matrix(12,0,0,12,87.7472,744.172)">
        </g>
        <text x="76.011px" y="744.172px" style="font-family:'GTWalsheimTrial-Md', 'GT Walsheim Trial';font-weight:500;font-size:12px;fill:white;">21</text>
    </g>
    <g transform="matrix(1,0,0,1,286.997,-427.172)">
        <g transform="matrix(12,0,0,12,87.8672,744.172)">
        </g>
        <text x="76.011px" y="744.172px" style="font-family:'GTWalsheimTrial-Md', 'GT Walsheim Trial';font-weight:500;font-size:12px;fill:white;">18</text>
    </g>
    <g transform="matrix(1,0,0,1,246.997,-427.172)">
        <g transform="matrix(12,0,0,12,87.7952,744.172)">
        </g>
        <text x="76.011px" y="744.172px" style="font-family:'GTWalsheimTrial-Md', 'GT Walsheim Trial';font-weight:500;font-size:12px;fill:white;">15</text>
    </g>
    <g transform="matrix(1,0,0,1,239.159,-398.19)">
        <g transform="matrix(12,0,0,12,186.507,744.172)">
        </g>
        <text x="76.011px" y="744.172px" style="font-family:'GTWalsheimTrial-Md', 'GT Walsheim Trial';font-weight:500;font-size:12px;fill:white;">Mon<tspan x="99.183px " y="744.172px ">t</tspan>hs sinc<tspan x="140.499px " y="744.172px ">e</tspan> launch</text>
    </g>
    <g transform="matrix(1,0,0,1,206.997,-427.172)">
        <g transform="matrix(12,0,0,12,87.7472,744.172)">
        </g>
        <text x="76.011px" y="744.172px" style="font-family:'GTWalsheimTrial-Md', 'GT Walsheim Trial';font-weight:500;font-size:12px;fill:white;">12</text>
    </g>
    <g transform="matrix(1,0,0,1,166.997,-427.172)">
        <g transform="matrix(12,0,0,12,82.8152,744.172)">
        </g>
        <text x="76.011px" y="744.172px" style="font-family:'GTWalsheimTrial-Md', 'GT Walsheim Trial';font-weight:500;font-size:12px;fill:white;">9</text>
    </g>
    <g transform="matrix(1,0,0,1,86.997,-427.172)">
        <g transform="matrix(12,0,0,12,82.8752,744.172)">
        </g>
        <text x="76.011px" y="744.172px" style="font-family:'GTWalsheimTrial-Md', 'GT Walsheim Trial';font-weight:500;font-size:12px;fill:white;">3</text>
    </g>
    <g transform="matrix(1,0,0,1,126.997,-427.172)">
        <g transform="matrix(12,0,0,12,82.8752,744.172)">
        </g>
        <text x="76.011px" y="744.172px" style="font-family:'GTWalsheimTrial-Md', 'GT Walsheim Trial';font-weight:500;font-size:12px;fill:white;">6</text>
    </g>
</svg>
