<?xml version="1.0" encoding="UTF-8" standalone="no"?>
<!DOCTYPE svg PUBLIC "-//W3C//DTD SVG 1.1//EN" "http://www.w3.org/Graphics/SVG/1.1/DTD/svg11.dtd">
<svg width="100%" height="100%" viewBox="0 0 1400 800" version="1.1" xmlns="http://www.w3.org/2000/svg" xmlns:xlink="http://www.w3.org/1999/xlink" xml:space="preserve" xmlns:serif="http://www.serif.com/" style="fill-rule:evenodd;clip-rule:evenodd;stroke-linecap:round;stroke-linejoin:round;stroke-miterlimit:1.5;">
    <g id="Artboard1" transform="matrix(1.02564,0,0,0.900901,54.359,26.1261)">
        <rect x="-53" y="-29" width="1365" height="888" style="fill:rgb(6,0,15);"/>
        <g transform="matrix(0.996684,0,0,1.05258,-14.587,12.7539)">
            <g transform="matrix(1.47715,0,0,1.59237,391.201,-156.941)">
                <g id="unallocated" transform="matrix(7.44466e-17,-1.21581,1.21581,7.44466e-17,113.929,759.907)">
                    <path d="M178.412,176.021C178.826,174.612 179.793,173.43 181.093,172.745C182.392,172.06 183.914,171.929 185.311,172.383C197.189,176.235 225.942,185.578 237.598,189.365C240.367,190.265 241.939,193.184 241.165,195.992C238.929,204.303 237.8,212.879 237.8,221.5C237.8,275.974 282.026,320.2 336.5,320.2C343.046,320.2 349.572,319.549 355.981,318.258C358.824,317.668 361.63,319.416 362.353,322.23C365.41,334.099 372.928,363.377 376.033,375.472C376.399,376.897 376.173,378.41 375.406,379.666C374.639,380.922 373.396,381.814 371.96,382.139C360.32,384.702 348.43,386 336.5,386C245.71,386 172,312.29 172,221.5C172,206.106 174.161,190.798 178.412,176.021Z" style="fill:rgb(235,235,235);stroke:rgb(12,12,12);stroke-width:4.09px;"/>
                </g>
                <g id="argus-foundation-endowment" transform="matrix(7.44466e-17,-1.21581,1.21581,7.44466e-17,113.929,759.907)">
                    <path d="M382.81,379.347C381.398,379.752 379.882,379.569 378.607,378.839C377.332,378.109 376.406,376.894 376.041,375.471C372.928,363.379 365.41,334.096 362.362,322.225C361.638,319.405 363.26,316.514 366.045,315.662C392.709,307.311 414.589,288.021 426.228,262.618C427.419,259.968 430.484,258.724 433.185,259.794C444.585,264.294 472.694,275.423 484.304,280.02C485.672,280.561 486.763,281.633 487.328,282.992C487.894,284.35 487.885,285.879 487.305,287.232C467.836,331.887 429.556,365.636 382.81,379.347Z" style="fill:rgb(255,143,138);stroke:rgb(12,12,12);stroke-width:4.09px;"/>
                </g>
                <g id="genesis-presale" transform="matrix(7.44466e-17,-1.21581,1.21581,7.44466e-17,113.929,759.907)">
                    <path d="M491.421,276.815C490.918,278.196 489.879,279.315 488.539,279.917C487.199,280.519 485.672,280.554 484.306,280.013C472.694,275.423 444.584,264.294 433.19,259.782C430.482,258.71 429.097,255.697 430.045,252.944C432.246,246.433 433.749,239.707 434.542,232.879C434.855,229.991 437.386,227.859 440.286,228.042C452.518,228.799 482.691,230.698 495.153,231.482C496.622,231.574 497.99,232.256 498.947,233.373C499.905,234.49 500.369,235.947 500.236,237.412C498.922,250.858 495.964,264.092 491.421,276.815Z" style="fill:rgb(85,99,174);stroke:rgb(12,12,12);stroke-width:4.09px;"/>
                </g>
                <g id="beta-testers-airdrop" transform="matrix(7.44466e-17,-1.21581,1.21581,7.44466e-17,113.929,759.907)">
                    <path d="M500.919,226.668C500.876,228.023 500.286,229.302 499.284,230.215C498.281,231.127 496.952,231.594 495.599,231.509C482.647,230.695 448.66,228.556 438.149,227.895C436.424,227.786 435.097,226.328 435.151,224.6C435.152,224.57 435.153,224.54 435.154,224.51C435.205,222.834 436.579,221.501 438.257,221.501C448.68,221.5 482.898,221.5 495.913,221.5C497.269,221.5 498.567,222.05 499.51,223.023C500.454,223.997 500.963,225.311 500.92,226.666C500.919,226.667 500.919,226.667 500.919,226.668Z" style="fill:rgb(180,69,141);stroke:rgb(12,12,12);stroke-width:4.09px;"/>
                </g>
                <g id="public-presale" transform="matrix(7.44466e-17,-1.21581,1.21581,7.44466e-17,113.929,759.907)">
                    <path d="M500.906,215.892C500.95,217.363 500.396,218.789 499.371,219.844C498.346,220.9 496.937,221.495 495.466,221.495C482.981,221.5 452.76,221.5 440.5,221.5C437.594,221.5 435.199,219.218 435.059,216.316C432.37,164.215 389.271,122.8 336.5,122.8C295.485,122.8 258.944,148.133 244.369,186.09C243.35,188.812 240.369,190.248 237.605,189.35C225.945,185.579 197.186,176.234 185.311,172.376C183.912,171.921 182.756,170.92 182.106,169.601C181.457,168.281 181.368,166.755 181.861,165.369C205.396,100.51 267.106,57 336.5,57C425.474,57 497.95,127.638 500.906,215.892Z" style="fill:rgb(159,228,201);stroke:rgb(12,12,12);stroke-width:4.09px;"/>
                </g>
            </g>
            <g transform="matrix(0.978244,0,0,1.05455,0.726514,-4.24175)">
                <g>
                    <g transform="matrix(1,0,0,1,33.9784,556.277)">
                        <path d="M44.262,80.663L44.262,78.943L38.302,78.943L38.302,66.663L36.482,66.663L36.482,80.663L44.262,80.663Z" style="fill:white;fill-rule:nonzero;"/>
                        <rect x="46.682" y="66.663" width="1.82" height="14" style="fill:white;fill-rule:nonzero;"/>
                        <path d="M65.302,73.663C65.302,69.723 62.602,66.343 58.082,66.343C53.562,66.343 50.862,69.723 50.862,73.663C50.862,77.603 53.562,80.983 58.082,80.983L58.122,80.983L60.122,83.583L61.722,82.763L60.142,80.723C63.402,79.863 65.302,76.963 65.302,73.663ZM58.082,79.343C54.682,79.343 52.742,76.723 52.762,73.663C52.742,70.603 54.682,67.983 58.082,67.983C61.462,67.983 63.402,70.603 63.382,73.663C63.402,76.723 61.462,79.343 58.082,79.343Z" style="fill:white;fill-rule:nonzero;"/>
                        <path d="M72.382,80.983C75.482,80.983 77.482,79.263 77.482,76.063L77.482,66.663L75.662,66.663L75.662,75.963C75.662,78.183 74.382,79.343 72.382,79.343C70.402,79.343 69.122,78.183 69.122,75.963L69.122,66.663L67.302,66.663L67.302,76.063C67.302,79.263 69.302,80.983 72.382,80.983Z" style="fill:white;fill-rule:nonzero;"/>
                        <rect x="80.342" y="66.663" width="1.82" height="14" style="fill:white;fill-rule:nonzero;"/>
                        <path d="M89.822,80.663C94.462,80.663 96.942,77.283 96.942,73.663C96.942,70.043 94.462,66.663 89.822,66.663L85.362,66.663L85.362,80.663L89.822,80.663ZM87.182,68.303L89.682,68.303C93.342,68.303 95.062,70.943 95.062,73.663C95.062,76.383 93.342,79.023 89.682,79.023L87.182,79.023L87.182,68.303Z" style="fill:white;fill-rule:nonzero;"/>
                        <rect x="99.182" y="66.663" width="1.82" height="14" style="fill:white;fill-rule:nonzero;"/>
                        <path d="M108.722,80.663L108.722,68.383L112.902,68.383L112.902,66.663L102.722,66.663L102.722,68.383L106.902,68.383L106.902,80.663L108.722,80.663Z" style="fill:white;fill-rule:nonzero;"/>
                        <path d="M119.882,73.223L115.782,66.663L113.662,66.663L118.962,75.103L116.142,80.663L118.142,80.663L125.182,66.663L123.202,66.663L119.882,73.223Z" style="fill:white;fill-rule:nonzero;"/>
                        <path d="M134.619,84.872C133.649,83.648 132.829,82.215 132.158,80.575C131.488,78.934 131.153,77.235 131.153,75.477C131.153,73.928 131.403,72.443 131.904,71.024C132.49,69.377 133.395,67.736 134.619,66.102L135.879,66.102C135.091,67.456 134.57,68.423 134.317,69.002C133.919,69.901 133.607,70.838 133.379,71.815C133.099,73.032 132.959,74.256 132.959,75.487C132.959,78.618 133.932,81.747 135.879,84.872L134.619,84.872Z" style="fill:white;fill-rule:nonzero;"/>
                        <path d="M142.242,80.883C144.962,80.883 146.862,79.243 146.862,76.863C146.862,75.123 145.702,73.763 144.062,73.543C145.682,73.123 146.562,72.063 146.562,70.523C146.562,68.303 144.802,66.843 142.202,66.843C139.462,66.843 137.702,68.443 137.702,70.923L139.482,70.923C139.482,69.343 140.542,68.363 142.202,68.363C143.682,68.363 144.702,69.243 144.702,70.523C144.702,72.003 143.802,72.803 142.162,72.803L141.142,72.803L141.142,74.363L142.142,74.363C144.002,74.363 145.022,75.263 145.022,76.863C145.022,78.343 143.902,79.343 142.242,79.343C140.362,79.343 139.222,78.243 139.222,76.383L137.382,76.383C137.382,79.203 139.202,80.883 142.242,80.883Z" style="fill:white;fill-rule:nonzero;"/>
                        <path d="M156.442,74.623L156.442,70.603L154.642,70.603L154.642,74.623L150.962,74.623L150.962,67.063L149.162,67.063L149.162,76.263L154.642,76.263L154.642,80.663L156.442,80.663L156.442,76.263L158.562,76.263L158.562,74.623L156.442,74.623Z" style="fill:white;fill-rule:nonzero;"/>
                        <path d="M160.504,69.784C160.504,68.762 160.761,67.892 161.275,67.176C161.79,66.46 162.535,66.102 163.512,66.102C164.41,66.102 165.152,66.424 165.738,67.069C166.331,67.707 166.627,68.648 166.627,69.891C166.627,71.102 166.327,72.036 165.728,72.694C165.136,73.345 164.404,73.67 163.531,73.67C162.665,73.67 161.943,73.348 161.363,72.704C160.79,72.059 160.504,71.086 160.504,69.784ZM163.56,67.313C163.124,67.313 162.76,67.502 162.467,67.879C162.18,68.257 162.037,68.95 162.037,69.959C162.037,70.877 162.184,71.525 162.476,71.903C162.769,72.274 163.131,72.459 163.56,72.459C164.003,72.459 164.368,72.271 164.654,71.893C164.947,71.515 165.094,70.825 165.094,69.823C165.094,68.898 164.947,68.25 164.654,67.879C164.361,67.502 163.997,67.313 163.56,67.313ZM163.57,81.19L171.402,66.102L172.828,66.102L165.025,81.19L163.57,81.19ZM169.762,77.303C169.762,76.275 170.019,75.405 170.533,74.696C171.047,73.98 171.796,73.622 172.779,73.622C173.678,73.622 174.42,73.944 175.006,74.588C175.598,75.226 175.894,76.167 175.894,77.411C175.894,78.622 175.595,79.556 174.996,80.213C174.404,80.864 173.668,81.19 172.789,81.19C171.923,81.19 171.2,80.868 170.621,80.223C170.048,79.572 169.762,78.599 169.762,77.303ZM172.828,74.833C172.385,74.833 172.018,75.021 171.725,75.399C171.438,75.777 171.295,76.47 171.295,77.479C171.295,78.39 171.441,79.035 171.734,79.413C172.027,79.79 172.389,79.979 172.818,79.979C173.268,79.979 173.635,79.79 173.922,79.413C174.215,79.035 174.361,78.345 174.361,77.342C174.361,76.418 174.215,75.77 173.922,75.399C173.629,75.021 173.264,74.833 172.828,74.833Z" style="fill:white;fill-rule:nonzero;"/>
                        <path d="M179.596,84.872L178.336,84.872C180.282,81.747 181.256,78.618 181.256,75.487C181.256,74.263 181.116,73.049 180.836,71.844C180.615,70.868 180.305,69.93 179.908,69.032C179.654,68.446 179.13,67.469 178.336,66.102L179.596,66.102C180.82,67.736 181.725,69.377 182.31,71.024C182.812,72.443 183.062,73.928 183.062,75.477C183.062,77.235 182.724,78.934 182.047,80.575C181.376,82.215 180.559,83.648 179.596,84.872Z" style="fill:white;fill-rule:nonzero;"/>
                    </g>
                    <g transform="matrix(0.5,0,0,0.5,20,540)">
                        <path d="M80,164L80,196C80,198.208 78.208,200 76,200L44,200C41.792,200 40,198.208 40,196L40,164C40,161.792 41.792,160 44,160L76,160C78.208,160 80,161.792 80,164Z" style="fill:rgb(235,235,235);"/>
                    </g>
                </g>
                <g>
                    <g transform="matrix(1,0,0,1,33.9784,526.277)">
                        <path d="M46.322,80.663L41.582,66.663L39.982,66.663L35.242,80.663L37.202,80.663L37.862,78.523L43.682,78.523L44.362,80.663L46.322,80.663ZM40.762,69.183L43.182,76.883L38.382,76.883L40.762,69.183Z" style="fill:white;fill-rule:nonzero;"/>
                        <path d="M58.002,71.503C58.002,68.683 56.042,66.663 53.302,66.663L48.282,66.663L48.282,80.663L50.102,80.663L50.102,76.323L53.022,76.323L55.722,80.663L57.802,80.663L54.962,76.063C56.802,75.423 58.002,73.703 58.002,71.503ZM53.202,68.303C54.922,68.303 56.182,69.643 56.182,71.503C56.182,73.343 54.922,74.683 53.202,74.683L50.102,74.683L50.102,68.303L53.202,68.303Z" style="fill:white;fill-rule:nonzero;"/>
                        <path d="M68.122,73.863L68.122,75.503L71.522,75.503C71.022,77.963 69.402,79.343 66.762,79.343C63.442,79.343 61.462,76.863 61.482,73.743C61.462,70.563 63.262,67.983 66.842,67.983C69.022,67.983 70.482,69.123 70.882,70.663L72.882,70.663C72.522,68.203 70.122,66.343 66.842,66.343C62.102,66.343 59.582,69.763 59.582,73.743C59.562,77.803 62.282,80.983 66.762,80.983C70.522,80.983 72.822,78.803 73.422,75.503L74.962,75.503L74.962,73.863L68.122,73.863Z" style="fill:white;fill-rule:nonzero;"/>
                        <path d="M81.722,80.983C84.822,80.983 86.822,79.263 86.822,76.063L86.822,66.663L85.002,66.663L85.002,75.963C85.002,78.183 83.722,79.343 81.722,79.343C79.742,79.343 78.462,78.183 78.462,75.963L78.462,66.663L76.642,66.663L76.642,76.063C76.642,79.263 78.642,80.983 81.722,80.983Z" style="fill:white;fill-rule:nonzero;"/>
                        <path d="M93.842,80.983C96.622,80.983 98.402,79.423 98.402,77.023C98.402,75.123 97.462,73.883 95.662,73.263L93.502,72.503C91.782,71.923 91.022,71.183 91.022,70.003C91.022,68.743 91.982,67.903 93.542,67.903C95.322,67.903 96.322,68.903 96.322,70.623L98.142,70.623C98.142,68.023 96.362,66.343 93.602,66.343C91.002,66.343 89.202,67.863 89.202,70.103C89.202,71.963 90.142,73.183 92.022,73.783L94.342,74.603C95.962,75.163 96.582,75.843 96.582,77.083C96.582,78.543 95.582,79.383 93.822,79.383C91.822,79.383 90.602,78.163 90.602,76.203L88.782,76.203C88.782,79.203 90.662,80.983 93.842,80.983Z" style="fill:white;fill-rule:nonzero;"/>
                        <path d="M107.702,80.663L107.702,75.003L113.842,75.003L113.842,73.363L107.702,73.363L107.702,68.303L113.842,68.303L113.842,66.663L105.882,66.663L105.882,80.663L107.702,80.663Z" style="fill:white;fill-rule:nonzero;"/>
                        <path d="M122.902,80.983C127.422,80.983 130.122,77.603 130.122,73.663C130.122,69.723 127.422,66.343 122.902,66.343C118.382,66.343 115.682,69.723 115.682,73.663C115.682,77.603 118.382,80.983 122.902,80.983ZM122.902,79.343C119.502,79.343 117.562,76.723 117.582,73.663C117.562,70.603 119.502,67.983 122.902,67.983C126.282,67.983 128.222,70.603 128.202,73.663C128.222,76.723 126.282,79.343 122.902,79.343Z" style="fill:white;fill-rule:nonzero;"/>
                        <path d="M137.202,80.983C140.302,80.983 142.302,79.263 142.302,76.063L142.302,66.663L140.482,66.663L140.482,75.963C140.482,78.183 139.202,79.343 137.202,79.343C135.222,79.343 133.942,78.183 133.942,75.963L133.942,66.663L132.122,66.663L132.122,76.063C132.122,79.263 134.122,80.983 137.202,80.983Z" style="fill:white;fill-rule:nonzero;"/>
                        <path d="M146.902,80.663L146.902,69.703L153.222,80.663L155.142,80.663L155.142,66.663L153.402,66.663L153.402,77.623L147.102,66.663L145.162,66.663L145.162,80.663L146.902,80.663Z" style="fill:white;fill-rule:nonzero;"/>
                        <path d="M162.802,80.663C167.442,80.663 169.922,77.283 169.922,73.663C169.922,70.043 167.442,66.663 162.802,66.663L158.342,66.663L158.342,80.663L162.802,80.663ZM160.162,68.303L162.662,68.303C166.322,68.303 168.042,70.943 168.042,73.663C168.042,76.383 166.322,79.023 162.662,79.023L160.162,79.023L160.162,68.303Z" style="fill:white;fill-rule:nonzero;"/>
                        <path d="M181.502,80.663L176.762,66.663L175.162,66.663L170.422,80.663L172.382,80.663L173.042,78.523L178.862,78.523L179.542,80.663L181.502,80.663ZM175.942,69.183L178.362,76.883L173.562,76.883L175.942,69.183Z" style="fill:white;fill-rule:nonzero;"/>
                        <path d="M186.642,80.663L186.642,68.383L190.822,68.383L190.822,66.663L180.642,66.663L180.642,68.383L184.822,68.383L184.822,80.663L186.642,80.663Z" style="fill:white;fill-rule:nonzero;"/>
                        <rect x="192.542" y="66.663" width="1.82" height="14" style="fill:white;fill-rule:nonzero;"/>
                        <path d="M203.942,80.983C208.462,80.983 211.162,77.603 211.162,73.663C211.162,69.723 208.462,66.343 203.942,66.343C199.422,66.343 196.722,69.723 196.722,73.663C196.722,77.603 199.422,80.983 203.942,80.983ZM203.942,79.343C200.542,79.343 198.602,76.723 198.622,73.663C198.602,70.603 200.542,67.983 203.942,67.983C207.322,67.983 209.262,70.603 209.242,73.663C209.262,76.723 207.322,79.343 203.942,79.343Z" style="fill:white;fill-rule:nonzero;"/>
                        <path d="M215.242,80.663L215.242,69.703L221.562,80.663L223.482,80.663L223.482,66.663L221.742,66.663L221.742,77.623L215.442,66.663L213.502,66.663L213.502,80.663L215.242,80.663Z" style="fill:white;fill-rule:nonzero;"/>
                        <path d="M239.702,80.663L239.702,79.023L233.562,79.023L233.562,74.523L239.702,74.523L239.702,72.883L233.562,72.883L233.562,68.303L239.702,68.303L239.702,66.663L231.742,66.663L231.742,80.663L239.702,80.663Z" style="fill:white;fill-rule:nonzero;"/>
                        <path d="M244.382,80.663L244.382,69.703L250.702,80.663L252.622,80.663L252.622,66.663L250.882,66.663L250.882,77.623L244.582,66.663L242.642,66.663L242.642,80.663L244.382,80.663Z" style="fill:white;fill-rule:nonzero;"/>
                        <path d="M260.282,80.663C264.922,80.663 267.402,77.283 267.402,73.663C267.402,70.043 264.922,66.663 260.282,66.663L255.822,66.663L255.822,80.663L260.282,80.663ZM257.642,68.303L260.142,68.303C263.802,68.303 265.522,70.943 265.522,73.663C265.522,76.383 263.802,79.023 260.142,79.023L257.642,79.023L257.642,68.303Z" style="fill:white;fill-rule:nonzero;"/>
                        <path d="M276.022,80.983C280.542,80.983 283.242,77.603 283.242,73.663C283.242,69.723 280.542,66.343 276.022,66.343C271.502,66.343 268.802,69.723 268.802,73.663C268.802,77.603 271.502,80.983 276.022,80.983ZM276.022,79.343C272.622,79.343 270.682,76.723 270.702,73.663C270.682,70.603 272.622,67.983 276.022,67.983C279.402,67.983 281.342,70.603 281.322,73.663C281.342,76.723 279.402,79.343 276.022,79.343Z" style="fill:white;fill-rule:nonzero;"/>
                        <path d="M289.462,80.663L292.862,69.823L296.262,80.663L297.602,80.663L302.382,66.663L300.482,66.663L296.882,77.663L293.542,66.663L292.182,66.663L288.842,77.663L285.242,66.663L283.342,66.663L288.122,80.663L289.462,80.663Z" style="fill:white;fill-rule:nonzero;"/>
                        <path d="M305.782,80.663L305.782,70.383L309.902,80.663L311.302,80.663L315.402,70.443L315.402,80.663L317.142,80.663L317.142,66.663L315.402,66.663L310.602,78.083L305.802,66.663L304.042,66.663L304.042,80.663L305.782,80.663Z" style="fill:white;fill-rule:nonzero;"/>
                        <path d="M328.302,80.663L328.302,79.023L322.162,79.023L322.162,74.523L328.302,74.523L328.302,72.883L322.162,72.883L322.162,68.303L328.302,68.303L328.302,66.663L320.342,66.663L320.342,80.663L328.302,80.663Z" style="fill:white;fill-rule:nonzero;"/>
                        <path d="M332.982,80.663L332.982,69.703L339.302,80.663L341.222,80.663L341.222,66.663L339.482,66.663L339.482,77.623L333.182,66.663L331.242,66.663L331.242,80.663L332.982,80.663Z" style="fill:white;fill-rule:nonzero;"/>
                        <path d="M348.942,80.663L348.942,68.383L353.122,68.383L353.122,66.663L342.942,66.663L342.942,68.383L347.122,68.383L347.122,80.663L348.942,80.663Z" style="fill:white;fill-rule:nonzero;"/>
                        <path d="M362.979,84.872C362.009,83.648 361.189,82.215 360.518,80.575C359.848,78.934 359.513,77.235 359.513,75.477C359.513,73.928 359.763,72.443 360.264,71.024C360.85,69.377 361.755,67.736 362.979,66.102L364.239,66.102C363.451,67.456 362.93,68.423 362.677,69.002C362.279,69.901 361.967,70.838 361.739,71.815C361.459,73.032 361.319,74.256 361.319,75.487C361.319,78.618 362.292,81.747 364.239,84.872L362.979,84.872Z" style="fill:white;fill-rule:nonzero;"/>
                        <path d="M370.322,80.663L370.322,67.063L368.662,67.063C368.662,68.763 368.122,69.383 365.682,69.383L365.682,70.923L368.522,70.923L368.522,80.663L370.322,80.663Z" style="fill:white;fill-rule:nonzero;"/>
                        <path d="M378.382,80.883C381.302,80.883 383.162,78.803 383.162,76.003C383.162,73.243 381.522,71.463 378.902,71.463C377.562,71.463 376.422,71.923 375.722,72.883L375.722,68.683L382.342,68.683L382.342,67.063L374.062,67.063L374.062,74.683L375.742,74.683C376.282,73.463 377.162,72.943 378.662,72.943C380.362,72.943 381.422,74.143 381.422,76.063C381.422,78.023 380.282,79.263 378.422,79.263C376.862,79.263 375.722,78.463 375.642,77.143L373.802,77.143C373.942,79.343 375.822,80.883 378.382,80.883Z" style="fill:white;fill-rule:nonzero;"/>
                        <path d="M385.224,69.784C385.224,68.762 385.481,67.892 385.995,67.176C386.51,66.46 387.255,66.102 388.232,66.102C389.13,66.102 389.872,66.424 390.458,67.069C391.051,67.707 391.347,68.648 391.347,69.891C391.347,71.102 391.047,72.036 390.448,72.694C389.856,73.345 389.124,73.67 388.251,73.67C387.385,73.67 386.663,73.348 386.083,72.704C385.51,72.059 385.224,71.086 385.224,69.784ZM388.28,67.313C387.844,67.313 387.48,67.502 387.187,67.879C386.9,68.257 386.757,68.95 386.757,69.959C386.757,70.877 386.904,71.525 387.196,71.903C387.489,72.274 387.851,72.459 388.28,72.459C388.723,72.459 389.088,72.271 389.374,71.893C389.667,71.515 389.814,70.825 389.814,69.823C389.814,68.898 389.667,68.25 389.374,67.879C389.081,67.502 388.717,67.313 388.28,67.313ZM388.29,81.19L396.122,66.102L397.548,66.102L389.745,81.19L388.29,81.19ZM394.482,77.303C394.482,76.275 394.739,75.405 395.253,74.696C395.767,73.98 396.516,73.622 397.499,73.622C398.398,73.622 399.14,73.944 399.726,74.588C400.318,75.226 400.614,76.167 400.614,77.411C400.614,78.622 400.315,79.556 399.716,80.213C399.124,80.864 398.388,81.19 397.509,81.19C396.643,81.19 395.92,80.868 395.341,80.223C394.768,79.572 394.482,78.599 394.482,77.303ZM397.548,74.833C397.105,74.833 396.738,75.021 396.445,75.399C396.158,75.777 396.015,76.47 396.015,77.479C396.015,78.39 396.161,79.035 396.454,79.413C396.747,79.79 397.109,79.979 397.538,79.979C397.988,79.979 398.355,79.79 398.642,79.413C398.935,79.035 399.081,78.345 399.081,77.342C399.081,76.418 398.935,75.77 398.642,75.399C398.349,75.021 397.984,74.833 397.548,74.833Z" style="fill:white;fill-rule:nonzero;"/>
                        <path d="M404.316,84.872L403.056,84.872C405.002,81.747 405.976,78.618 405.976,75.487C405.976,74.263 405.836,73.049 405.556,71.844C405.335,70.868 405.025,69.93 404.628,69.032C404.374,68.446 403.85,67.469 403.056,66.102L404.316,66.102C405.54,67.736 406.445,69.377 407.03,71.024C407.532,72.443 407.782,73.928 407.782,75.477C407.782,77.235 407.444,78.934 406.767,80.575C406.096,82.215 405.279,83.648 404.316,84.872Z" style="fill:white;fill-rule:nonzero;"/>
                    </g>
                    <g transform="matrix(0.5,0,0,0.5,20,510)">
                        <path d="M80,164L80,196C80,198.208 78.208,200 76,200L44,200C41.792,200 40,198.208 40,196L40,164C40,161.792 41.792,160 44,160L76,160C78.208,160 80,161.792 80,164Z" style="fill:rgb(255,143,138);"/>
                    </g>
                </g>
                <g>
                    <g transform="matrix(1,0,0,1,33.9784,496.277)">
                        <path d="M44.182,73.863L44.182,75.503L47.582,75.503C47.082,77.963 45.462,79.343 42.822,79.343C39.502,79.343 37.522,76.863 37.542,73.743C37.522,70.563 39.322,67.983 42.902,67.983C45.082,67.983 46.542,69.123 46.942,70.663L48.942,70.663C48.582,68.203 46.182,66.343 42.902,66.343C38.162,66.343 35.642,69.763 35.642,73.743C35.622,77.803 38.342,80.983 42.822,80.983C46.582,80.983 48.882,78.803 49.482,75.503L51.022,75.503L51.022,73.863L44.182,73.863Z" style="fill:white;fill-rule:nonzero;"/>
                        <path d="M61.002,80.663L61.002,79.023L54.862,79.023L54.862,74.523L61.002,74.523L61.002,72.883L54.862,72.883L54.862,68.303L61.002,68.303L61.002,66.663L53.042,66.663L53.042,80.663L61.002,80.663Z" style="fill:white;fill-rule:nonzero;"/>
                        <path d="M65.682,80.663L65.682,69.703L72.002,80.663L73.922,80.663L73.922,66.663L72.182,66.663L72.182,77.623L65.882,66.663L63.942,66.663L63.942,80.663L65.682,80.663Z" style="fill:white;fill-rule:nonzero;"/>
                        <path d="M85.082,80.663L85.082,79.023L78.942,79.023L78.942,74.523L85.082,74.523L85.082,72.883L78.942,72.883L78.942,68.303L85.082,68.303L85.082,66.663L77.122,66.663L77.122,80.663L85.082,80.663Z" style="fill:white;fill-rule:nonzero;"/>
                        <path d="M91.762,80.983C94.542,80.983 96.322,79.423 96.322,77.023C96.322,75.123 95.382,73.883 93.582,73.263L91.422,72.503C89.702,71.923 88.942,71.183 88.942,70.003C88.942,68.743 89.902,67.903 91.462,67.903C93.242,67.903 94.242,68.903 94.242,70.623L96.062,70.623C96.062,68.023 94.282,66.343 91.522,66.343C88.922,66.343 87.122,67.863 87.122,70.103C87.122,71.963 88.062,73.183 89.942,73.783L92.262,74.603C93.882,75.163 94.502,75.843 94.502,77.083C94.502,78.543 93.502,79.383 91.742,79.383C89.742,79.383 88.522,78.163 88.522,76.203L86.702,76.203C86.702,79.203 88.582,80.983 91.762,80.983Z" style="fill:white;fill-rule:nonzero;"/>
                        <rect x="98.742" y="66.663" width="1.82" height="14" style="fill:white;fill-rule:nonzero;"/>
                        <path d="M107.922,80.983C110.702,80.983 112.482,79.423 112.482,77.023C112.482,75.123 111.542,73.883 109.742,73.263L107.582,72.503C105.862,71.923 105.102,71.183 105.102,70.003C105.102,68.743 106.062,67.903 107.622,67.903C109.402,67.903 110.402,68.903 110.402,70.623L112.222,70.623C112.222,68.023 110.442,66.343 107.682,66.343C105.082,66.343 103.282,67.863 103.282,70.103C103.282,71.963 104.222,73.183 106.102,73.783L108.422,74.603C110.042,75.163 110.662,75.843 110.662,77.083C110.662,78.543 109.662,79.383 107.902,79.383C105.902,79.383 104.682,78.163 104.682,76.203L102.862,76.203C102.862,79.203 104.742,80.983 107.922,80.983Z" style="fill:white;fill-rule:nonzero;"/>
                        <path d="M121.782,80.663L121.782,75.003L127.922,75.003L127.922,73.363L121.782,73.363L121.782,68.303L127.922,68.303L127.922,66.663L119.962,66.663L119.962,80.663L121.782,80.663Z" style="fill:white;fill-rule:nonzero;"/>
                        <path d="M136.982,80.983C141.502,80.983 144.202,77.603 144.202,73.663C144.202,69.723 141.502,66.343 136.982,66.343C132.462,66.343 129.762,69.723 129.762,73.663C129.762,77.603 132.462,80.983 136.982,80.983ZM136.982,79.343C133.582,79.343 131.642,76.723 131.662,73.663C131.642,70.603 133.582,67.983 136.982,67.983C140.362,67.983 142.302,70.603 142.282,73.663C142.302,76.723 140.362,79.343 136.982,79.343Z" style="fill:white;fill-rule:nonzero;"/>
                        <path d="M151.282,80.983C154.382,80.983 156.382,79.263 156.382,76.063L156.382,66.663L154.562,66.663L154.562,75.963C154.562,78.183 153.282,79.343 151.282,79.343C149.302,79.343 148.022,78.183 148.022,75.963L148.022,66.663L146.202,66.663L146.202,76.063C146.202,79.263 148.202,80.983 151.282,80.983Z" style="fill:white;fill-rule:nonzero;"/>
                        <path d="M160.982,80.663L160.982,69.703L167.302,80.663L169.222,80.663L169.222,66.663L167.482,66.663L167.482,77.623L161.182,66.663L159.242,66.663L159.242,80.663L160.982,80.663Z" style="fill:white;fill-rule:nonzero;"/>
                        <path d="M176.882,80.663C181.522,80.663 184.002,77.283 184.002,73.663C184.002,70.043 181.522,66.663 176.882,66.663L172.422,66.663L172.422,80.663L176.882,80.663ZM174.242,68.303L176.742,68.303C180.402,68.303 182.122,70.943 182.122,73.663C182.122,76.383 180.402,79.023 176.742,79.023L174.242,79.023L174.242,68.303Z" style="fill:white;fill-rule:nonzero;"/>
                        <path d="M194.202,80.663L194.202,79.023L188.062,79.023L188.062,74.523L194.202,74.523L194.202,72.883L188.062,72.883L188.062,68.303L194.202,68.303L194.202,66.663L186.242,66.663L186.242,80.663L194.202,80.663Z" style="fill:white;fill-rule:nonzero;"/>
                        <path d="M206.862,71.503C206.862,68.683 204.902,66.663 202.162,66.663L197.142,66.663L197.142,80.663L198.962,80.663L198.962,76.323L201.882,76.323L204.582,80.663L206.662,80.663L203.822,76.063C205.662,75.423 206.862,73.703 206.862,71.503ZM202.062,68.303C203.782,68.303 205.042,69.643 205.042,71.503C205.042,73.343 203.782,74.683 202.062,74.683L198.962,74.683L198.962,68.303L202.062,68.303Z" style="fill:white;fill-rule:nonzero;"/>
                        <path d="M213.222,80.983C216.002,80.983 217.782,79.423 217.782,77.023C217.782,75.123 216.842,73.883 215.042,73.263L212.882,72.503C211.162,71.923 210.402,71.183 210.402,70.003C210.402,68.743 211.362,67.903 212.922,67.903C214.702,67.903 215.702,68.903 215.702,70.623L217.522,70.623C217.522,68.023 215.742,66.343 212.982,66.343C210.382,66.343 208.582,67.863 208.582,70.103C208.582,71.963 209.522,73.183 211.402,73.783L213.722,74.603C215.342,75.163 215.962,75.843 215.962,77.083C215.962,78.543 214.962,79.383 213.202,79.383C211.202,79.383 209.982,78.163 209.982,76.203L208.162,76.203C208.162,79.203 210.042,80.983 213.222,80.983Z" style="fill:white;fill-rule:nonzero;"/>
                        <path d="M225.262,66.663L225.262,80.663L227.082,80.663L227.082,76.323L230.282,76.323C233.022,76.323 234.982,74.303 234.982,71.503C234.982,68.683 233.022,66.663 230.282,66.663L225.262,66.663ZM227.082,74.683L227.082,68.303L230.182,68.303C231.902,68.303 233.162,69.643 233.162,71.503C233.162,73.343 231.902,74.683 230.182,74.683L227.082,74.683Z" style="fill:white;fill-rule:nonzero;"/>
                        <path d="M246.582,71.503C246.582,68.683 244.622,66.663 241.882,66.663L236.862,66.663L236.862,80.663L238.682,80.663L238.682,76.323L241.602,76.323L244.302,80.663L246.382,80.663L243.542,76.063C245.382,75.423 246.582,73.703 246.582,71.503ZM241.782,68.303C243.502,68.303 244.762,69.643 244.762,71.503C244.762,73.343 243.502,74.683 241.782,74.683L238.682,74.683L238.682,68.303L241.782,68.303Z" style="fill:white;fill-rule:nonzero;"/>
                        <path d="M256.942,80.663L256.942,79.023L250.802,79.023L250.802,74.523L256.942,74.523L256.942,72.883L250.802,72.883L250.802,68.303L256.942,68.303L256.942,66.663L248.982,66.663L248.982,80.663L256.942,80.663Z" style="fill:white;fill-rule:nonzero;"/>
                        <path d="M263.622,80.983C266.402,80.983 268.182,79.423 268.182,77.023C268.182,75.123 267.242,73.883 265.442,73.263L263.282,72.503C261.562,71.923 260.802,71.183 260.802,70.003C260.802,68.743 261.762,67.903 263.322,67.903C265.102,67.903 266.102,68.903 266.102,70.623L267.922,70.623C267.922,68.023 266.142,66.343 263.382,66.343C260.782,66.343 258.982,67.863 258.982,70.103C258.982,71.963 259.922,73.183 261.802,73.783L264.122,74.603C265.742,75.163 266.362,75.843 266.362,77.083C266.362,78.543 265.362,79.383 263.602,79.383C261.602,79.383 260.382,78.163 260.382,76.203L258.562,76.203C258.562,79.203 260.442,80.983 263.622,80.983Z" style="fill:white;fill-rule:nonzero;"/>
                        <path d="M280.182,80.663L275.442,66.663L273.842,66.663L269.102,80.663L271.062,80.663L271.722,78.523L277.542,78.523L278.222,80.663L280.182,80.663ZM274.622,69.183L277.042,76.883L272.242,76.883L274.622,69.183Z" style="fill:white;fill-rule:nonzero;"/>
                        <path d="M289.922,80.663L289.922,78.943L283.962,78.943L283.962,66.663L282.142,66.663L282.142,80.663L289.922,80.663Z" style="fill:white;fill-rule:nonzero;"/>
                        <path d="M300.302,80.663L300.302,79.023L294.162,79.023L294.162,74.523L300.302,74.523L300.302,72.883L294.162,72.883L294.162,68.303L300.302,68.303L300.302,66.663L292.342,66.663L292.342,80.663L300.302,80.663Z" style="fill:white;fill-rule:nonzero;"/>
                        <path d="M311.379,84.872C310.409,83.648 309.589,82.215 308.918,80.575C308.248,78.934 307.913,77.235 307.913,75.477C307.913,73.928 308.163,72.443 308.664,71.024C309.25,69.377 310.155,67.736 311.379,66.102L312.639,66.102C311.851,67.456 311.33,68.423 311.077,69.002C310.679,69.901 310.367,70.838 310.139,71.815C309.859,73.032 309.719,74.256 309.719,75.487C309.719,78.618 310.692,81.747 312.639,84.872L311.379,84.872Z" style="fill:white;fill-rule:nonzero;"/>
                        <path d="M319.202,80.883C322.122,80.883 323.982,78.803 323.982,76.003C323.982,73.243 322.342,71.463 319.722,71.463C318.382,71.463 317.242,71.923 316.542,72.883L316.542,68.683L323.162,68.683L323.162,67.063L314.882,67.063L314.882,74.683L316.562,74.683C317.102,73.463 317.982,72.943 319.482,72.943C321.182,72.943 322.242,74.143 322.242,76.063C322.242,78.023 321.102,79.263 319.242,79.263C317.682,79.263 316.542,78.463 316.462,77.143L314.622,77.143C314.762,79.343 316.642,80.883 319.202,80.883Z" style="fill:white;fill-rule:nonzero;"/>
                        <path d="M326.044,69.784C326.044,68.762 326.301,67.892 326.815,67.176C327.33,66.46 328.075,66.102 329.052,66.102C329.95,66.102 330.692,66.424 331.278,67.069C331.871,67.707 332.167,68.648 332.167,69.891C332.167,71.102 331.867,72.036 331.268,72.694C330.676,73.345 329.944,73.67 329.071,73.67C328.205,73.67 327.483,73.348 326.903,72.704C326.33,72.059 326.044,71.086 326.044,69.784ZM329.1,67.313C328.664,67.313 328.3,67.502 328.007,67.879C327.72,68.257 327.577,68.95 327.577,69.959C327.577,70.877 327.724,71.525 328.016,71.903C328.309,72.274 328.671,72.459 329.1,72.459C329.543,72.459 329.908,72.271 330.194,71.893C330.487,71.515 330.634,70.825 330.634,69.823C330.634,68.898 330.487,68.25 330.194,67.879C329.901,67.502 329.537,67.313 329.1,67.313ZM329.11,81.19L336.942,66.102L338.368,66.102L330.565,81.19L329.11,81.19ZM335.302,77.303C335.302,76.275 335.559,75.405 336.073,74.696C336.587,73.98 337.336,73.622 338.319,73.622C339.218,73.622 339.96,73.944 340.546,74.588C341.138,75.226 341.434,76.167 341.434,77.411C341.434,78.622 341.135,79.556 340.536,80.213C339.944,80.864 339.208,81.19 338.329,81.19C337.463,81.19 336.74,80.868 336.161,80.223C335.588,79.572 335.302,78.599 335.302,77.303ZM338.368,74.833C337.925,74.833 337.558,75.021 337.265,75.399C336.978,75.777 336.835,76.47 336.835,77.479C336.835,78.39 336.981,79.035 337.274,79.413C337.567,79.79 337.929,79.979 338.358,79.979C338.808,79.979 339.175,79.79 339.462,79.413C339.755,79.035 339.901,78.345 339.901,77.342C339.901,76.418 339.755,75.77 339.462,75.399C339.169,75.021 338.804,74.833 338.368,74.833Z" style="fill:white;fill-rule:nonzero;"/>
                        <path d="M345.136,84.872L343.876,84.872C345.822,81.747 346.796,78.618 346.796,75.487C346.796,74.263 346.656,73.049 346.376,71.844C346.155,70.868 345.845,69.93 345.448,69.032C345.194,68.446 344.67,67.469 343.876,66.102L345.136,66.102C346.36,67.736 347.265,69.377 347.85,71.024C348.352,72.443 348.602,73.928 348.602,75.477C348.602,77.235 348.264,78.934 347.587,80.575C346.916,82.215 346.099,83.648 345.136,84.872Z" style="fill:white;fill-rule:nonzero;"/>
                    </g>
                    <g transform="matrix(0.5,0,0,0.5,20,480)">
                        <path d="M80,164L80,196C80,198.208 78.208,200 76,200L44,200C41.792,200 40,198.208 40,196L40,164C40,161.792 41.792,160 44,160L76,160C78.208,160 80,161.792 80,164Z" style="fill:rgb(85,99,174);"/>
                    </g>
                </g>
                <g>
                    <g transform="matrix(1,0,0,1,33.9784,466.277)">
                        <path d="M46.322,80.663L41.582,66.663L39.982,66.663L35.242,80.663L37.202,80.663L37.862,78.523L43.682,78.523L44.362,80.663L46.322,80.663ZM40.762,69.183L43.182,76.883L38.382,76.883L40.762,69.183Z" style="fill:white;fill-rule:nonzero;"/>
                        <rect x="48.282" y="66.663" width="1.82" height="14" style="fill:white;fill-rule:nonzero;"/>
                        <path d="M63.022,71.503C63.022,68.683 61.062,66.663 58.322,66.663L53.302,66.663L53.302,80.663L55.122,80.663L55.122,76.323L58.042,76.323L60.742,80.663L62.822,80.663L59.982,76.063C61.822,75.423 63.022,73.703 63.022,71.503ZM58.222,68.303C59.942,68.303 61.202,69.643 61.202,71.503C61.202,73.343 59.942,74.683 58.222,74.683L55.122,74.683L55.122,68.303L58.222,68.303Z" style="fill:white;fill-rule:nonzero;"/>
                        <path d="M69.882,80.663C74.522,80.663 77.002,77.283 77.002,73.663C77.002,70.043 74.522,66.663 69.882,66.663L65.422,66.663L65.422,80.663L69.882,80.663ZM67.242,68.303L69.742,68.303C73.402,68.303 75.122,70.943 75.122,73.663C75.122,76.383 73.402,79.023 69.742,79.023L67.242,79.023L67.242,68.303Z" style="fill:white;fill-rule:nonzero;"/>
                        <path d="M88.962,71.503C88.962,68.683 87.002,66.663 84.262,66.663L79.242,66.663L79.242,80.663L81.062,80.663L81.062,76.323L83.982,76.323L86.682,80.663L88.762,80.663L85.922,76.063C87.762,75.423 88.962,73.703 88.962,71.503ZM84.162,68.303C85.882,68.303 87.142,69.643 87.142,71.503C87.142,73.343 85.882,74.683 84.162,74.683L81.062,74.683L81.062,68.303L84.162,68.303Z" style="fill:white;fill-rule:nonzero;"/>
                        <path d="M97.762,80.983C102.282,80.983 104.982,77.603 104.982,73.663C104.982,69.723 102.282,66.343 97.762,66.343C93.242,66.343 90.542,69.723 90.542,73.663C90.542,77.603 93.242,80.983 97.762,80.983ZM97.762,79.343C94.362,79.343 92.422,76.723 92.442,73.663C92.422,70.603 94.362,67.983 97.762,67.983C101.142,67.983 103.082,70.603 103.062,73.663C103.082,76.723 101.142,79.343 97.762,79.343Z" style="fill:white;fill-rule:nonzero;"/>
                        <path d="M107.322,66.663L107.322,80.663L109.142,80.663L109.142,76.323L112.342,76.323C115.082,76.323 117.042,74.303 117.042,71.503C117.042,68.683 115.082,66.663 112.342,66.663L107.322,66.663ZM109.142,74.683L109.142,68.303L112.242,68.303C113.962,68.303 115.222,69.643 115.222,71.503C115.222,73.343 113.962,74.683 112.242,74.683L109.142,74.683Z" style="fill:white;fill-rule:nonzero;"/>
                        <path d="M130.302,73.523C131.882,73.203 132.942,72.183 132.942,70.283C132.942,68.023 131.282,66.663 128.582,66.663L123.982,66.663L123.982,80.663L128.782,80.663C131.462,80.663 133.122,79.223 133.122,76.843C133.122,74.883 131.822,73.703 130.302,73.523ZM128.522,68.283C130.142,68.283 131.122,69.083 131.122,70.523C131.122,71.903 130.142,72.763 128.642,72.763L125.802,72.763L125.802,68.283L128.522,68.283ZM125.802,79.043L125.802,74.363L128.902,74.363C130.302,74.363 131.302,75.283 131.302,76.663C131.302,78.163 130.322,79.043 128.742,79.043L125.802,79.043Z" style="fill:white;fill-rule:nonzero;"/>
                        <path d="M143.582,80.663L143.582,79.023L137.442,79.023L137.442,74.523L143.582,74.523L143.582,72.883L137.442,72.883L137.442,68.303L143.582,68.303L143.582,66.663L135.622,66.663L135.622,80.663L143.582,80.663Z" style="fill:white;fill-rule:nonzero;"/>
                        <path d="M150.902,80.663L150.902,68.383L155.082,68.383L155.082,66.663L144.902,66.663L144.902,68.383L149.082,68.383L149.082,80.663L150.902,80.663Z" style="fill:white;fill-rule:nonzero;"/>
                        <path d="M165.302,80.663L160.562,66.663L158.962,66.663L154.222,80.663L156.182,80.663L156.842,78.523L162.662,78.523L163.342,80.663L165.302,80.663ZM159.742,69.183L162.162,76.883L157.362,76.883L159.742,69.183Z" style="fill:white;fill-rule:nonzero;"/>
                        <path d="M176.842,80.663L176.842,68.383L181.022,68.383L181.022,66.663L170.842,66.663L170.842,68.383L175.022,68.383L175.022,80.663L176.842,80.663Z" style="fill:white;fill-rule:nonzero;"/>
                        <path d="M190.702,80.663L190.702,79.023L184.562,79.023L184.562,74.523L190.702,74.523L190.702,72.883L184.562,72.883L184.562,68.303L190.702,68.303L190.702,66.663L182.742,66.663L182.742,80.663L190.702,80.663Z" style="fill:white;fill-rule:nonzero;"/>
                        <path d="M197.382,80.983C200.162,80.983 201.942,79.423 201.942,77.023C201.942,75.123 201.002,73.883 199.202,73.263L197.042,72.503C195.322,71.923 194.562,71.183 194.562,70.003C194.562,68.743 195.522,67.903 197.082,67.903C198.862,67.903 199.862,68.903 199.862,70.623L201.682,70.623C201.682,68.023 199.902,66.343 197.142,66.343C194.542,66.343 192.742,67.863 192.742,70.103C192.742,71.963 193.682,73.183 195.562,73.783L197.882,74.603C199.502,75.163 200.122,75.843 200.122,77.083C200.122,78.543 199.122,79.383 197.362,79.383C195.362,79.383 194.142,78.163 194.142,76.203L192.322,76.203C192.322,79.203 194.202,80.983 197.382,80.983Z" style="fill:white;fill-rule:nonzero;"/>
                        <path d="M208.382,80.663L208.382,68.383L212.562,68.383L212.562,66.663L202.382,66.663L202.382,68.383L206.562,68.383L206.562,80.663L208.382,80.663Z" style="fill:white;fill-rule:nonzero;"/>
                        <path d="M222.242,80.663L222.242,79.023L216.102,79.023L216.102,74.523L222.242,74.523L222.242,72.883L216.102,72.883L216.102,68.303L222.242,68.303L222.242,66.663L214.282,66.663L214.282,80.663L222.242,80.663Z" style="fill:white;fill-rule:nonzero;"/>
                        <path d="M234.902,71.503C234.902,68.683 232.942,66.663 230.202,66.663L225.182,66.663L225.182,80.663L227.002,80.663L227.002,76.323L229.922,76.323L232.622,80.663L234.702,80.663L231.862,76.063C233.702,75.423 234.902,73.703 234.902,71.503ZM230.102,68.303C231.822,68.303 233.082,69.643 233.082,71.503C233.082,73.343 231.822,74.683 230.102,74.683L227.002,74.683L227.002,68.303L230.102,68.303Z" style="fill:white;fill-rule:nonzero;"/>
                        <path d="M241.262,80.983C244.042,80.983 245.822,79.423 245.822,77.023C245.822,75.123 244.882,73.883 243.082,73.263L240.922,72.503C239.202,71.923 238.442,71.183 238.442,70.003C238.442,68.743 239.402,67.903 240.962,67.903C242.742,67.903 243.742,68.903 243.742,70.623L245.562,70.623C245.562,68.023 243.782,66.343 241.022,66.343C238.422,66.343 236.622,67.863 236.622,70.103C236.622,71.963 237.562,73.183 239.442,73.783L241.762,74.603C243.382,75.163 244.002,75.843 244.002,77.083C244.002,78.543 243.002,79.383 241.242,79.383C239.242,79.383 238.022,78.163 238.022,76.203L236.202,76.203C236.202,79.203 238.082,80.983 241.262,80.983Z" style="fill:white;fill-rule:nonzero;"/>
                        <path d="M256.379,84.872C255.409,83.648 254.589,82.215 253.918,80.575C253.248,78.934 252.913,77.235 252.913,75.477C252.913,73.928 253.163,72.443 253.664,71.024C254.25,69.377 255.155,67.736 256.379,66.102L257.639,66.102C256.851,67.456 256.33,68.423 256.077,69.002C255.679,69.901 255.367,70.838 255.139,71.815C254.859,73.032 254.719,74.256 254.719,75.487C254.719,78.618 255.692,81.747 257.639,84.872L256.379,84.872Z" style="fill:white;fill-rule:nonzero;"/>
                        <path d="M263.722,80.663L263.722,67.063L262.062,67.063C262.062,68.763 261.522,69.383 259.082,69.383L259.082,70.923L261.922,70.923L261.922,80.663L263.722,80.663Z" style="fill:white;fill-rule:nonzero;"/>
                        <path d="M267.104,69.784C267.104,68.762 267.361,67.892 267.875,67.176C268.39,66.46 269.135,66.102 270.112,66.102C271.01,66.102 271.752,66.424 272.338,67.069C272.931,67.707 273.227,68.648 273.227,69.891C273.227,71.102 272.927,72.036 272.328,72.694C271.736,73.345 271.004,73.67 270.131,73.67C269.265,73.67 268.543,73.348 267.963,72.704C267.39,72.059 267.104,71.086 267.104,69.784ZM270.16,67.313C269.724,67.313 269.36,67.502 269.067,67.879C268.78,68.257 268.637,68.95 268.637,69.959C268.637,70.877 268.784,71.525 269.076,71.903C269.369,72.274 269.731,72.459 270.16,72.459C270.603,72.459 270.968,72.271 271.254,71.893C271.547,71.515 271.694,70.825 271.694,69.823C271.694,68.898 271.547,68.25 271.254,67.879C270.961,67.502 270.597,67.313 270.16,67.313ZM270.17,81.19L278.002,66.102L279.428,66.102L271.625,81.19L270.17,81.19ZM276.362,77.303C276.362,76.275 276.619,75.405 277.133,74.696C277.647,73.98 278.396,73.622 279.379,73.622C280.278,73.622 281.02,73.944 281.606,74.588C282.198,75.226 282.494,76.167 282.494,77.411C282.494,78.622 282.195,79.556 281.596,80.213C281.004,80.864 280.268,81.19 279.389,81.19C278.523,81.19 277.8,80.868 277.221,80.223C276.648,79.572 276.362,78.599 276.362,77.303ZM279.428,74.833C278.985,74.833 278.618,75.021 278.325,75.399C278.038,75.777 277.895,76.47 277.895,77.479C277.895,78.39 278.041,79.035 278.334,79.413C278.627,79.79 278.989,79.979 279.418,79.979C279.868,79.979 280.235,79.79 280.522,79.413C280.815,79.035 280.961,78.345 280.961,77.342C280.961,76.418 280.815,75.77 280.522,75.399C280.229,75.021 279.864,74.833 279.428,74.833Z" style="fill:white;fill-rule:nonzero;"/>
                        <path d="M286.196,84.872L284.936,84.872C286.882,81.747 287.856,78.618 287.856,75.487C287.856,74.263 287.716,73.049 287.436,71.844C287.215,70.868 286.905,69.93 286.508,69.032C286.254,68.446 285.73,67.469 284.936,66.102L286.196,66.102C287.42,67.736 288.325,69.377 288.91,71.024C289.412,72.443 289.662,73.928 289.662,75.477C289.662,77.235 289.324,78.934 288.647,80.575C287.976,82.215 287.159,83.648 286.196,84.872Z" style="fill:white;fill-rule:nonzero;"/>
                    </g>
                    <g transform="matrix(0.5,0,0,0.5,20,450)">
                        <path d="M80,164L80,196C80,198.208 78.208,200 76,200L44,200C41.792,200 40,198.208 40,196L40,164C40,161.792 41.792,160 44,160L76,160C78.208,160 80,161.792 80,164Z" style="fill:rgb(180,69,141);"/>
                    </g>
                </g>
                <g>
                    <g transform="matrix(1,0,0,1,33.9784,436.277)">
                        <path d="M36.482,66.663L36.482,80.663L38.302,80.663L38.302,76.323L41.502,76.323C44.242,76.323 46.202,74.303 46.202,71.503C46.202,68.683 44.242,66.663 41.502,66.663L36.482,66.663ZM38.302,74.683L38.302,68.303L41.402,68.303C43.122,68.303 44.382,69.643 44.382,71.503C44.382,73.343 43.122,74.683 41.402,74.683L38.302,74.683Z" style="fill:white;fill-rule:nonzero;"/>
                        <path d="M52.822,80.983C55.922,80.983 57.922,79.263 57.922,76.063L57.922,66.663L56.102,66.663L56.102,75.963C56.102,78.183 54.822,79.343 52.822,79.343C50.842,79.343 49.562,78.183 49.562,75.963L49.562,66.663L47.742,66.663L47.742,76.063C47.742,79.263 49.742,80.983 52.822,80.983Z" style="fill:white;fill-rule:nonzero;"/>
                        <path d="M67.102,73.523C68.682,73.203 69.742,72.183 69.742,70.283C69.742,68.023 68.082,66.663 65.382,66.663L60.782,66.663L60.782,80.663L65.582,80.663C68.262,80.663 69.922,79.223 69.922,76.843C69.922,74.883 68.622,73.703 67.102,73.523ZM65.322,68.283C66.942,68.283 67.922,69.083 67.922,70.523C67.922,71.903 66.942,72.763 65.442,72.763L62.602,72.763L62.602,68.283L65.322,68.283ZM62.602,79.043L62.602,74.363L65.702,74.363C67.102,74.363 68.102,75.283 68.102,76.663C68.102,78.163 67.122,79.043 65.542,79.043L62.602,79.043Z" style="fill:white;fill-rule:nonzero;"/>
                        <path d="M80.202,80.663L80.202,78.943L74.242,78.943L74.242,66.663L72.422,66.663L72.422,80.663L80.202,80.663Z" style="fill:white;fill-rule:nonzero;"/>
                        <rect x="82.622" y="66.663" width="1.82" height="14" style="fill:white;fill-rule:nonzero;"/>
                        <path d="M94.042,80.983C97.822,80.983 100.222,78.883 100.742,76.063L98.742,76.063C98.222,78.043 96.642,79.343 94.062,79.343C90.662,79.343 88.702,76.963 88.702,73.663C88.702,70.363 90.662,67.983 94.062,67.983C96.642,67.983 98.222,69.283 98.742,71.263L100.742,71.263C100.222,68.443 97.822,66.343 94.042,66.343C89.502,66.343 86.802,69.503 86.802,73.663C86.802,77.823 89.502,80.983 94.042,80.983Z" style="fill:white;fill-rule:nonzero;"/>
                        <path d="M108.182,66.663L108.182,80.663L110.002,80.663L110.002,76.323L113.202,76.323C115.942,76.323 117.902,74.303 117.902,71.503C117.902,68.683 115.942,66.663 113.202,66.663L108.182,66.663ZM110.002,74.683L110.002,68.303L113.102,68.303C114.822,68.303 116.082,69.643 116.082,71.503C116.082,73.343 114.822,74.683 113.102,74.683L110.002,74.683Z" style="fill:white;fill-rule:nonzero;"/>
                        <path d="M129.502,71.503C129.502,68.683 127.542,66.663 124.802,66.663L119.782,66.663L119.782,80.663L121.602,80.663L121.602,76.323L124.522,76.323L127.222,80.663L129.302,80.663L126.462,76.063C128.302,75.423 129.502,73.703 129.502,71.503ZM124.702,68.303C126.422,68.303 127.682,69.643 127.682,71.503C127.682,73.343 126.422,74.683 124.702,74.683L121.602,74.683L121.602,68.303L124.702,68.303Z" style="fill:white;fill-rule:nonzero;"/>
                        <path d="M139.862,80.663L139.862,79.023L133.722,79.023L133.722,74.523L139.862,74.523L139.862,72.883L133.722,72.883L133.722,68.303L139.862,68.303L139.862,66.663L131.902,66.663L131.902,80.663L139.862,80.663Z" style="fill:white;fill-rule:nonzero;"/>
                        <path d="M146.542,80.983C149.322,80.983 151.102,79.423 151.102,77.023C151.102,75.123 150.162,73.883 148.362,73.263L146.202,72.503C144.482,71.923 143.722,71.183 143.722,70.003C143.722,68.743 144.682,67.903 146.242,67.903C148.022,67.903 149.022,68.903 149.022,70.623L150.842,70.623C150.842,68.023 149.062,66.343 146.302,66.343C143.702,66.343 141.902,67.863 141.902,70.103C141.902,71.963 142.842,73.183 144.722,73.783L147.042,74.603C148.662,75.163 149.282,75.843 149.282,77.083C149.282,78.543 148.282,79.383 146.522,79.383C144.522,79.383 143.302,78.163 143.302,76.203L141.482,76.203C141.482,79.203 143.362,80.983 146.542,80.983Z" style="fill:white;fill-rule:nonzero;"/>
                        <path d="M163.102,80.663L158.362,66.663L156.762,66.663L152.022,80.663L153.982,80.663L154.642,78.523L160.462,78.523L161.142,80.663L163.102,80.663ZM157.542,69.183L159.962,76.883L155.162,76.883L157.542,69.183Z" style="fill:white;fill-rule:nonzero;"/>
                        <path d="M172.842,80.663L172.842,78.943L166.882,78.943L166.882,66.663L165.062,66.663L165.062,80.663L172.842,80.663Z" style="fill:white;fill-rule:nonzero;"/>
                        <path d="M183.222,80.663L183.222,79.023L177.082,79.023L177.082,74.523L183.222,74.523L183.222,72.883L177.082,72.883L177.082,68.303L183.222,68.303L183.222,66.663L175.262,66.663L175.262,80.663L183.222,80.663Z" style="fill:white;fill-rule:nonzero;"/>
                        <path d="M194.299,84.872C193.329,83.648 192.509,82.215 191.838,80.575C191.168,78.934 190.833,77.235 190.833,75.477C190.833,73.928 191.083,72.443 191.584,71.024C192.17,69.377 193.075,67.736 194.299,66.102L195.559,66.102C194.771,67.456 194.25,68.423 193.997,69.002C193.599,69.901 193.287,70.838 193.059,71.815C192.779,73.032 192.639,74.256 192.639,75.487C192.639,78.618 193.612,81.747 195.559,84.872L194.299,84.872Z" style="fill:white;fill-rule:nonzero;"/>
                        <path d="M204.862,74.623L204.862,70.603L203.062,70.603L203.062,74.623L199.382,74.623L199.382,67.063L197.582,67.063L197.582,76.263L203.062,76.263L203.062,80.663L204.862,80.663L204.862,76.263L206.982,76.263L206.982,74.623L204.862,74.623Z" style="fill:white;fill-rule:nonzero;"/>
                        <path d="M213.602,80.883C216.522,80.883 218.382,78.803 218.382,76.003C218.382,73.243 216.742,71.463 214.122,71.463C212.782,71.463 211.642,71.923 210.942,72.883L210.942,68.683L217.562,68.683L217.562,67.063L209.282,67.063L209.282,74.683L210.962,74.683C211.502,73.463 212.382,72.943 213.882,72.943C215.582,72.943 216.642,74.143 216.642,76.063C216.642,78.023 215.502,79.263 213.642,79.263C212.082,79.263 210.942,78.463 210.862,77.143L209.022,77.143C209.162,79.343 211.042,80.883 213.602,80.883Z" style="fill:white;fill-rule:nonzero;"/>
                        <path d="M220.444,69.784C220.444,68.762 220.701,67.892 221.215,67.176C221.73,66.46 222.475,66.102 223.452,66.102C224.35,66.102 225.092,66.424 225.678,67.069C226.271,67.707 226.567,68.648 226.567,69.891C226.567,71.102 226.267,72.036 225.668,72.694C225.076,73.345 224.344,73.67 223.471,73.67C222.605,73.67 221.883,73.348 221.303,72.704C220.73,72.059 220.444,71.086 220.444,69.784ZM223.5,67.313C223.064,67.313 222.7,67.502 222.407,67.879C222.12,68.257 221.977,68.95 221.977,69.959C221.977,70.877 222.124,71.525 222.416,71.903C222.709,72.274 223.071,72.459 223.5,72.459C223.943,72.459 224.308,72.271 224.594,71.893C224.887,71.515 225.034,70.825 225.034,69.823C225.034,68.898 224.887,68.25 224.594,67.879C224.301,67.502 223.937,67.313 223.5,67.313ZM223.51,81.19L231.342,66.102L232.768,66.102L224.965,81.19L223.51,81.19ZM229.702,77.303C229.702,76.275 229.959,75.405 230.473,74.696C230.987,73.98 231.736,73.622 232.719,73.622C233.618,73.622 234.36,73.944 234.946,74.588C235.538,75.226 235.834,76.167 235.834,77.411C235.834,78.622 235.535,79.556 234.936,80.213C234.344,80.864 233.608,81.19 232.729,81.19C231.863,81.19 231.14,80.868 230.561,80.223C229.988,79.572 229.702,78.599 229.702,77.303ZM232.768,74.833C232.325,74.833 231.958,75.021 231.665,75.399C231.378,75.777 231.235,76.47 231.235,77.479C231.235,78.39 231.381,79.035 231.674,79.413C231.967,79.79 232.329,79.979 232.758,79.979C233.208,79.979 233.575,79.79 233.862,79.413C234.155,79.035 234.301,78.345 234.301,77.342C234.301,76.418 234.155,75.77 233.862,75.399C233.569,75.021 233.204,74.833 232.768,74.833Z" style="fill:white;fill-rule:nonzero;"/>
                        <path d="M239.536,84.872L238.276,84.872C240.222,81.747 241.196,78.618 241.196,75.487C241.196,74.263 241.056,73.049 240.776,71.844C240.555,70.868 240.245,69.93 239.848,69.032C239.594,68.446 239.07,67.469 238.276,66.102L239.536,66.102C240.76,67.736 241.665,69.377 242.25,71.024C242.752,72.443 243.002,73.928 243.002,75.477C243.002,77.235 242.664,78.934 241.987,80.575C241.316,82.215 240.499,83.648 239.536,84.872Z" style="fill:white;fill-rule:nonzero;"/>
                    </g>
                    <g transform="matrix(0.5,0,0,0.5,20,420)">
                        <path d="M80,164L80,196C80,198.208 78.208,200 76,200L44,200C41.792,200 40,198.208 40,196L40,164C40,161.792 41.792,160 44,160L76,160C78.208,160 80,161.792 80,164Z" style="fill:rgb(159,228,201);"/>
                    </g>
                </g>
            </g>
            <g transform="matrix(1,0,0,1,4.1351,145.56)">
                <path d="M82.382,80.663L82.382,-4.337L60.632,-4.337C60.632,6.163 56.507,11.788 38.382,11.788L38.382,31.663L56.382,31.663L56.382,80.663L82.382,80.663Z" style="fill:white;fill-rule:nonzero;"/>
                <path d="M154.507,36.163C164.757,34.288 171.382,26.913 171.382,15.788C171.382,1.913 160.632,-6.837 143.507,-6.837L100.757,-6.837L100.757,80.663L144.507,80.663C161.757,80.663 172.757,71.288 172.757,56.538C172.757,44.913 165.257,37.413 154.507,36.163ZM135.007,9.913C141.507,9.913 145.382,13.288 145.382,19.038C145.382,24.788 141.382,28.413 135.007,28.413L126.757,28.413L126.757,9.913L135.007,9.913ZM126.757,62.538L126.757,43.538L135.757,43.538C142.132,43.538 146.257,47.288 146.257,52.913C146.257,58.788 142.257,62.538 135.632,62.538L126.757,62.538Z" style="fill:white;fill-rule:nonzero;"/>
            </g>
            <g transform="matrix(1,0,0,1,8.85554,180.545)">
                <path d="M43.056,80.663L43.056,65.68L48.219,65.68L48.219,62.946L35.008,62.946L35.008,65.68L40.146,65.68L40.146,80.663L43.056,80.663Z" style="fill:white;fill-opacity:0.21;fill-rule:nonzero;"/>
                <path d="M53.686,80.966C57.584,80.966 59.912,78.233 59.912,74.766C59.912,71.298 57.584,68.565 53.686,68.565C49.789,68.565 47.46,71.298 47.46,74.766C47.46,78.233 49.789,80.966 53.686,80.966ZM53.686,78.511C51.459,78.511 50.219,76.917 50.219,74.766C50.219,72.614 51.459,71.02 53.686,71.02C55.913,71.02 57.154,72.614 57.154,74.766C57.154,76.917 55.913,78.511 53.686,78.511Z" style="fill:white;fill-opacity:0.21;fill-rule:nonzero;"/>
                <path d="M67.783,78.334C66.695,78.334 66.062,78.081 66.062,76.031L66.062,71.172L68.77,71.172L68.77,68.869L66.062,68.869L66.062,65.3L63.304,65.3L63.304,68.869L61.304,68.869L61.304,71.172L63.304,71.172L63.304,76.664C63.304,80.637 65.784,80.814 67.125,80.814C67.935,80.814 68.745,80.739 69.175,80.663L69.175,78.233C68.897,78.284 68.214,78.334 67.783,78.334Z" style="fill:white;fill-opacity:0.21;fill-rule:nonzero;"/>
                <path d="M76.49,80.966C77.932,80.966 79.552,80.258 80.286,79.068L80.286,80.663L83.02,80.663L83.02,68.869L80.286,68.869L80.286,70.463C79.552,69.273 78.135,68.565 76.566,68.565C72.896,68.565 70.694,71.298 70.694,74.766C70.694,78.233 72.693,80.966 76.49,80.966ZM76.895,78.511C74.743,78.511 73.453,76.917 73.453,74.766C73.453,72.614 74.743,71.02 76.895,71.02C79.248,71.02 80.387,72.741 80.387,74.766C80.387,76.79 79.248,78.511 76.895,78.511Z" style="fill:white;fill-opacity:0.21;fill-rule:nonzero;"/>
                <rect x="86.563" y="62.946" width="2.759" height="17.716" style="fill:white;fill-opacity:0.21;fill-rule:nonzero;"/>
                <path d="M104.634,81.093C108.151,81.093 110.505,79.043 110.505,76.006C110.505,73.601 109.392,72.032 107.164,71.121L104.558,70.058C102.482,69.223 101.622,68.413 101.622,67.198C101.622,65.857 102.583,64.996 104.254,64.996C106.228,64.996 107.291,66.11 107.291,68.059L110.202,68.059C110.202,64.718 107.873,62.516 104.355,62.516C101.014,62.516 98.686,64.49 98.686,67.375C98.686,69.628 99.85,71.222 102.077,72.083L104.963,73.247C106.962,74.057 107.595,74.74 107.595,76.082C107.595,77.676 106.532,78.562 104.608,78.562C102.406,78.562 101.09,77.17 101.09,74.867L98.18,74.867C98.18,78.84 100.533,81.093 104.634,81.093Z" style="fill:white;fill-opacity:0.21;fill-rule:nonzero;"/>
                <path d="M117.415,80.966C119.11,80.966 120.35,80.283 121.059,79.017L121.059,80.663L123.818,80.663L123.818,68.869L121.059,68.869L121.059,75.525C121.059,77.221 120.3,78.613 118.199,78.613C116.402,78.613 115.795,77.499 115.795,75.601L115.795,68.869L113.036,68.869L113.036,76.284C113.036,79.448 114.833,80.966 117.415,80.966Z" style="fill:white;fill-opacity:0.21;fill-rule:nonzero;"/>
                <path d="M134.068,68.565C132.398,68.565 130.828,69.324 130.094,70.463L130.094,68.869L127.361,68.869L127.361,85.978L130.094,85.978L130.094,79.068C130.828,80.207 132.322,80.966 133.891,80.966C137.308,80.966 139.687,78.41 139.687,74.766C139.687,71.045 137.434,68.565 134.068,68.565ZM133.486,78.511C131.411,78.511 129.993,76.993 129.993,74.766C129.993,72.538 131.411,71.02 133.486,71.02C135.511,71.02 136.928,72.564 136.928,74.766C136.928,76.967 135.511,78.511 133.486,78.511Z" style="fill:white;fill-opacity:0.21;fill-rule:nonzero;"/>
                <path d="M149.051,68.565C147.381,68.565 145.811,69.324 145.077,70.463L145.077,68.869L142.344,68.869L142.344,85.978L145.077,85.978L145.077,79.068C145.811,80.207 147.305,80.966 148.874,80.966C152.291,80.966 154.67,78.41 154.67,74.766C154.67,71.045 152.417,68.565 149.051,68.565ZM148.469,78.511C146.394,78.511 144.976,76.993 144.976,74.766C144.976,72.538 146.394,71.02 148.469,71.02C150.494,71.02 151.911,72.564 151.911,74.766C151.911,76.967 150.494,78.511 148.469,78.511Z" style="fill:white;fill-opacity:0.21;fill-rule:nonzero;"/>
                <rect x="157.327" y="62.946" width="2.759" height="17.716" style="fill:white;fill-opacity:0.21;fill-rule:nonzero;"/>
                <path d="M171.652,74.968C171.652,76.993 170.741,78.537 168.817,78.537C166.843,78.537 166.261,77.221 166.261,75.474L166.261,68.869L163.503,68.869L163.503,76.056C163.503,78.891 164.945,80.966 167.856,80.966C169.602,80.966 170.918,80.283 171.652,79.017L171.652,80.511C171.652,83.016 170.463,84.003 168.817,84.003C167.046,84.003 166.413,83.295 166.287,82.004L163.503,82.004C163.528,83.295 163.983,84.332 164.819,85.066C165.755,85.851 167.122,86.281 168.868,86.281C170.538,86.281 171.905,85.8 172.867,84.915C173.854,83.953 174.411,82.561 174.411,80.713L174.411,68.869L171.652,68.869L171.652,74.968Z" style="fill:white;fill-opacity:0.21;fill-rule:nonzero;"/>
            </g>
            <g transform="matrix(0.978244,0,0,1.05455,-38.5409,-39.6679)">
                <path d="M85.626,79.946L85.626,64.16L91.49,64.16L91.49,61.28L76.485,61.28L76.485,64.16L82.32,64.16L82.32,79.946L85.626,79.946Z" style="fill:white;fill-rule:nonzero;"/>
                <path d="M97.845,80.266C102.272,80.266 104.917,77.386 104.917,73.733C104.917,70.08 102.272,67.2 97.845,67.2C93.418,67.2 90.774,70.08 90.774,73.733C90.774,77.386 93.418,80.266 97.845,80.266ZM97.845,77.68C95.315,77.68 93.907,76 93.907,73.733C93.907,71.466 95.315,69.786 97.845,69.786C100.375,69.786 101.783,71.466 101.783,73.733C101.783,76 100.375,77.68 97.845,77.68Z" style="fill:white;fill-rule:nonzero;"/>
                <path d="M116.128,67.52L111.04,72.986L111.04,61.28L107.935,61.28L107.935,79.946L111.04,79.946L111.04,74.266L115.984,79.946L120.095,79.946L114.288,73.466L120.095,67.52L116.128,67.52Z" style="fill:white;fill-rule:nonzero;"/>
                <path d="M133.624,73.093C133.624,69.6 131.037,67.2 127.213,67.2C123.131,67.2 120.487,69.76 120.487,73.733C120.487,77.76 123.103,80.266 127.328,80.266C130.548,80.266 133.078,78.64 133.48,76.32L130.318,76.32C129.8,77.28 128.881,77.733 127.328,77.733C125.057,77.733 123.677,76.666 123.591,74.693L133.538,74.693C133.595,74 133.624,73.6 133.624,73.093ZM123.591,72.48C123.62,70.72 124.942,69.493 127.156,69.493C129.312,69.493 130.519,70.56 130.548,72.48L123.591,72.48Z" style="fill:white;fill-rule:nonzero;"/>
                <path d="M139.776,79.946L139.776,73.12C139.776,70.933 140.925,69.68 142.966,69.68C145.151,69.68 145.899,70.826 145.899,73.466L145.899,79.946L149.032,79.946L149.032,72.133C149.032,68.88 147.365,67.2 144.145,67.2C142.162,67.2 140.609,67.92 139.776,69.253L139.776,67.52L136.642,67.52L136.642,79.946L139.776,79.946Z" style="fill:white;fill-rule:nonzero;"/>
                <path d="M167.056,79.946C173.725,79.946 177.204,75.466 177.204,70.613C177.204,65.76 173.725,61.28 167.056,61.28L160.243,61.28L160.243,79.946L167.056,79.946ZM163.549,64.026L166.769,64.026C171.684,64.026 173.812,67.28 173.812,70.613C173.812,73.946 171.684,77.2 166.769,77.2L163.549,77.2L163.549,64.026Z" style="fill:white;fill-rule:nonzero;"/>
                <path d="M181.631,65.733C183.011,65.733 183.959,64.773 183.959,63.573C183.959,62.373 183.011,61.413 181.631,61.413C180.251,61.413 179.302,62.373 179.302,63.573C179.302,64.773 180.251,65.733 181.631,65.733ZM183.183,79.946L183.183,67.52L180.078,67.52L180.078,79.946L183.183,79.946Z" style="fill:white;fill-rule:nonzero;"/>
                <path d="M191.893,80.266C195.142,80.266 197.183,78.826 197.183,76.4C197.183,74.64 195.975,73.36 194.078,72.853L191.405,72.133C190.168,71.813 189.737,71.36 189.737,70.693C189.737,69.946 190.542,69.413 191.663,69.413C193.129,69.413 193.992,70.026 193.992,71.066L197.068,71.066C197.068,68.666 195.055,67.2 191.778,67.2C188.789,67.2 186.633,68.746 186.633,70.853C186.633,72.613 187.696,73.866 189.565,74.346L192.238,75.013C193.676,75.36 193.992,75.786 193.992,76.48C193.992,77.36 193.244,77.946 192.066,77.946C190.456,77.946 189.335,77.2 189.335,76.133L186.201,76.133C186.201,78.506 188.616,80.266 191.893,80.266Z" style="fill:white;fill-rule:nonzero;"/>
                <path d="M206.144,77.493C204.908,77.493 204.189,77.226 204.189,75.066L204.189,69.946L207.265,69.946L207.265,67.52L204.189,67.52L204.189,63.76L201.056,63.76L201.056,67.52L198.785,67.52L198.785,69.946L201.056,69.946L201.056,75.733C201.056,79.92 203.873,80.106 205.396,80.106C206.316,80.106 207.236,80.026 207.725,79.946L207.725,77.386C207.409,77.44 206.632,77.493 206.144,77.493Z" style="fill:white;fill-rule:nonzero;"/>
                <path d="M213.733,79.946L213.733,74.453C213.733,71.626 215.084,70.08 217.297,70.08C217.786,70.08 218.045,70.08 218.533,70.133L218.533,67.466C218.189,67.386 217.786,67.36 217.297,67.36C215.831,67.36 214.221,68.16 213.733,69.92L213.733,67.52L210.599,67.52L210.599,79.946L213.733,79.946Z" style="fill:white;fill-rule:nonzero;"/>
                <path d="M222.673,65.733C224.053,65.733 225.001,64.773 225.001,63.573C225.001,62.373 224.053,61.413 222.673,61.413C221.293,61.413 220.345,62.373 220.345,63.573C220.345,64.773 221.293,65.733 222.673,65.733ZM224.225,79.946L224.225,67.52L221.121,67.52L221.121,79.946L224.225,79.946Z" style="fill:white;fill-rule:nonzero;"/>
                <path d="M235.868,67.2C233.97,67.2 232.188,68 231.354,69.2L231.354,61.28L228.25,61.28L228.25,79.946L231.354,79.946L231.354,78.266C232.188,79.466 233.884,80.266 235.666,80.266C239.547,80.266 242.249,77.573 242.249,73.733C242.249,69.813 239.691,67.2 235.868,67.2ZM235.207,77.68C232.849,77.68 231.239,76.08 231.239,73.733C231.239,71.386 232.849,69.786 235.207,69.786C237.506,69.786 239.116,71.413 239.116,73.733C239.116,76.053 237.506,77.68 235.207,77.68Z" style="fill:white;fill-rule:nonzero;"/>
                <path d="M250.097,80.266C252.023,80.266 253.432,79.546 254.237,78.213L254.237,79.946L257.37,79.946L257.37,67.52L254.237,67.52L254.237,74.533C254.237,76.32 253.374,77.786 250.988,77.786C248.947,77.786 248.258,76.613 248.258,74.613L248.258,67.52L245.124,67.52L245.124,75.333C245.124,78.666 247.165,80.266 250.097,80.266Z" style="fill:white;fill-rule:nonzero;"/>
                <path d="M267.46,77.493C266.224,77.493 265.506,77.226 265.506,75.066L265.506,69.946L268.581,69.946L268.581,67.52L265.506,67.52L265.506,63.76L262.372,63.76L262.372,67.52L260.101,67.52L260.101,69.946L262.372,69.946L262.372,75.733C262.372,79.92 265.189,80.106 266.713,80.106C267.633,80.106 268.553,80.026 269.041,79.946L269.041,77.386C268.725,77.44 267.949,77.493 267.46,77.493Z" style="fill:white;fill-rule:nonzero;"/>
                <path d="M273.468,65.733C274.848,65.733 275.797,64.773 275.797,63.573C275.797,62.373 274.848,61.413 273.468,61.413C272.089,61.413 271.14,62.373 271.14,63.573C271.14,64.773 272.089,65.733 273.468,65.733ZM275.021,79.946L275.021,67.52L271.916,67.52L271.916,79.946L275.021,79.946Z" style="fill:white;fill-rule:nonzero;"/>
                <path d="M285.111,80.266C289.538,80.266 292.182,77.386 292.182,73.733C292.182,70.08 289.538,67.2 285.111,67.2C280.684,67.2 278.039,70.08 278.039,73.733C278.039,77.386 280.684,80.266 285.111,80.266ZM285.111,77.68C282.581,77.68 281.172,76 281.172,73.733C281.172,71.466 282.581,69.786 285.111,69.786C287.64,69.786 289.049,71.466 289.049,73.733C289.049,76 287.64,77.68 285.111,77.68Z" style="fill:white;fill-rule:nonzero;"/>
                <path d="M298.334,79.946L298.334,73.12C298.334,70.933 299.484,69.68 301.525,69.68C303.71,69.68 304.457,70.826 304.457,73.466L304.457,79.946L307.591,79.946L307.591,72.133C307.591,68.88 305.923,67.2 302.704,67.2C300.72,67.2 299.168,67.92 298.334,69.253L298.334,67.52L295.201,67.52L295.201,79.946L298.334,79.946Z" style="fill:white;fill-rule:nonzero;"/>
            </g>
        </g>
    </g>
</svg>
