<?xml version="1.0" encoding="UTF-8" standalone="no"?>
<!DOCTYPE svg PUBLIC "-//W3C//DTD SVG 1.1//EN" "http://www.w3.org/Graphics/SVG/1.1/DTD/svg11.dtd">
<svg width="100%" height="100%" viewBox="0 0 500 500" version="1.1" xmlns="http://www.w3.org/2000/svg" xmlns:xlink="http://www.w3.org/1999/xlink" xml:space="preserve" xmlns:serif="http://www.serif.com/" style="fill-rule:evenodd;clip-rule:evenodd;stroke-linejoin:round;stroke-miterlimit:2;">
    <g transform="matrix(1,0,0,1,0.26646,0.101509)">
        <g transform="matrix(3.37077,-3.37013,3.37013,3.37077,-154.721,249.86)">
            <path d="M100,30.49C100,24.696 95.304,20 89.51,20L30.49,20C24.696,20 20,24.696 20,30.49L20,60.707C20,61.093 20.213,61.449 20.554,61.631C20.895,61.814 21.309,61.794 21.631,61.579C25.185,59.21 33.478,53.681 35.533,52.311C35.825,52.117 36,51.789 36,51.439C36,49.827 36,45.06 36,41.245C36,38.348 38.348,36 41.245,36L78.755,36C81.652,36 84,38.348 84,41.245L84,56.457C84,56.853 84.223,57.215 84.578,57.394C84.932,57.572 85.356,57.535 85.674,57.299C89.278,54.624 97.605,48.444 99.576,46.981C99.843,46.783 100,46.471 100,46.139C100,44.145 100,36.863 100,30.49Z" style="fill:url(#_Linear1);"/>
        </g>
        <g transform="matrix(-3.37077,3.37013,-3.37013,-3.37077,654.188,249.937)">
            <path d="M100,30.49C100,24.696 95.304,20 89.51,20L30.49,20C27.708,20 25.04,21.105 23.072,23.072C21.105,25.04 20,27.708 20,30.49L20,60.946C20,61.335 20.215,61.692 20.559,61.874C20.903,62.055 21.32,62.032 21.641,61.812C25.207,59.375 33.507,53.704 35.543,52.312C35.829,52.117 36,51.793 36,51.446L36,41.245C36,38.348 38.348,36 41.245,36L78.754,36C80.145,36 81.479,36.553 82.463,37.537C83.447,38.52 83.999,39.855 83.999,41.246C83.998,46.135 83.996,53.178 83.995,56.657C83.995,57.055 84.22,57.418 84.577,57.596C84.933,57.773 85.359,57.734 85.677,57.494C89.29,54.762 97.627,48.461 99.584,46.981C99.846,46.783 100,46.473 100,46.145C100,44.159 100,36.869 100,30.49Z" style="fill:url(#_Linear2);"/>
        </g>
        <g transform="matrix(0.898872,-0.898703,0.898703,0.898872,-24.3971,256.164)">
            <path d="M206,124C206,110.202 194.798,99 181,99L131,99C117.202,99 106,110.202 106,124L106,174C106,187.798 117.202,199 131,199L181,199C194.798,199 206,187.798 206,174L206,124Z" style="fill:rgb(168,85,247);"/>
        </g>
    </g>
    <defs>
        <linearGradient id="_Linear1" x1="0" y1="0" x2="1" y2="0" gradientUnits="userSpaceOnUse" gradientTransform="matrix(80,0,0,42.6667,20,41.3333)"><stop offset="0" style="stop-color:rgb(147,51,234);stop-opacity:1"/><stop offset="0.67" style="stop-color:rgb(150,56,236);stop-opacity:1"/><stop offset="1" style="stop-color:rgb(168,85,247);stop-opacity:1"/></linearGradient>
        <linearGradient id="_Linear2" x1="0" y1="0" x2="1" y2="0" gradientUnits="userSpaceOnUse" gradientTransform="matrix(80,0,0,42.9333,20,41.4667)"><stop offset="0" style="stop-color:rgb(147,51,234);stop-opacity:1"/><stop offset="1" style="stop-color:rgb(168,85,247);stop-opacity:1"/></linearGradient>
    </defs>
</svg>
