<?xml version="1.0" encoding="UTF-8" standalone="no"?>
<!DOCTYPE svg PUBLIC "-//W3C//DTD SVG 1.1//EN" "http://www.w3.org/Graphics/SVG/1.1/DTD/svg11.dtd">
<svg width="100%" height="100%" viewBox="0 0 500 500" version="1.1" xmlns="http://www.w3.org/2000/svg" xmlns:xlink="http://www.w3.org/1999/xlink" xml:space="preserve" xmlns:serif="http://www.serif.com/" style="fill-rule:evenodd;clip-rule:evenodd;stroke-linejoin:round;stroke-miterlimit:2;">
    <g transform="matrix(1,0,0,1,-0.34668,-1.42109e-13)">
        <g transform="matrix(3.43738,-3.43673,3.43673,3.43738,-162.1,249.961)">
            <path d="M100,32.344C100,29.07 98.699,25.93 96.385,23.615C94.07,21.301 90.93,20 87.656,20L32.344,20C25.527,20 20,25.527 20,32.344L20,60.745C20,61.124 20.209,61.473 20.543,61.652C20.878,61.831 21.284,61.811 21.599,61.601C25.141,59.239 33.496,53.669 35.542,52.305C35.828,52.115 36,51.793 36,51.449C36,49.835 36,44.984 36,41.143C36,38.303 38.303,36 41.143,36L78.857,36C81.697,36 84,38.303 84,41.143L84,56.497C84,56.886 84.219,57.241 84.566,57.416C84.914,57.591 85.33,57.555 85.642,57.323C89.233,54.658 97.622,48.431 99.584,46.975C99.846,46.781 100,46.475 100,46.149C100,44.36 100,38.223 100,32.344Z" style="fill:url(#_Linear1);"/>
        </g>
        <g transform="matrix(-3.43738,3.43673,-3.43673,-3.43738,662.793,250.039)">
            <path d="M100,32.344C100,29.07 98.699,25.93 96.385,23.615C94.07,21.301 90.93,20 87.656,20L32.344,20C25.527,20 20,25.527 20,32.344L20,60.985C20,61.366 20.211,61.716 20.548,61.894C20.886,62.072 21.294,62.049 21.609,61.834C25.162,59.406 33.525,53.691 35.552,52.306C35.832,52.115 36,51.797 36,51.457L36,41.143C36,38.303 38.303,36 41.143,36L78.856,36C80.22,36 81.528,36.542 82.493,37.507C83.457,38.472 83.999,39.78 83.999,41.144C83.998,46.056 83.996,53.209 83.995,56.697C83.995,57.088 84.216,57.445 84.565,57.618C84.915,57.792 85.333,57.754 85.644,57.518C89.245,54.796 97.644,48.448 99.592,46.975C99.849,46.781 100,46.477 100,46.155L100,32.344Z" style="fill:url(#_Linear2);"/>
        </g>
        <g transform="matrix(0.916634,-0.916462,0.916462,0.916634,-29.2011,256.39)">
            <path d="M206,124C206,110.202 194.798,99 181,99L131,99C117.202,99 106,110.202 106,124L106,174C106,187.798 117.202,199 131,199L181,199C194.798,199 206,187.798 206,174L206,124Z" style="fill:rgb(168,85,247);"/>
        </g>
    </g>
    <defs>
        <linearGradient id="_Linear1" x1="0" y1="0" x2="1" y2="0" gradientUnits="userSpaceOnUse" gradientTransform="matrix(80,0,0,42.6667,20,41.3333)"><stop offset="0" style="stop-color:rgb(147,51,234);stop-opacity:1"/><stop offset="0.67" style="stop-color:rgb(150,56,236);stop-opacity:1"/><stop offset="1" style="stop-color:rgb(168,85,247);stop-opacity:1"/></linearGradient>
        <linearGradient id="_Linear2" x1="0" y1="0" x2="1" y2="0" gradientUnits="userSpaceOnUse" gradientTransform="matrix(80,0,0,42.9333,20,41.4667)"><stop offset="0" style="stop-color:rgb(147,51,234);stop-opacity:1"/><stop offset="1" style="stop-color:rgb(168,85,247);stop-opacity:1"/></linearGradient>
    </defs>
</svg>
