<svg xmlns="http://www.w3.org/2000/svg" xml:space="preserve" style="fill-rule:evenodd;clip-rule:evenodd;stroke-linecap:round;stroke-linejoin:round" viewBox="0 0 166 32" class="">
	<path
		d="M145.4 15.8c-.9-.6-1.9-1-2.8-1.5-.6-.3-1.2-.6-1.8-1.1-.9-.7-.7-2.2.2-2.8 1.3-.9 3.5-.4 3.8 1.4 0 0 0 .1.1.1h2c.1 0 .1 0 .1-.1-.1-1.2-.6-2.3-1.5-2.9-.8-.6-1.8-1-2.8-1-5.3 0-5.8 5.6-2.9 7.3.3.2 3.1 1.6 4.1 2.2 1 .6 1.3 1.7.9 2.6-.4.8-1.4 1.4-2.4 1.3-1.1-.1-2-.7-2.3-1.6-.1-.2-.1-.5-.1-.6 0 0 0-.1-.1-.1h-2.2s-.1 0-.1.1c0 1.6.4 2.4 1.5 3.2 1 .8 2.1 1.1 3.2 1.1 3 0 4.5-1.7 4.8-3.4.3-1.7-.2-3.2-1.7-4.2ZM51.2 8.2h-2.1s-.1 0-.1.1l-1.8 5.9c0 .1-.1.1-.2 0l-1.8-5.9s0-.1-.1-.1H42s-.1 0-.1.1v15s0 .1.1.1h2.2s.1 0 .1-.1V11.8c0-.1.1-.1.2 0l1.8 5.9.1.4s0 .1.1.1h1.7s.1 0 .1-.1l.1-.4 1.8-5.9c0-.1.2-.1.2 0v11.4s0 .1.1.1h2.2s.1 0 .1-.1v-15s0-.1-.1-.1h-1.5v.1ZM112.2 8.2l-1.9 5.9c0 .1-.1.1-.2 0l-1.8-5.9s0-.1-.1-.1H105s-.1 0-.1.1v15s0 .1.1.1h2.2s.1 0 .1-.1V11.8c0-.1.1-.1.2 0l1.8 5.9.1.4s0 .1.1.1h1.7s.1 0 .1-.1l.1-.4 1.8-5.9c0-.1.2-.1.2 0v11.4s0 .1.1.1h2.2s.1 0 .1-.1v-15s0-.1-.1-.1h-3.5v.1ZM84.2 8.2H74s-.1 0-.1.1v1.9s0 .1.1.1h4v13s0 .1.1.1h2.2s.1 0 .1-.1v-13h4s.1 0 .1-.1l-.3-2c.1 0 0 0 0 0ZM97 23.3h2c.1 0 .1-.1.1-.1L95 8.2s0-.1-.1-.1H92s-.1 0-.1.1l-4.1 15c0 .1 0 .1.1.1h2s.1 0 .1-.1l1.2-4.4s0-.1.1-.1h4.4s.1 0 .1.1l1.2 4.5Zm-5.2-6.6 1.6-5.8c0-.1.1-.1.2 0l1.6 5.8c0 .1 0 .1-.1.1h-3.2c-.1 0-.1-.1-.1-.1ZM130.6 23.3h2c.1 0 .1-.1.1-.1l-4.1-15s0-.1-.1-.1h-2.9s-.1 0-.1.1l-4.1 15c0 .1 0 .1.1.1h2s.1 0 .1-.1l1.2-4.4s0-.1.1-.1h4.4s.1 0 .1.1l1.2 4.5Zm-5.1-6.6 1.6-5.8c0-.1.1-.1.2 0l1.6 5.8c0 .1 0 .1-.1.1h-3.2c-.1 0-.1-.1-.1-.1ZM61.3 21.1v-4.6s0-.1.1-.1h5.8s.1 0 .1-.1v-1.9s0-.1-.1-.1h-5.8s-.1 0-.1-.1v-4s0-.1.1-.1H68s.1 0 .1-.1V8.3s0-.1-.1-.1h-8.9s-.1 0-.1.1v14.8s0 .1.1.1h9.1s.1 0 .1-.1v-2s0-.1-.1-.1l-6.9.1c.1 0 0 0 0 0ZM165.2 23.2l-7.5-7.7v-.1l6.8-7c.1-.1 0-.1-.1-.1h-2.9l-5.7 5.9c-.1.1-.1 0-.1-.1V8.3s0-.1-.1-.1h-2.2s-.1 0-.1.1v15s0 .1.1.1h2.2s.1 0 .1-.1v-6.6c0-.1.1-.1.1-.1l6.5 6.7h2.9s.1-.1 0-.1Z"
		style="fill:#fff;fill-rule:nonzero" />
	<path d="M32.1.1 18.9 9.8l2.4-5.7 10.8-4Z" style="fill:#e17726;fill-rule:nonzero;stroke:#e17726;stroke-width:.25px" />
	<path d="m1.8.1 13 9.8-2.3-5.8L1.8.1ZM27.4 22.7 23.9 28l7.5 2.1 2.1-7.3-6.1-.1ZM.4 22.8l2.1 7.3L10 28l-3.5-5.3-6.1.1Z" style="fill:#e27625;fill-rule:nonzero;stroke:#e27625;stroke-width:.25px" />
	<path
		d="m9.6 13.6-2.1 3.1 7.4.3-.2-8-5.1 4.6ZM24.3 13.6 19.1 9l-.2 8.1 7.4-.3-2-3.2ZM10 28l4.5-2.2-3.9-3L10 28ZM19.4 25.8l4.5 2.2-.6-5.2-3.9 3Z"
		style="fill:#e27625;fill-rule:nonzero;stroke:#e27625;stroke-width:.25px" />
	<path d="m23.9 28-4.5-2.2.4 2.9v1.2l4.1-1.9ZM10 28l4.2 2v-1.2l.4-2.9L10 28Z" style="fill:#d5bfb2;fill-rule:nonzero;stroke:#d5bfb2;stroke-width:.25px" />
	<path d="m14.2 20.9-3.7-1.1 2.6-1.2 1.1 2.3ZM19.6 20.9l1.1-2.3 2.6 1.2-3.7 1.1Z" style="fill:#233447;fill-rule:nonzero;stroke:#233447;stroke-width:.25px" />
	<path
		d="m10 28 .6-5.3-4.1.1L10 28ZM23.2 22.7l.6 5.3 3.5-5.2-4.1-.1ZM26.4 16.8l-7.4.3.7 3.8 1.1-2.3 2.6 1.2 3-3ZM10.5 19.8l2.6-1.2 1.1 2.3.7-3.8-7.4-.3 3 3Z"
		style="fill:#cc6228;fill-rule:nonzero;stroke:#cc6228;stroke-width:.25px" />
	<path
		d="m7.5 16.8 3.1 6.1-.1-3-3-3.1ZM23.4 19.8l-.1 3 3.1-6.1-3 3.1ZM14.9 17.1l-.7 3.8.9 4.5.2-5.9-.4-2.4ZM18.9 17.1l-.4 2.4.2 5.9.9-4.5-.7-3.8Z"
		style="fill:#e27525;fill-rule:nonzero;stroke:#e27525;stroke-width:.25px" />
	<path d="m19.6 20.9-.9 4.5.6.4 3.9-3 .1-3-3.7 1.1ZM10.5 19.8l.1 3 3.9 3 .6-.4-.9-4.5-3.7-1.1Z" style="fill:#f5841f;fill-rule:nonzero;stroke:#f5841f;stroke-width:.25px" />
	<path d="M19.7 30v-1.2l-.3-.3h-5l-.3.3V30L10 28l1.5 1.2 2.9 2h5.1l3-2 1.4-1.2-4.2 2Z" style="fill:#c0ac9d;fill-rule:nonzero;stroke:#c0ac9d;stroke-width:.25px" />
	<path d="m19.4 25.8-.6-.4h-3.7l-.6.4-.4 2.9.3-.3h5l.3.3-.3-2.9Z" style="fill:#161616;fill-rule:nonzero;stroke:#161616;stroke-width:.25px" />
	<path
		d="m32.6 10.5 1.1-5.4-1.7-5-12.6 9.4 4.9 4.1 6.9 2 1.5-1.8-.7-.4 1.1-1-.8-.6 1.1-.8-.8-.5ZM.1 5.1l1.1 5.4-.7.5 1.1.8-.8.6 1.1 1-.7.5 1.5 1.8 6.9-2 4.9-4.1L1.8.1l-1.7 5Z"
		style="fill:#763e1a;fill-rule:nonzero;stroke:#763e1a;stroke-width:.25px" />
	<path
		d="m31.2 15.6-6.9-2 2.1 3.1-3.1 6.1 4.1-.1h6.1l-2.3-7.1ZM9.6 13.6l-6.9 2-2.3 7.1h6.1l4.1.1-3.1-6.1 2.1-3.1ZM18.9 17.1l.4-7.6 2-5.4h-8.9l2 5.4.4 7.6.2 2.4v5.9h3.7v-5.9l.2-2.4Z"
		style="fill:#f5841f;fill-rule:nonzero;stroke:#f5841f;stroke-width:.25px" />
</svg>
