<svg viewBox="0 0 500 500" height="100%" width="100%" xmlns="http://www.w3.org/2000/svg" xml:space="preserve" style="fill-rule:evenodd;clip-rule:evenodd;stroke-linejoin:round;stroke-miterlimit:2">
   <path d="M100 40.573C100 29.211 90.789 20 79.427 20H40.573C29.211 20 20 29.211 20 40.573v20.172a1.03 1.03 0 0 0 1.599.856l13.943-9.296c.286-.19.458-.512.458-.856v-5.162C36 40.605 40.605 36 46.287 36h27.426C79.395 36 84 40.605 84 46.287v10.21a1.029 1.029 0 0 0 1.642.826l13.942-10.348c.262-.194.416-.5.416-.826v-5.576Z" style="fill:url(#_Linear1)" transform="rotate(-44.995 220.547 321.097) scale(4.86073)"/>
   <path d="M100 40.573C100 29.211 90.789 20 79.427 20H40.573C29.211 20 20 29.211 20 40.573v20.412a1.028 1.028 0 0 0 1.609.849l13.943-9.528c.28-.191.448-.509.448-.849v-5.17C36 40.605 40.605 36 46.287 36h27.424a10.287 10.287 0 0 1 10.287 10.289l-.003 10.408a1.027 1.027 0 0 0 1.649.821l13.948-10.543c.257-.194.408-.498.408-.82v-5.582Z" style="fill:url(#_Linear2)" transform="rotate(135.005 279.445 262.198) scale(4.86073)"/>
   <path d="M206 124c0-13.798-11.202-25-25-25h-50c-13.798 0-25 11.202-25 25v50c0 13.798 11.202 25 25 25h50c13.798 0 25-11.202 25-25v-50Z" style="fill:#a855f7" transform="matrix(.91663 -.91646 .91646 .91663 -29.548 256.39)"/>
   <defs>
      <linearGradient id="_Linear1" x1="0" y1="0" x2="1" y2="0" gradientUnits="userSpaceOnUse" gradientTransform="matrix(80 0 0 42.6667 20 41.333)">
         <stop offset="0" style="stop-color:#9333ea;stop-opacity:1"/>
         <stop offset=".67" style="stop-color:#9638ec;stop-opacity:1"/>
         <stop offset="1" style="stop-color:#a855f7;stop-opacity:1"/>
      </linearGradient>
      <linearGradient id="_Linear2" x1="0" y1="0" x2="1" y2="0" gradientUnits="userSpaceOnUse" gradientTransform="matrix(80 0 0 42.9333 20 41.467)">
         <stop offset="0" style="stop-color:#9333ea;stop-opacity:1"/>
         <stop offset="1" style="stop-color:#a855f7;stop-opacity:1"/>
      </linearGradient>
   </defs>
</svg>